<mxfile host="app.diagrams.net" agent="Mozilla/5.0 (Windows NT 10.0; Win64; x64) AppleWebKit/537.36 (KHTML, like Gecko) Chrome/138.0.0.0 Safari/537.36 Edg/138.0.0.0" version="28.0.7" pages="3">
  <diagram id="INa1oeCGx6IkDpZqn9pY" name="solution">
    <mxGraphModel dx="2245" dy="756" grid="1" gridSize="10" guides="1" tooltips="1" connect="1" arrows="1" fold="1" page="1" pageScale="1" pageWidth="827" pageHeight="1169" math="0" shadow="0">
      <root>
        <mxCell id="0" />
        <mxCell id="1" parent="0" />
        <mxCell id="K7j2yBrOEj_I1zInGum3-3" value="" style="edgeStyle=orthogonalEdgeStyle;rounded=0;orthogonalLoop=1;jettySize=auto;html=1;" parent="1" source="fan_LsCEkvDjQkuRT088-3" target="fan_LsCEkvDjQkuRT088-1" edge="1">
          <mxGeometry relative="1" as="geometry" />
        </mxCell>
        <mxCell id="Is1GMU5wEq7POQT0-QTG-9" value="&lt;i&gt;local development einvironment&lt;/i&gt;" style="rounded=1;whiteSpace=wrap;html=1;fillColor=none;dashed=1;opacity=70;" parent="1" vertex="1">
          <mxGeometry x="-145" y="410" width="885" height="100" as="geometry" />
        </mxCell>
        <mxCell id="Is1GMU5wEq7POQT0-QTG-6" value="" style="rounded=1;whiteSpace=wrap;html=1;fillColor=none;dashed=1;opacity=70;" parent="1" vertex="1">
          <mxGeometry x="-145" y="80" width="885" height="100" as="geometry" />
        </mxCell>
        <mxCell id="Is1GMU5wEq7POQT0-QTG-7" value="" style="rounded=1;whiteSpace=wrap;html=1;fillColor=none;dashed=1;opacity=70;" parent="1" vertex="1">
          <mxGeometry x="-145" y="190" width="885" height="100" as="geometry" />
        </mxCell>
        <mxCell id="Is1GMU5wEq7POQT0-QTG-8" value="" style="rounded=1;whiteSpace=wrap;html=1;fillColor=none;dashed=1;opacity=70;" parent="1" vertex="1">
          <mxGeometry x="-145" y="300" width="885" height="100" as="geometry" />
        </mxCell>
        <mxCell id="fan_LsCEkvDjQkuRT088-1" value="terraform-base-image" style="rounded=1;whiteSpace=wrap;html=1;" parent="1" vertex="1">
          <mxGeometry x="187.5" y="100" width="220" height="60" as="geometry" />
        </mxCell>
        <mxCell id="nk_0Vmsc4UEk0oq6CmW--5" value="" style="edgeStyle=orthogonalEdgeStyle;rounded=0;orthogonalLoop=1;jettySize=auto;html=1;" parent="1" source="fan_LsCEkvDjQkuRT088-3" target="fan_LsCEkvDjQkuRT088-1" edge="1">
          <mxGeometry relative="1" as="geometry" />
        </mxCell>
        <mxCell id="fgeE1z4mcF0riqID_mbg-6" value="image" style="edgeLabel;html=1;align=center;verticalAlign=middle;resizable=0;points=[];labelBackgroundColor=default;fontFamily=Helvetica;fontSize=11;fontColor=default;fillColor=none;gradientColor=none;" parent="nk_0Vmsc4UEk0oq6CmW--5" vertex="1" connectable="0">
          <mxGeometry x="0.01" y="-1" relative="1" as="geometry">
            <mxPoint x="-1" y="16" as="offset" />
          </mxGeometry>
        </mxCell>
        <mxCell id="fan_LsCEkvDjQkuRT088-3" value="terraform-deployment-solution" style="rounded=1;whiteSpace=wrap;html=1;" parent="1" vertex="1">
          <mxGeometry x="187.5" y="209" width="220" height="60" as="geometry" />
        </mxCell>
        <mxCell id="nk_0Vmsc4UEk0oq6CmW--1" value="" style="shape=image;verticalLabelPosition=bottom;labelBackgroundColor=default;verticalAlign=top;aspect=fixed;imageAspect=0;image=https://gitlab.com/uploads/-/system/project/avatar/30472118/logo-extra-whitespace.png;" parent="1" vertex="1">
          <mxGeometry x="-117.5" y="206.5" width="65" height="65" as="geometry" />
        </mxCell>
        <mxCell id="nk_0Vmsc4UEk0oq6CmW--14" style="edgeStyle=orthogonalEdgeStyle;rounded=1;orthogonalLoop=1;jettySize=auto;html=1;entryX=0.25;entryY=1;entryDx=0;entryDy=0;strokeColor=default;curved=0;" parent="1" source="nk_0Vmsc4UEk0oq6CmW--6" target="fan_LsCEkvDjQkuRT088-3" edge="1">
          <mxGeometry relative="1" as="geometry">
            <Array as="points">
              <mxPoint x="95" y="310" />
              <mxPoint x="243" y="310" />
            </Array>
          </mxGeometry>
        </mxCell>
        <mxCell id="fgeE1z4mcF0riqID_mbg-4" value="include" style="edgeLabel;html=1;align=center;verticalAlign=middle;resizable=0;points=[];" parent="nk_0Vmsc4UEk0oq6CmW--14" vertex="1" connectable="0">
          <mxGeometry x="-0.0615" relative="1" as="geometry">
            <mxPoint as="offset" />
          </mxGeometry>
        </mxCell>
        <mxCell id="nk_0Vmsc4UEk0oq6CmW--6" value="deployment 1" style="rounded=1;whiteSpace=wrap;html=1;" parent="1" vertex="1">
          <mxGeometry x="40" y="320" width="110" height="60" as="geometry" />
        </mxCell>
        <mxCell id="nk_0Vmsc4UEk0oq6CmW--15" style="edgeStyle=orthogonalEdgeStyle;rounded=1;orthogonalLoop=1;jettySize=auto;html=1;entryX=0.5;entryY=1;entryDx=0;entryDy=0;strokeColor=default;curved=0;" parent="1" source="nk_0Vmsc4UEk0oq6CmW--9" target="fan_LsCEkvDjQkuRT088-3" edge="1">
          <mxGeometry relative="1" as="geometry" />
        </mxCell>
        <mxCell id="fgeE1z4mcF0riqID_mbg-3" value="include" style="edgeLabel;html=1;align=center;verticalAlign=middle;resizable=0;points=[];" parent="nk_0Vmsc4UEk0oq6CmW--15" vertex="1" connectable="0">
          <mxGeometry x="0.065" y="-1" relative="1" as="geometry">
            <mxPoint x="-1" y="17" as="offset" />
          </mxGeometry>
        </mxCell>
        <mxCell id="nk_0Vmsc4UEk0oq6CmW--9" value="deployment 2" style="rounded=1;whiteSpace=wrap;html=1;" parent="1" vertex="1">
          <mxGeometry x="242.5" y="320" width="110" height="60" as="geometry" />
        </mxCell>
        <mxCell id="nk_0Vmsc4UEk0oq6CmW--13" style="edgeStyle=orthogonalEdgeStyle;rounded=1;orthogonalLoop=1;jettySize=auto;html=1;entryX=0.75;entryY=1;entryDx=0;entryDy=0;strokeColor=default;curved=0;" parent="1" source="nk_0Vmsc4UEk0oq6CmW--11" target="fan_LsCEkvDjQkuRT088-3" edge="1">
          <mxGeometry relative="1" as="geometry">
            <Array as="points">
              <mxPoint x="495" y="310" />
              <mxPoint x="353" y="310" />
            </Array>
          </mxGeometry>
        </mxCell>
        <mxCell id="fgeE1z4mcF0riqID_mbg-5" value="include" style="edgeLabel;html=1;align=center;verticalAlign=middle;resizable=0;points=[];" parent="nk_0Vmsc4UEk0oq6CmW--13" vertex="1" connectable="0">
          <mxGeometry x="-0.2425" relative="1" as="geometry">
            <mxPoint as="offset" />
          </mxGeometry>
        </mxCell>
        <mxCell id="nk_0Vmsc4UEk0oq6CmW--11" value="deployment &lt;i&gt;n&lt;/i&gt;" style="rounded=1;whiteSpace=wrap;html=1;" parent="1" vertex="1">
          <mxGeometry x="440" y="319" width="110" height="60" as="geometry" />
        </mxCell>
        <mxCell id="Is1GMU5wEq7POQT0-QTG-1" value="" style="shape=image;verticalLabelPosition=bottom;labelBackgroundColor=default;verticalAlign=top;aspect=fixed;imageAspect=0;image=https://upload.wikimedia.org/wikipedia/commons/thumb/9/9a/Visual_Studio_Code_1.35_icon.svg/2048px-Visual_Studio_Code_1.35_icon.svg.png;" parent="1" vertex="1">
          <mxGeometry x="-104.99999999999996" y="440" width="40" height="40" as="geometry" />
        </mxCell>
        <mxCell id="Is1GMU5wEq7POQT0-QTG-3" style="edgeStyle=orthogonalEdgeStyle;rounded=1;orthogonalLoop=1;jettySize=auto;html=1;entryX=1;entryY=0.5;entryDx=0;entryDy=0;curved=0;exitX=0.5;exitY=0;exitDx=0;exitDy=0;dashed=1;dashPattern=8 8;" parent="1" source="Is1GMU5wEq7POQT0-QTG-2" target="fan_LsCEkvDjQkuRT088-1" edge="1">
          <mxGeometry relative="1" as="geometry" />
        </mxCell>
        <mxCell id="Is1GMU5wEq7POQT0-QTG-5" value="image" style="edgeLabel;html=1;align=center;verticalAlign=middle;resizable=0;points=[];" parent="Is1GMU5wEq7POQT0-QTG-3" vertex="1" connectable="0">
          <mxGeometry x="-0.2439" y="-2" relative="1" as="geometry">
            <mxPoint x="-2" y="-3" as="offset" />
          </mxGeometry>
        </mxCell>
        <mxCell id="Is1GMU5wEq7POQT0-QTG-2" value="devcontainer" style="rounded=1;whiteSpace=wrap;html=1;" parent="1" vertex="1">
          <mxGeometry x="580" y="430" width="110" height="60" as="geometry" />
        </mxCell>
        <mxCell id="K7j2yBrOEj_I1zInGum3-1" value="" style="shape=image;verticalLabelPosition=bottom;labelBackgroundColor=default;verticalAlign=top;aspect=fixed;imageAspect=0;image=https://gitlab.com/uploads/-/system/project/avatar/30472118/logo-extra-whitespace.png;" parent="1" vertex="1">
          <mxGeometry x="-117.5" y="316.5" width="65" height="65" as="geometry" />
        </mxCell>
        <mxCell id="RGWA4EDSqpvY-7NrvAmy-8" value="" style="shape=image;verticalLabelPosition=bottom;labelBackgroundColor=default;verticalAlign=top;aspect=fixed;imageAspect=0;image=data:image/png,iVBORw0KGgoAAAANSUhEUgAABDgAAAQ4CAMAAADbzpy9AAAACXBIWXMAAAsTAAALEwEAmpwYAAADAFBMVEVHcEwhlO7///////////8ile7///////8il+r///8iluofl+oAhej///8glOohlOoBier///8Li+j///////9QMrIglOwjlOv///8ilO7///////////////////////8kl+4Wj+7///8TjPj///////////8jl+4ilOoilOpZsO////////8klO7///////8gl+oflO7//v////8glO4elOsakuv///8hmOwklev///8FgOf///8EgeYWkOoEhOj///////8jlev///8Xkun///8dl+oaluwJiuf///8tmOggme0kle3///8kl+r////////9/f4ll+4BgekBlegml+wglOv///8jlOr///9es+8hlur///8Wj+0flO0BhugJhej///8Ykev///8HiekBgucEhucdku4XkesflO4AdeYAf+sLiuv///8fleoDgugLiukjlOoglu3///8Xluz///8DhekimOsml+4ek+shletuuvL///8RjuoSj+oil+wll+sTjuwjlu4klu4glOobk+v///8Bg+ckluwnhd1ktfAFg+sake0ilOoCgeYek94HiOwll+ojluwXkOxSrvAfl+7///8XkOsile4mkeoMjOkQkekCgeoelu7///8Li+sdlO4gle5uu/EjlOsnl+0gl+pot/Ehleoel+wSketMq+8Vj+z///8Agecml+4dl+tZsvIckOtgtPAbkupRq+8FhOcbku4Vj+wjle8bmOwfl+wSjuwkl+oajOohle5asvARi+tbsfBhtPBYsO8HiOkBf+cUjesckesak+oYkOsdkeokkeoUi+wkk+opl+0Zk+wPjOoTkusfmOrC4vwEiekOiOkYjuoblesznOzK5fpQp+cjle4SjutDo+4jlOsWk+par/AHiusml+oPi+lbr/IglO5TrO93v/MBhOgYkOqs1vhtu/MDgudBo+1TquuPnswAaOAekewxnOwrme1ZrvMnl+wWk+s/o+7+//8AfeUVkuve7/xltPF9wfMll+4kle4edY8NAAAA/nRSTlMA4QoFWOEDAvscpuymGfr4WBSmIEMC6esx8h1QDhgtEvvhEQ4NBDDy+vymViPkCw/55QFG9M3OTenbFnk2c6ZjUzPeBjdI6lhxLxzB1zj7PAkI/Wgc6sRA+CmL0xC54HV4N9omfVlru67jWGydX9B7o+7AK1habq7x2+KRKMWxfeJgu73w1DRgwgaMnZ31cQxm98zJneVKs+t5sbVe52SSyrmLw7/umrL0qpO8XKa59Z5xk3aNgeG2Ndmry9CoyI6Nh6aXl1aZo3vgIqefMNbBzjO2jlaHo+xZgBO2wCnBo5ysqHh99aWiooSCqk1lIgUcaE6XsEJVgXtU6J7CymyDsOIAACAASURBVHja7N1tbFXlAQdw12oLatGmtYVaStMXpOG2NUBCKUUUBkFJ4V5MhwwSykpriEaGzawag7zoVbLFsmWAJBCH1DSERFP5MGQMZ2bY0q1hVGcinSzZWKJ8kLDEZHzRnXtbXqpmentvjPP8fsntc87tc597eG7On+c895zT664DAAAAAAAAAAAAAAAAAAAAAAAAAAAAAAAAAAAAAAAAAAAAAAAAAAAAAAAAAAAAAAAAAAAAAAAAAAAAAAAAAAAAAAAAAAAAAAAAAAAAAAAAAAAAAAAAAAAAAAAAAAAAAAAAAAAAAAAAAAAAAAAAAAAAAAAAAAAAAAAAAAAAAAAAAAAAAAAAAAAAAAAAAAAAAAAAAAAAAAAgc3Jy05KjByFssuvy88anZXJ+VrZ+hDCJ5pUV3j79+rGbPn32yrLJWXoSwqMuUtjxu4c/vDkNH/70rZ2FBVX6EkIz3ihYdO7QL+ZsuSEdb5w4dG5mSUxvQjjk5je37pnzzLQJy8aN2bIJP3/ljc3z1tXrTgiHWOTWn62+49N0ffb48bdn51XrTwjHDMe9fYNF49IOjk/vvOHYvohvViAc1jQ/feqV9HPj05pdvTvbTHJAOExZef43kzIQHCtqBQeERn6GgqOmtnd+20L9CUYcggP4MhXLPzqxKTPB4VAFwmJN8/qDmQiOFfsFB4RG/br1B2/KSHAM3v+U4ICQBEfT+uczEhxFQx2dUf0JIQmOjZkKjvvLjDggLMExNzPB0TD4WJkr60FwpHKtSnnDgcfKHKqA4EgpOVpeXXJvnf4EwZEKwQGCI1XlLQfMcYDgSDE4GgQHCA4jDsAcByA4gP/74PgseagS1Z8gOFKaHHXmKAiO1E857+gUHCA4jDgAcxzAt2vE4VsVEByCA/gG5jicOQqCw7UqgBEHYI4DEByAQxVAcJgcBYw4AHMcgOAAHKoAgsPkKAgOIw7AHAcgOIDvbHC4AxgIDvccBb6B4HCXcxAcRhyAOQ7gWzji8K0KCA7BAXwDcxzOHAXB4VoVwIgDMMcBfAeC4zPBAYJjTHMcUf0J4QiOdRszdcq5OQ4Ii9L43KXFmQiOoqGOTiMOCIeqeGtPJkYcNbW9O5+K6U8IhayyJUMtNekHx51P/nZfJFt/QigsjLTfNee19IPjjtUnZ+dV608IhZzGwnOHn5w07vNqAitGlCcvf11RnijLV1yVqDNc+5ZZC/asjdfrTgiJaNv0Nw8/u+B7o22p3VBbu39/0f7gUdSwuHhxS0NDQ0uyLAokfuyv3bVhQ+2WLUHtDQuOb35rd4kpDgiL3PrOS++//fcbR/nHn4519fb2Dg4NBo+hAw+eOrXtwODg0IOnDh8I1ocN9nZ1dR07lqh94x9eWru7zelfEB7V9ZHlu99999ZrBWtbt168rG/v+0/39V3s69v7n0SZeKbj/o6OnfOf27evPVn/0qJ4SV2uvoQQjTmyKibnjR+tpKC/v/+D/oEPAgNHP/nkk6MDA0H570SZeGpV56rOtkgkUlBSkqzfWO84BcJmxozc0XKqdwS6E4/uyjMff/zxmcruyvuC8r7K7uDp7lg0GostzM6uzhl5gT4ELrsteOzoPnPmTPeO25Jl5Q6dAnwNwZijsvvCdReSpeAAvo4LsR2xC8kyliwBAAAAAL4znIkB34YdsTpaVVqfUFpaVVdXVZqQykJVNPYl+3JOLCvx26qq4OdYWq6qi1Z/odmcrCn5jY35+RVrRionNrvyqu7uxJlgiXPBukdWu0fefngzqupi1XIH0rewoqDznqaEdfH4xKlTJ8bXpbbQdE9nQUX2F/bwxkhZvGldU3xiPNUGRxYmBs1+7uzw7PpIc+HMmYUrlzePVG5qam7+/mVHT58eGPigv79/4PTp00ePHg3WBgbuiTdduxmrCvKzcnzqkJ7Y+Ka7H2qduzFhbuvaefPWBispLWxc23EpXpI16j/ynPq2wvYlrUGl1mSVsbS89qHpzSWjbipcPWXq9effeeed8+c/Wj83WSfY6PXr//j0iL1HjvT1Xdy6devFviNHjuzduzdYPfLP5D/s8ma8sLO9sK3C/b8gLdGSwhfe3tOz9PmEpY9u37Zt+6NLl6a2sL335JKZkVGXqletunTurqGeoFJPT0/KDSYXerbvOTmvsCR6TRqtmTj/9b/9JeHEwZHKwVafPXv2YNLZ4IXbXx3sOtY1FLz80eF2tg2//chm9Gzvfe/l9nsrjDkgDdX5y+cdO15bXHxTQnHx4qKixcFKigu1qzefW3TtzXFiBbN/+OCcluBXQa1E42NoeXHQ7KHzy6dc3cez2vad/FXRpFmzJk3atGm48k2jJF7YUrRrw66ixLsWJ9sZrnRlM1p2zXn+pfa2qI8e0hhwPPXcn1c/MyHNv3A0YdITm5fES682Wxqf9+snX0v3xsITnnn24Z9EruRR9eSZf/3Bi1/ZaHlNTU35/7jH+QP7z768Mt8MKYxdxfK3vsa++NUef+T1RY1XdsbcxkUvHb8j/VaXvXi49WoeLWzbemjBtPRbfeCJ9y6VOFaBMctt3P37Z/+Vgb9VMm3Bh3fnzbjSbN7dP15wSwaanfXImzPzr8ybxN8/tWlF+o2Oq+2a37bQhw9jNWPy7b/8USb28HFbbr5+/JURR05J+13/Ze9co5q6sjg+vAIhDZgGAwQMiMEBCQkgKAYUEIMgz4AIUShCAGGJOKC8FVEw4NKKoDCo0MpjREaxBbUiHaj1Vd9WxmWtVGaWOrYy1j5c41qdDzo3gTygtIZwgncu+/+FwMranHu5/LL3/5yzj4ERgrCmSfusqCRFdrRlbz6Kk9wa+lJF0AUMBNIcHFSrfQUuKMBhMAocPSUowGFyZY4TVR6WFvP3L//4Gs0RkKII+OODQBqXKmTfOVdMtAAOfTTgCLvyRBmWZjb4JZKMAw6dBoEmCA79OVfCkIPDkHxxkQ6ajOOJkxIcMYOfWiIIauvZmMuCjAMEmgA4nNo/McIvOGKTPlZ6rnHhT3tRZByvo48HBsHJKiDQRDKOc1oBhz4acLy//byAL48aF5rcnIUg6CsABwg04VJlpjbAkYIGHO7zzpoppmN5icnNFBSlSnQjeBwgEIHBMSLj4HknV1BQeRwADhAIf+DQ14LHwfNeXwEZBwhEYI8jRQuzKjxvLyTgAI8DBJowONrxDI6wmXP0pxo47IW6EfbwaIKmZMahj+OMA9+lColHZ4mpXNiEB5oaHse72sg4RnkcXlPAHOWK539fXsuawYWN/6ApAA6dRdN+nC4PO335RmMcz6rgOePQowoe9/QUpQpYtAh4PkHEB4fx0mVKcCxbaqyFdRyh6weI7nG42SUGFp9Z7HGgySeGYwdbeEFE9zh0jDeqguPlQ0QZR2ctX1GqhCYT3hzlisp3rSqrytfp7TmVE05nQ1dlEE7B0a4VcGy8VoLG4zj8cvmO4aizllxGAY7XslIFn3WAkG5V1EtxfPXKtGzBretevhZUXZhgAU2hjGNptzOaWZV/33uuAo4BNOYoXrfV2/NjkuNdY2WDrKoLie/MFYho0KsMRGiPQwUcO65u7HZ2RAOO7x/M+kEBDiR7VSI9+1I34BIc1qyongVH5N0Y3V0zD6z8AKtXYH4FNFXAsTUvHQk4ZmLguL8DLThwm3EI6b6dHmXKDu2mljp7/7TeSmQH5QoIwDEeuUgzjvuVcnBsaSayxyEtVI66jujHFvuXkPjP1kn4ML0CmgoeBzJwxBacu/dgFlpw4HZWhR2kUqjIs6OPXPdmrI2hs2ElKQhf4GjXEjhqUIDDtODFPZVShdDg8KdbfVid9aujpFzMM9uSrUQ8mJgFTYmMAwk4YpO+RZ9x4HPlqD0tfHV8jckY5Vr+gviTObNtIOcATQWPowaNx3EOfcaBz70qXFH53TPuYw74iOvmwz5+NLBIQQAONcOOnFUhcMahR57f1Ptb59TFMjx27Qkl60LSAQJwqBV25DoO4nochtaS3cWFv3mmngml+ovdteI4MDpA4HGMf+UoccEhXcKR+TvHdIdRQg6uzLGwg5wDhBNwtOPbHD18b9kPiMGBw1KFZBO+Pr7h9w7xdbAs3Hy4HMgBgoxDrd2xRT/fd0MNDvyZo0Jx/a6Qj94wNV3nsfMDIAcIPI43y3Lei//c/wPhMw5DvtnTijqHN9VtlHkZPkAOEIBDvYxjOuE9Du6GqJ4FVW92fCjVl4AcIACHWgvAiG+OkqiCpkNl6njFlOpvtwI5QOBxqLOtvpLopQqblVqsY6rW/fiqOgPIAcIDONrxvMkt7L/aWACGM3OURK4t8shXk6SQc4AInXF0pyPLOIi+cpQblFpc6KLuHZHmHLPtoLcPiCgex1Kt9eNA3MgHZx6HG21u06F89VmK5RzlQXFADhAxwKF6rgrCbfXn7j2vVLYOJGKXc6G4ftFi03FkYV9VX1gXxHODpxdEAHCMOMlNj1OOJOOIrEp68fNzpTm6P5h4HcAM7UKTsym246nf6vaeP8aCTqQgIngcI86O9ef4oMo4Dj/7UTEde/tRtjkScxRPPUeFdP2MkCPjK+AYm086ibnw+ILeIji0cVo9lnGkIVrH8U8rsnwKge33qDQAQVB8dTm3CfVa4znOexXr+s1gLR3OTQARLOPQ46xLQ2OOJu2zosrDsi0SkIADVxmHHtMp4+aR8V5C1Sen18fwobMP6P/f4xgBDno9InAU7PNVgsMPCTjw5XFYW+w+2DD+W+W+oC1VEgfLOUCEAoc9Bg5nRBmHL1U+f8CVJLSg8DjwNKtiOENQlJmvQdaUlZlxbBPYHCCCgSOnDQk4TLFSZYYcHNYSr2yigUO4yaftPRdNbnjd5pW1TLA5QETyOEj0lDZnRKfVC2iKrD7RK5hgK0fdbGJOabg2Jdb5dEIoDYoV0FsChzZmVUjMlDYkp9W7zztrpgAHz9urgmB7Vfw5OddDqjS7DMsz/9hjwQNygAiUcTD1e0rQZBznBXzk4MBPxsHzTjjq6aDhZWT97VIKrOYAEcjjMCRfXKSDImxs0sdKcxQVOPDjcbjxBX/NtNT4ntetaBKQofE5CMDx692xT5wUYYkHDn/OuncWu2h8HaaFfw70hi32IAKBQx8NOMJmztFHDg78lCpcv4Sj5raaX4nlzev1m3ThMQYRxOMwJKfgOOPAjTlKogqKNK9UMDlQeptqoVgBvQ1wtOMZHCM9jkSCgUMo1nARh0qxchCKFdBbyjjCUNQUBu84aaFUObK9U8CXh7WWeAWjWAAWGd0YyMKDxxGXmHxrgmvoZcUKzKyAJh0cTk+umKCoKQy+cxqVcaDgUf6hp+F28qhsyWo0u2MZ/WvxkHEY8gWdq9wndi0OlBVNAioUK6DJrrKt9iWZIvhnNC3YqVwbjoHjzhcGKHgUMPBYYi2PqhuU2+cZiSA7cm31EQvf/s3Xo+e8u9hlosXce8W5FtbwJIMmVzSzlfOyEPyHW3qcnEszVOHRzqRYBBZHYZ6PSPEv7i/2SUOxkL3qzPU7dBz4AhGstacZEwahZWanL7TmAE2yuKzU4sX/ku1Hs3V0NMLk6BipzgShbWSkI6ZI2ZsdXQoP7LZgq/Ao5utv6kxNwoxUpV5gaeShqJFGWb1nnyknDUjk+Rcyy+RjHRrtcGTbNw5VcWWRDp4rmmJoOGi8ZxN+Knji0DZ1jfcKha7noMmVPXXu5/EFDPOAgGhGjXOJjk5JujMjmhFgTpHL3Nx8+GtAwPBLinkAw5PRUJOeXtPA8IxmmDsXrFk5n6mS/euKcy40FxjoqAqL7Do6svIbxc+w386QRQ2ITq/e5cNSwRFPsjBte11Zlnk0w7kmXTraITnXYBegEm2MoTqXlJQ41zR4MrKyCldcShFH4MDioM6/cPN9BPt5bmY4QcoBmmTpiq0e3+0rHTja2JfXfe3hw2t5rf2NpaXZFQMrmjFVZGMKrsAUnN3S0pKN/bwZe126ra+/Na+7O6+1r/94aWnf3c8vitiq3oldUErTdWNVPcTe3H98W0uwMvJQPNl3mAYqBrDILaXH+/v6+rGoLaWtH+4JpakYf0Ky2eB3Rz/de+t4X2uedLSKyP3bSltk4xxobh57qNeMr0lHu+ZWdtrZegsbHFQq/pzytBIERpBjQ3xCqB08yaDJ/dxjc2JSch+d+Lpjj0/9tDt3ppX7/NTRceLE/stbMF2+vF+moa8nZK+kr0905KZi76/32RO1NnBhQm6KmXjkPk09O3HMszvTVIRFxgJ3YDFGRd6yZeh7TMleXgkLA1OjolKxqKsXRv0ymz/io1SXGX5scHDwcmCUdLDThuJvfLl060/SuMOjG3Oo0jdio+3oGHyUasWi4aHpnrShGQPFCnr3VZd+YcLECmiSyRHB57AsJH6zRRw6mUxm0sU3MHV1LRlSV9ftriVdsq+Yhn6Mvb7BEok5mDaJNrAsLFgcvu6oz3CSLo1KHqGhyLcVkZdgEWWhlfL2TpRYsEQiaVQ/iR+LyRuVggtpYr/w8ETZL6czh+IuX3b16oPbN7BxDocea6h0MpNJ52ySXugGJhsXzTppZp955KMAh1FD40IJD55k0CSLJNTlstncCH97kqEhSU8YUVlZOet/7J17VFN3EsflGYImISGAGF6CCCwQlCCPlALVIsiRR0DkobIaqOJ2a8X6IIiKVrRIFREQrbgKbHl1peK6WqlrdX3samu1WruC1dXWXbXuIuKxPXv2nOveICQ3MVZuM9cEmO+fnDAZLvd+7vxm5vcbHaL8uExsmiSbYmY2RSZLEovFpjJdoT9pjSrScommZe2vCQgIcHISi5NIo6RVpUc6fB3n6u4klpFf7tln387OrkTL8LOukh+29JxC/qFOTknGkQ+wZIsa5OUQ4CAcj54KYWP7KAo1DGRmW9NswgUBh1XVri3TsH0UhRoGMn1n/rWJySDgILyO7tnOwZADhRr6CojPmZkHww2Cu7DxTWrdGoVCDU0FSiUt+m5UoWY5MORAoYaBWOyoxWE8AizkqMaQA4Ua+jLzqwHZeKPasbIyBEMOFGqoKylj/rWJbmDg4Pp/MN8FCyso1BCXU3jOhZEEnBwnbRK6BuJ1RT1HWl1VdBXIGoBRuxdLq7drgL7SMvocX8kf0/OW9ct8pSe6qwSWVHJgURAgOHhhi5fZYt85SvfCWKzdx01XHKmT9hE2zzaHd8e9SN1aVvmmlgPxtZuOUV2+jpCN4zvTMvqMVWe+qRkD15UvptXHHsiJuhuWDgiO5NA52ASG0i0xx0Uo8jXXR1HRG2zHaTzknu7ZaVpGbWKW/rxibDQ+7ytKy3b3HICvP2tYy6guX1niMa9JRL50vNV21TckzcXZFPq6+oqELmwxjbDDcoy5wMIKEByEV3CdelomCkW5v22FKZtKR+mlu3teDcmgbmT1dB+9rEPTqCDC+kWKEGj8RmmHzWhNcuj09QWGtYwqfRVlzKY+jeLs7VsOltIyqm31bumJrULbcVq+/u6gftf1bunxlOhsGoNczfxqmhf6EKBrlW/ewLUKSse9xhF2NO8NK7LQQ0WTjx7O/G+2+o1r6T468tQqueanTF4szV+QXzizdjT1lP7n+ErLKOlrdebpDEr4LbPd/tPqSQp6RrWsWhw51nxbQj10iPT1h1uf6nldw7atvnKaxiDXpIyH1YBFld61Sm0srlVQOgIOl5Tm6eu9tc7jo6l0r4IFt4VSVXSgPKpr2450vYwmcNN3bDtjQ8ERjK88r4ILJ6LZqs2sLH7i3OrJ+Tx9rCZwyz88svrVeQGgviZwvfMLltRFswec53Da0PGtA0HArlUyca2CelZ8Yd3e9frfXx8rIjaqz/jmp3WsCtV/jyZ3x4UTaXyqr5sgfE2fnEvpTpD52bw/3Utvo0/yj54K4XhC+1pesDpl4J0U7on3KvJhwYF1FZTOdBrn31+EeQOEtA43vg93UhkVVYIcCpEu3y9Sdy4qTzmH8JXIm5mjnqsintZ2yR4goTjBor3Gzwzc13wab3zlSJXiJlhwYF0FpfNeY39tDXFEpXKSgSo4gBvIZLJPYyDT6b+C+PrP4hb1JLfZ8WsufAhg1KdqxdZCGcXXxSC+essrRQPt+g7kRO1XpMOCg/CatAnXKqhnwWFjDTIdLSi4RdL/MPZOqwcaAWkOP8ktuVx+MkTa3w/pmvbDp44Qr+bdjSlUcJgLLCAugcaA7Bf+M333ZXGBwcFT/FbEwTkJKB3ggKj8B83aI+EHUsDBxNBpc6ih0+RbPFCVjwECx8RGjYjDfBRIR0XC2F+ZDxwc5JcmAIPDyj93ox/OSUAxBA7HYq2Iw6in1Veqp9VDRRw+/tQRkL0RB8gloAsOK2BwEPYLYsdjkgPFFDgoSbzeafVGDY6banC4J947lscAOH5jEHAI4MGRj0kOFIPgqLiX5qq+gfcdMuKlCk9eGaKaZT07PqceAhzJuxu3GjziOA1zgTDJgXpZ4FhfcSJtsEQcm4sPRKveoQHzcuohdqIn21+bn5FkUHBYjrH5vAgcHJjkQDEIjvxJV6jgMOocR1DwcXXwHRCe8x4EONxCa5e7mBp0qWLmt7YddqtKX5KjDZMcKMZyHJ8JGQeHOVTEcTJaqgbH2yDgeJLaGqvu8TRIxCErfLhrdzI4OLwmPa8HjaV0LFCpEbiWQXD8UnBI+IOmqrJfnRwNCH+FkYgDqMBBBxziaR0LUsG5QfAU+0WqlJClaoJeUgBfyufzpc4cDsdZKnV1Mk1STt8zs2QF4jGlCI6Bg+O40HWQ5Dg0mqqgwJEcekkTHAIDgKNtDgPg4GaN8mUHksiwpB5NZJsRLpRIJNHbRaIokShEkrhhmgupbL8xbI4zP0AJEOQHgoPuUsWoqyoaTVWA4Jj/jmFzHAyBw7sqN7LQnUTGGL/x/UcTnf567cOOy5cvt+w5WVl5s7LyZMuVuVuWx8a+ubXmDd+oEGF8hl/vAWZmuIRBcAx4ITzIIg6o5KgRRByMLFWIqQtytscrD3Tb2Hb58v/+9Zd9owQRn7cf/vbixYvBi6bLlSoOPraktba19VLjij8LKlsO5syvMVcei2YrDUiawkJ6IDieW1WpuKfaccpYjgPIV80cR3zODQBwPHEbssnR5Kbi+/dyMvfvE+TOuSg/O/aQiYWFSdHCiSMdgxybmsp56enpvPKgfAf71NTUUP+FRVkK+aIb15oFd09mxi6LjnfxY0sDZMgOBIducMysS6RGHEDgEDABDmUfh7qq8vrfQCIOInUd5awsVrcNTHRkBOVYwvvv02fWByuyiqrsvVQHHvk8e9KYG4nPZB8r7oRyx5ETF1pkKSrmLP4sZ8tbIsm8DI47sgPBoTvieNxp99SoXXfMfRhwmETYdNv1+2o3Y6k1VB/H485+qx5Q4LCvbfuqTOVrXIy1ydBoAFOSY7ODgyOJDBoHjLj5JJD8CJ08q/7wrcqW7yND4rM5s2WYLkVwaIMjeGVPXEn/U3P1DkyOw8Q6Jk4NjrgfvwOKOFb29EMODhyprW3nKeBY+vLBwUzLuV6rnAlBeaEFiuAluQdySHb48ZM88ZlDcFDVVNzQ01X2oB8cAihwLKWCY+l3RTA5jjtXu0qGIjh8GdjkpnfW2IrnONVkVn3ugVfeErqw3WX41CE4qG/xR1eve5SARxxUcMyIgYnEuWPv/+d6GTg4ag0PDvNRRQmEMYrb5FAw66NRl5eL4v1cMexAcKhUTr7Fr3c+BQeLBMdYeHCUxMW0+/uAPIwkOPp8VYLjBgg4pr6785N+o4bJcSgHuWVNIIxU3KAdiopdZ95elpYtFSM6EBz94GggwVGmijiYAMe5tXDgON/Zt64Cizgclqx5HFdWBpyPoQUOZ9FNBY8wWrnx8qu+/GjxnyKFhXzcbovgUC9VGI44zq1dAVJt5J7VAMdOGHCMvPDT465OjweqpUrRS1+qSCUt0KecA8vq49Sw95rrIhNtxVhhQXAowTGroeccJeI4ZMTgSFfcV0ZHJbARR97ejp6uzj52guVj6IBjBD/xyl5HwrjlXe6QNfObuaLxHEQHgqM34vixS50cFRgzODYreqOjEtgcR1/E8bRo8GBGTPvLBwdQFyzT4uUdqd2zPLrQHQc9ITg2Fzdc7WK2qqIERxVIxCG/r6oAKcFRD5fj6F8A2RkEHOJpsa2pxg8OIjnIf9HquppwNgYdmByVN1w9V8Z4jgMEHBPOalRV1sCAY+rvlVWVPquGiThk2SnVE70HATkInlfBsS9io7NnY3lleIPjSbn8UU9XWQnDVRUYcFgxAg77dW3nPezU5dh2/5cODk/bP9wqsiIGhXgjv6zOXDbeFWOOYQ2OZDLiUIHD2COOhN4+DlVVBRAcZQz0nNAAB4sTVRrGGxzgILwdC1Y1RL6GhdlhnuMglyrUiOOQkUcc5xkGB1zPCR1w8CUHFgURg0W8Hdve3xrPFuO22WEMjqbiR0zvVQEDR18fRwkwON6ltpyfW2oAcIxwmjcoyiqqf8TIRf/4dXS2E5JjOIODmd2xjFRVnvZxPICtqtiv++NXHmpfDQKOKYUPG/29Bw85EtZPrz4hyjbFB3E493GowGHsOQ5m+jjIiIOyV8Uw4PAcczoCfF49k3ILmnz49us4YXI4l2Pv9MQ9GDEoqiq9fRyqqsonQJ2jU5fsfBznUWbQiIMlDWn4P3vXAtRUdoYDxsQUEwjJQiAQHAygDQQEIQJBEERlkZcsGx4+ICD1STSOCLi6CJpSqKigPNQVrajga3WhU7a7VRkqartK8bGVrptqtRZ3HOtsp9POzg7be0Me9wJuSHLS3GvO52Mul5OPbw65X/7/Py/5gREyYXdJW6I3zFXseDj2Hw9f/ZMcEUfILdwEMKusVbGNcVB8ZLnhAaQyjoDwbnimtX3P43j4ah85ahws/DyOViWYtSpXhr79WmccNoo4KELVqmo3UhmH04BC6gUfRHtOHdwq4gAAIABJREFUVR5+TZJRFfwEsJ7WZHcgxtH44bev9FPO/7DYJsaREPjzNZVkKnKwHJ5sLISbgtn5PA79mnJir45l4TbyGWxVAjKO/xiMw1YRB50p6b+zl0TGMTevr8kbzh6F8zisXONYC67GoS3I7Bvsal8ExDjeH/r3u/t0I9I2ijgovim/PrmZTJnKI0UKzFTs2Djm5m3/9t194EdVFlvBOJw1s1x1xnG7qxqIcbgPtC78yy+0rLaZco4gPSezOWg2aXzDOd51YyDMVOzZOEr+9fI93cetdc5VAWYcB5Do6LVuxgUw43A70TWoX+RmM+OgeYo2kWa5yshIWXhuGBsOxtp1qnK2STccD/DsWOxJbn6co2vAGIe8T8LU5dXChU/bgdQ4sqqW+Av1z+/r1Z3//2X1aN+zuSQakGUFrSkWwHmjdm4ciVGheuOwxmn1Uzgb1wBKVR7zmTpaL1U+kOLoMrfqesMRkDRPqqtNjIMiTqpfMW8ZSYzDo6StiQlLo/ZtHG1hVj6tHljEkY0ah+7Qaa+C6GRAU85j/AlgHFM4W13JkqvMyKqq54nhU2jPxuGR161PVq10Wj1qHGDqBvLnmNPqpdFAZo4uQ1IVAcY41tnIOChsbm0ESXIV5/gvV3PgxqP2bRwRV7mYiMM6xnG+E4hxhMgPgjeOkayL2NPqbRZxILlKDFlyFY/wX3HZofAptGvjOP5C5mNd46Bx1nUC2Y7PWX6Q720N4zBEHOgxrg62MQ4kV5leTopchRV0uFgAMxX7No7djb0yK9c4aJ6ARir27vkkUb+uCpxxVGGKo3TGOjDnP5tuHKFs7r0/lZGjNLpdAkujdm4cZeEPsMZxwSrGQf0dEOOYG3GNC9w4lmVdxBkH1VbGQRFvOXa4IoT4vpHtsLNYIITPIKxxWDnioDOuzwe06VBfYhRo45iRdaLUMCXBlsbhx2y6Gk78kGOWU2MtHIuFxhFxFTOqIrJGjQOYcWTLL4Evjs6YhzcOm6UqFIpQUEyCkMPjTt3GD2CFAxrHNS6mOPr8VqoVjIMKxjhYt56L9LRvX8RBoTGbtpcQfUSWtfareqkvDDigcWBTFdHzWywrGMdqMMaRin0YrTQca0vjoIj9S38TRPCDmQI+v/aSAedw2L1xBETkGoyDGfdTIhuHVSKOHxDj8Ac/qpJqjnH4ecZtuPMxsQOOOc2lSTBRgcbRcuVFmq9uQJDJHy4PsYJxUEHVOA4a1qqAq3HcHZuqpII2uUnDN0Vxzp3QxySURWyHlVGyGweAN/gPpwaeFXgZjOMxkClIqeMjDhAPowcmOqJ4SRXJYBa53S3OyTBoFW0CsoUfOlnN9AcsI3DrJXkHgX3jwK0n65PgUCyZjeP6DRBvcM2YQrrOOKIkfXtA7F/Hcrggwo2q3JgK4mFcVP1UpY+ShQvygSyrn31oW2xggqE++XJDJIiP/IDwXDM2Aaf5pH3zyI24VQ6W26OhMBhwkBg0Jr8OxBt8WtC2WMOes2xudwSIiQTZ8kuYj1tE64bybABxzFqs1vQt65vnAHjEpq28sZrjRzF0wbUGAF2wbN6Jy+aUAjIKqafzCDuwMmNzRB8Vnt9GarC5tcd3W/5W+PvSL+576h9xL17p4QrL7YjVsmNIhvm4Zct6B1pYgLX6cUT9eR6WP+G7P2/D7rorFhSfqbD8aKSPI/9q1vpRerAq5nAFUVesdER2ZvLgibGkhliQ2bl09yxW6jSzkcpyLqtY8SzNsAVchie/e6AywELW7JaGfhfs55Jj4er+hpZssFrpPikxzZ+eOmAZ64HNS3eWqoIxAxuMly+UFWWWdEEqa1bZynO9MrO21pvCaMptPDWDkL6RPWeFQhYFExVSYwqTO/SksbxyKhYORoFrPrU8fGdvXCAmohbmUK8dKYmPN40Uz+og39G/i4edIkTz5e3qH5BbJHW81gTPxGedVz61RCrCesX1mzAGdtddceH9F2fCIytNYsUzV0aiWgvTzfrFOm45Nj2SkKdBstx2dPM5cIdisoccHO7+e3XTsXCd/xMjmO+Ke0Fdd72kEBt60pbnSGK6h00jHcN64dKQC8/XDzc/wZfnMlRnkdTxWilCpAd664YtkDp9uK43VsbB1SJowYUvi2vrTGIdy1xXW5xYGGzeRzOdzX2w488E9I2QzQ2nt+bAERXyOwdTwOWLqFi4LDYCF2xrkYgfxvMU497fNCFnQRhfJDKFFM9KFfFlhXjfQJ2jUIbX6mIi6QRaKY5MgUyC1WqyVJFEtiVqTGRAEzPwHWucdQyziM8VMMRmhvR0dtp/v/+OgLlKWd4XsbxgmKi8BdmKmM1k4PD6PSN4jW/vzRaOizwTvNgmko5lZbIdx729aI5jtJoqdUKtUxzZ3hZJZXj7jNdK8cN3rHHWscxMttjPzNEyxygete377whZGC2VsqFvvCWjsnQc3jEKfPvQCct3yG3TSMew0iaj1VTSN2jFs5os9U1acbTvTA6TYDX220zwYgoSj31yLn4vEQujRVxvuEYFAoJgQOKcQJWk9Orhz9Z2wMIoBATEJIKNdF+GgHs+uq25oaKMeFtysFo+69uaA9e2QUAQq1jFyEnjl+ZuOpe31oOAO/mkOjVs2Ji0HBY4ICCIkqCke7E5Aplov+LxkYbIlrlEnDTKcmr4ZewCXzhjFAKCAAj1S1/O9swpCNtafK+u+eTSOWXOhJwxqvENng+MNyAgbF7ToKWLEdNISaRm5t8bPtIoP7S5g6CLYqFvQEDYGvTQUDoNrWlwcqRh1Myis5uaB/aUf1TmPHtkhMi+ATcZhYCwjV/4ZYiD2VHeTAYj0J8bdzQz/+qm5vfzVgY5zc0m8J5f0DdIEsLS6TS/hIyMDLHYC4VQLBZO4gKF0GsmHvs0wFyiQF4iFAonx4y2C545Aeu4G0g7LW+wcalvYJ2AdFSpcanBo5j54xhVjrSzTOq4LtZ98UbmYF824hecQkGKLEwSF3d915LaDZ13lSWRiGmEEHqjQHQ8BfoG8V1DM9XZkxP4Qc6WJJ5KVaBS8fz9eaoCIxdJSUn+PB5PuhCLnsHB27dvDw72aK5vo1+gWKBCXqCSSo0yq1RIG+Q/LCWKQRSYm+iPWagqkKKvU01Cqr//AmkBXupCDWkP7gYifVSpyrjUAqkGKTipBuoeLRCliHKksVlSe3rGaB5l1HTx6LdS3sDMU6WFSfii85lLih6cffzYdf62n4WXV7q5exA3P4HxBplsQ4iuWrt/3+Vo7P7M9Uti8qMV0fmrYmJWGb2oR4Bc59/8EIPWLi1utt5Eri93XUbR9TQ/Px9pqjDOHI02jH5qIG3VQMPZqr9xU3MjX6FQaJorjEtFLhU6qToeDKnhxlON0ujJdAKKoiK8VG0vIH8QNlQ4Str61EypesbxndE1+r2bRUUTM9crHpw9eGn4SXOV+vgeeflKh0NuZc7TyHAuvXMW9A0y2IakOPf0l3/742+3nbn71cUqZXJysrK6qqp6EhdVyL/2ZLVafVIHdbKyvRpBuzJZrUQu0Rbo32rki/Z2pXISzEhDZXKNnlSNfk/DirwcualW19TUqFEi9IfUJGt4jUq9eLFKy6oFQqwefa1Sp16tHiXVMhqXWqOBGid1VKJSC63y6vZkpLE5UrWM+u7VdwaqE/2WGu2PiZnVx/Pk8SuDgrKcPDqyQ1ips0bIgY6gHb+PVcHxFALDT8wUNK1v2xmBfB5VBh36yG1e1iJ3dyd390VubpO4+B97dx4TdXoGcFwQgekw4DgTrkGgRK4y3McAcqgEA6kIaBDlUuQQi45XYFGOWLW4WVlCUcEICNqyotKta9waV9Yj27pt2pBGdk2abWqNbeI2/r9/NKllgFVu5jczWQbf7yfZxBAzjJv3ffI+z/MeeXmjf97oJp9s9OcGboafGv7oOm70B26G/xb+5PG/OPUjx3449TeN/Rq38V9o+OsLfVXDH+XTGD7UbeaHTnxTI/4nyGd+4pTv/Pabu8lN/KrTf8v3nzj2PSf/S2Z88kZ53YBLhLPjUokXE4I8EooLBjOJG1YsTXkkvbr36lBoXZCzo2Nw8JYtvq8lXZz5P8DS9/YUVpXrdoRzINZ6e3W2ntmpD5uG9no4M15hDV77xkT2PctQq9aw3rBeYdro5C/vHw8kbMBalhv9d7vqU7MVOcxO65Wj7fhX03B/BMMV1sF34Hzfl7t0RxLTmJ1WXN9QqMu7EgK3vGbAwjo2b5zadLk3NdszjDTFmvspidnJVQkxDFdYyXLjw572Z2s13kqWG1a9faOouTpl2IPxCiupbpxK2NO7NVtl6m3L+IEKHA2D+/SnghiwsIosxeNYX0p5iLeS20WtPFFRRBc0XtjMiIUVcKmL1DfVp+arvNi8Ye2dWO/KphIXhiwWn+O/I/V36mt1LDeWwNav1elXYusYs7CCJKWnsPhWss5dtoa7Ra2/FavtTmHBgcUviXrsHep6vHNdkmc4RdGlkKms37nHzZdxi8W0xaXuWFxnb7ImS8XJlKWRqSSqH+jZwoFF5OsSGH/07MX6Wp27px9bN5bIJg5ZyJkEMhUsYmUjLyGu2GmkssNb4UWSslTklqVWRToyfLE4bRSXutChE0+vJNeojyg4BruE2GbWXo6nxIFFCRquoUdjm3pbK9SZKiX7RJcUr6QXh90YxFiUoLGnat8H1Tr30aixPIq5uKQUZX+37RADGYsSNDJOa9TeijD6KEuPT/a3fWz/wg8gyNFxs7NL4OSgEaBVKDk5v0QDx9cEDlg8REw1FjDOH7exKZkWNNLYIrpkA8d3BA5YMmoMbDSEiElWrFhhCBjv/flHKatuFnxC0HgX+GV/ep8aBywXNw5tOjkaIiZJWeXk9JubBRk/X/lVRQhB410pjmZ9+j6BAxYzsOnartSVX618q8LOzm4sYHjKZDKCxjsivLT8V3KGOyzE1/XjF+oy2QyjAWO5vYODA5XQdyVwJB14n8ABS3FJSPmZNjfKYToCBoEDmJNH+xW1D9NKhMCxlsABS3EObar2DmNavfu8Stf+lC3nsNSCY6hXpyAtESFwNO/8NYEDFiqN5p1odWfBIYIw9+STrox4WKY0uuFphYqTJ0IEDu/aj/MY8bBMphJ7Ra3knKsIbL1rn3AfByxUGr1YSWlUDDk7Kr9x3cKYhyUWHPp6SqOCyG2ofNJD4IAlFhx7O6u91zCnxAgcZalXQ4MZ9LDEgoNerDD8tac/20vgAL1YSAocqu7PWHGAXiwksfesuHac5xFALxbSAofdquOsOEAvFlI4yEKcWHGAXiwkBo51L0ucGfYwuzRaTGlUIFEKzc2jEYx7mFsaTThYQ2lUqMDxz93bGfcwN1O5d1vtQ2lUnMCxWnduN6/Vw/zS6CVKoyJRdHyx+5cMfJhbGr1FaVSo4qgy+nZhDAMf5i04Ips4piIWn/yv+zwY+TC3F9vBgkMovMgE8xccnIsVjlfzrsNcOgrzFhxDvSw4BBOWmcHdgTBzwXGVBYdochvarnKTD8yrcDx8xYJDMMu13e9xIQfM4Jt3IoPd5qLxV3VfC+WUG0zHRRwiMpyrX0HggBmZSjsXcYjHQRbysoRTbjCnF1vrbctMEkxUouaLu+w5h8nq9L06GaVR4VYcPtG349hzDpMrHJF3WtdTGhVPUXb5fbaOwuQKR2G9xjONeSQcr+ZdvFcPUwX3FCevZ/OXgGy9ay/n8XosTDMwvC+EXqyI0srYOgqTFxzxJw5k+TCLBLRc281bbjBRzHBLhTaXWSQge1UFW0dhmgjXEy+yihyYRSIGDsOTTAQOmFbhaPmDipaKmBs5ZCFOvyNwwBQbD/8xq4g5JGjgsPvJjzczB2BCprLh89NlLDiEXXH890/OTAJI53HvQXQix9sErXEoNCO8rAIT8JiK0JTqkb8GMgsgfcERd72D423CCgvIuOHKLIDkBUfk6IKD3ebCStMOPmcjB0xacHDVqMDVUYXmzFGKHJBouw0LDrEDhzL6gZ4bOSBNkPzsbRYcQgvPKt/GjRyQmKgMn9nfQEtF7Opo8gmqo5BWGd17tTXJjwWHyHJ2VH7jyo0ckCJQ//CVjHs4BG+rpFZxsB5SOJ5/8kkmiYrY/D1rnEqcmQyQUOEYevyKvV+Ci1JoztGPhZQFR09xcnM4U0f4fuz1QvqxMF5M4eN1nlQ4RFeU/e39OmYDjBXcU7yz2YuJI3w/1j35JP1YGL/gMFxtzj0cwssta+sMDWI+wDibe4rXcrU5lvmr7FbRVoGx6vS3WHCAtgokcY7sal1PSwXLHJTq63EezAgYxUNfr2PTKJaNHXP7h5wZAWNst7lYnUlLBaNyGrZ2necZSBghSH72gw4FFQ6MVUcHnWyojsKoVizH6UF1FNK4hHYll3KcHlRHIUWgvlfDZnNQHYUUEaGdre4kKvi+Orpj6x3u8sFCfE/11etk/kwYjLNXDT7nyXos5MOEz9u42RxvixyKdWcSqI5ifsHxh8vzEx2YL3hTHY2+zhMJWIBHYUuFNofpgje8Ssu3UR3FvJwj7ySXFrHgwJTqaGcoFxZjPnVx9TpasZjM39PuIFvAMB8Xm6ZKDqlgiiilukDPFjDM04rtP1uQzpuPmFbkWL/rpBuzA3Ma2HTw0g5bZgqmSCtrq+rhgCzmTFR6bhzIVrL3C9OKHKoaJxu2gGHOVqz+1jptLhMF04ocCs253VRHMdeCo6Sp1p09o5hBqR65x+MqmF3whcZH0QpasZghLCDjBo+rYHYxhfsGyzgVi1mqo9r9z0MpcmDWROVYZ2tzEa1YzORAkQNzCJLfv5LOxeaYvciRPxIXyCTBLB2V4b90N7CFA3MVOYrj2cmB2RKVjCTuGcXslqvsDnInB2ZNVDpIVDB3Q7aAXAUkKpBmjfvOG3lcPIopXkeE3iFRwfwNWacNEUwVTObb30eigvlEJaZfL+T+QEwRc/dp2xG2fmEeRVncH4ipIiK7XnAoFvPi/kBMT1QMD6l4cigW8/H3tHt5lCIH3hpISNnqTaKC+a1OH/nFALMFbxOV4vJ8JfeaY6Eix38a+5kumBAkP3tboyJRwQJyGy49tyFXwQSP4TP7SVSwIHtF+gPuOseE7TadrUl+UcwLLCQsoJWDbhjnHN/4iMP0MAYH3fCmwNHf/riGW79gFA664U2B41lqphdnVGAMDrphnMvxrtZSOrEwTpp2cBUH3WC4hOMhZ9tgLA66YSJRaeESDhgvvPTADQ660YnltkBIkmu4lGM7M0fwTmxeYwGdWEjKVaIf0FcRvhMb+xGdWEhiyx4wChzDT9vcw0lUIAF7wOjEHuvKyFISNyCJUl0QS64icoHjAgUOSBeW2VrcE8T8ETZuyGM/4oFpmJKrvOQRWXHzFHn749MBPDANqRx88v/Wd4gZJGxDpSXV3Y9EBdJzlSOVFyNZcogpcLilLYCdXzCBvUxzq/C3zCEhExWbztZSGiowiV/W2r/LOSIrIMe8xkfRCuIGTDK27ZxcRcQCR/vva8py/s/eufc0maZhPAJCSac0tU23B6Y1hGNoi+VUClQU0k1JKAUJYluKB0Dq2nLIBCyFEoc1sAFssEQgwCjTCS4K2XEmEuJOVRIc2Y2m+8cmTCYxY0zW7OFLuG1Rx924swI9vIfr9xXe97lyXfd9P/eDEwD2RH5pgcnjwDmiHQ7ziwYBGipgz+VRSd+QshYHiWYsq619mBgFeycjWbyJrRx041Tw9aVP0YgFeydPX7ZSgulRWpHCd+H1JbDf8mjvs5prOEz04XUtc/FWrzEd/z7YT3lU2rT2FR6DpBG1TM/EaCau0oP9UddacbsFS4vp04hl+iYqjktR4AD7I7G0wFuMxyBpg9C/NXlcCr8B9kt6tXtdzsCJogds57wGk+YgHB1Z0bEnflxYoUlDpdE1htU9ICyknS2zlOTgUNFBN34oeozVPSA8VHETbH4MgdGioVL0d6zuAWEiqVkfsBwYAqM8jB4PVveAcFqOXNv9qzhYVPcbPb6gbsBvgHDRbFj7C9ZyUH2A40rnxOQIGrEgfNTL7N39WMtB+QGO8yNoxIIwksjh/XiyB5aDyiyrrRpDaQZ+dhBG4gYrDqlx1Y3CnFJaunisKvzqIJxkcHj//GkW78hSliOhm/R1+NNBmKscrQtbNWisUBU2f+pOrxGDXyD8VQ5D28osZjkoWt+Qu+6sSlJRGAURaKysPoPloKhuVFpMCdVpSfjLQfiRGrowy0HRuujKmngwFboBIlPlsHf3X3uNc0Y53eC7HollCuQUEJkqh7TpXy4mGiuUyylK1ybqoiBy1LXa/4EqB9UQVlpMq9W4EAsi2VjpWuFjFRiVyBb2z6+Jjc24EAsi2VjJHejE9lEqjW8sma1/06K+ASJLuqBv7gDuulGGFGbRCx2Pi/oGiCzxLK33Ie66UUc3PBOTZ1l1+LFBhFEYR7drlnHkKKMbFQIOyhsg4uQH66PYW0wh3cC+LxANqmQJNv8rnDroBgC7ILi3eF6JByGpUBe1QTdA9CwHV3xvqge3ZMmuGz9Mjd+AboAo1kc/s3f7McxB8vmN2e/uQjdANMmQ6jXzTgxzkJhsodO1aYdugOiGlWSV9yQTYYW8doPpnzetZkI3QHSJG1yYMCOskLgsuqXTtuJ6Cogyic0jupnLCCvkbcNO6pNxPQVEnXiWduMhwgp5xzcypbAbIBadlUBYQWeFrG1YjG+AWIWVtHL3zAWMgaENC8CuwkqyasPTg4OINiwAu6FO0vCyH09CkiumLKENC2JMUinvx+dfIKyQiCONHrRhQcwthyx3c4oJ5SALh5eVU4/RhgUxtxypErvN58CJJAeMnhrLo1W0YUHslSNtpO+2GtvASMGpWd+DM2Ijyhsg9mSUNrVZlKdwKolPIKbYGgyidOgGIAD1XPEjV2MKziXByRGqLffsgtJ6/LKAEKQbVx8XM2txNIkdU5jmP7YdM+KtNkAUEvMyb9g8uLRC6G5KoXzK5uZx0U0BRCqQChq2anBphcDdlCv31032crydAojlOTh6N9aBERf2rG/r9LQxDV1YQCzik6dNrlkUSAlJdqHTZWvQixRJ+FEBwVC09m5+x4RyENJumGfGVgWcKvylgHhhpVlgH/cwkVYIZzdeOU9O6LSteaiKAkKGlTRBxUQRWisE48hSzbp3YYSFbgogqudIy5zcxj4wYjVhl5WLW6enB5sz8H8CwiqHVK+b+zOWcxDIblxRW76tMIhgNwCxWyvavz534r4bMXh9uFC5eLRNLEFVFBC+tZJwz1IJ5SBIdeP+/EBDEzcdTVhA9LCSNyheW8FNWSI0U4Tyxe0zKgkHV9oACZRDIRObXL/GQrBYc4rpX/cGqxuwG4AcacXYuznFxzhHTEkRHpga10wbUd0ApPEczZmrd1AhjW1KueAbGrOXJyvQhAWkIam5OsFkUTsO4wTHBjbTP3OzTzuIG22AXMqR2qpqs6qzoBwx6aUInQ+faVQSjIoC8lVIuQVdVrXwBI5x1CdFr5aY572jZ/H6ASAjcdyCMmtNTw5OctQnRTtsGhX2bgCyKoeId/qpeakWZzmKMLKci0e7EsrRgwWkpU7U1PfCh/0c0SPna75vZqCiSZYHuwHIS1WpfnJikY8h0uhQW8j3W564pz/j1MNuADITzzlecculvIpDHXFeH17mmy22slwBiqKA9GRIM3vvrVQK0ZaNeE106b7lyelcPTcPE1+A/CTmGY+t/f5+D0qkEZ4vdy5unTk2wpViwBxQgvx0mfbMg85Z3HmLpGwoO+e8o3puKmQDUIWkOpHhom1KiZsrEZSNoYGLWlxnA9SivvS4/Z5F7YDpiJxsTEtYinz8aoBaJdI0o7jtducs+rKRk410tFIA9eKKgtt00eaSF+LqCmQDgF3FlVXTek0P4gpkA4BdxJXmwenT3VNOISbQwzO3AdkAtCBRITLcMA35Lgjx0Nu+YTucxUMDfZANQAOqpEZt380ZPx6X3R/ZV39VuRiQDVU1ZAPQo0bKkqg0zx4ir+zHbBSW1Dz/xHQ+IBu4lAJok1eSy0e9c51KIWbQ95hRlOaVZ2v2AuwFBLQiPm1wum9g3cxfxm6wvWQUz9BmV4KhtTQOsgHoZTrikjNVGltHTcky7szuqv36KpBRXpouivVcThWmRAH9TEe6qDyha+K3NT2okn4sJ64xnW8ySnJeFfb0AHpKRx7X0P6n7YcHUCX9GA6nvGpUf2X9tiyYUfDCEqAvSfVpMsOod6hYLsQs6f+dEG1sMT/vXmtQnUVGAXQnv55j1J4fGCp2OhBYfiGisIXyzuEHA129hkFWKjIKABmKTyXTfQNznpalaxgm/WBEYWeVVBYN3dQtaM/KpNhADECIxHRW9fR57+3fqRvRnP1QRFEX/WHbe1El4Jbm1SOjAPBOOhQsSUHFWvdP/i8cqJO+B4PtkPuGtzZ07TwJS5EBswHAf0lHaWtTb5ltvvOCg43Bjjdegy/vD0QUdzuvmsvBhCgAH5KOOqlMn+semCuqbER7NlQO9Q1bbWPBiMJRxCOiAPA/qJeKBKrzpm5Lp9zBZtA6oWSVqANeQ7MgDkYUPOQIwC8Sn86S8HqDtqNfzqen7zjBzgomFEt30GvIWIgoAHxUsUPKDdiOMZt12Ec/3xGyGsUdgYTi7g16DUxsAPCR5McrArZDvKC5OVR87gI/i32CZlbDpBsVoxwKwB5sB4clC5Y7blmHi9QlNNCOnarG8I7VyAwmFJRDAdg9SVUh3zHq3tj6spja2sFgO0JWY3vDvWM14pBQANif78jktetM3ZaQdjAoKxod71sNfHkA9us74jjcal6vO6AdRefkfEpVS98TDR2sBgDhJV4R0g6N6e7LlWCXlgrikZOyUwl9KxqwGgBESjvEds2YzdoRFI8sdkoOmY3G9cvq/xQNWA0AIqQdwYKHeFQXEg/15esktB47RkPc9vGrAAAgAElEQVTtGb50dByiAUCUCh4/i8f4IZJZj5BmvDEaG+7R7yEaAMRAPHLfWI/+lutB9agl7g6g7NqfNePQW6MhgmgAEAPxEIWsxzemu5+E1OMyAeUjm8HYkYyW/qKOnXCS+7YOmgjRACAG4pEY/856BNTj0INLHUXqgzvywWBkE8RkHAxJxoNDd026z7+H0QCAYNYjt/1z3dh4d0g+Lh+InX68MxkHA8Hk0tOjIcloz32rGTAaABDJeiTvyMdvQvJx9On7+lHLiLiCBOSCwXhjMg60nAuajH+zc+8/Te93HMctvVFOC70QFcplMxTFctEy7CBaOBISzA4ILkcPhHSzUBR0DF084BmSsjMh0cMJepAZ7Y6Lyc6OKEZdYnLwHD1e8MSQLEtgS4wnix6zM87+g/ML2/f7LZSLRU+1FFqfj1+syeH46ev76Yv35+sXW4WDSZd+xFcZGjoDWIZUc+pjRD/THy5nk2xWg4SuQ6SymKkLmbLJ1xja9f21V7uapxpjqjL4MVdg2dfHTH9cre1fr3XETTWIUjm3Q6ZkvfifOP3RjqysLP8X+MtCppRdfyDWxWicwzgkNYZbMWfIoDKASKmPuf2hcI/7GmRIa5zqkAc/vi4TW0Tiadq4KunT3t7eEycSBCfmvehNan/j7Y05p5pyxKYQvkwpa3pwWCoLsS3ufCvWhX7crVAwZABR1B/+BlFMd8i36+9ILSL6ZnT40cGCo28JPnMJjs57cXTTzYO/e/SXtrbh0W/EqtBqh+4Mibc89eN6oS38daHRMGQAUdQfsxpkVocILaIXjeu9fU9vDw7eu3dvsF8w78Xju7e++/W7jX3FPeJ/KlXFnLLw14WaxgCitEHmdIhmukpq3txVNiCwm812u33uC/tA4vbdaTX12dmm5JmvmSkL6gJ4vTpk+oMvr0oxFElSRfNeFBnSU3KrqkvllllfRlkAWLFCesbCJpn3YgWPXwAAAAAAAAAAAAAAAAAAAAAAAAAAAAAAAAAAAAAAAAAAAAAAAAAAAAAAAAAAAAAAAAAAAAAAAAAAAAAAAAAAAAAAAAAAAAAAAAAAAAAAAAAAAAAAAAAAACxbKrVERRLhC5u0EeEbOdeg00h0hlx28yKHXTUdtpi2hUAQqTs5Q5eWaLa6x/VuqzkxTZdBdSwieXrHLrNVMaIfl9LWUNSISOoY3TZ741i/0REX52g9fmyfPU3HZl60ko7R7L708PGQlLaxf+zjgY48wkYE7uS8+rJ9vz1zw+WUCTyFBZ3n9g101MlJZlHSXlMzsOX4EZdMKabtdP39zNih1ek0ByJu3kjpsD58simnfV18ZWxsZfy69pzPO897M9ewmReBxfCm+/zZv50+IYYtpX39yN2+bgM3OhBhqrJLxr6+nhQ/6RefdH3n/eLMNWrCCTW5obvvg53vJWXNpJ2wquA/fZsNDHiIrG+BusSHF5tOTM7xztsn7/dkpjBzhDrsdKE3Tp5OmBN27IFNH/R1pzNzIJIOKnnd73Ye7p2cJ/7PBZ8oOmLIJ7Qy0nrunzwQOy/s2AMF971pGcSDyFGd7b7fkjT5jPg/HrldpuO7YEiVmszHbp6OfSbsytM3j5lNpQSESKEybG94f+WzW1k4ejs7G9NySSiUUrq3nM3ZECjsnLNbuvMICBEzcNRfmnirdzKQ3xecz0/l/mgI2VIHrrWsDRj22pZrdh1hI1LUVfz361U7Au7lhEKHt57xOZQnlWzvBeeGgGFvkO0t7qgmIkQGddHAtaP/DriVJ3f89HL5as4qIT2pPH1/ZeCwJw/8rKEihYgQIcOzrmSiMDbwVv5f+5++255ORqFraUPiuUD3oSU/abmVX8RZBRGylzVWozJ+gb386dHBMvZyCFtaYz5emLBA2O9snTDrbISECCmO7x3KyoX2cuFECXs5pC2tXbCl47dqrRpaGpGyl/Vxslj2cpjCVmgXbOlKJWEjOoqDvRzy4jAqFwo7VmlUEDaioThilVr2ckjDbn5ucTQTNigOMHGA4gDFAVAcHFUAiiPyJw4HYYPiQNBHFSYOUBwI+qhC2KA4EGjicFAcoDgQ0omDowqiozhkQxRHGO9xEDaipDjusJcpDoCJg6MKwD2OaJo4eI4DFAeCP6owcYDiQNBHFcIGxYFAEwfPcYDiQGgnDo4qoDgQ9D0OwgbFAYoDFAc4qgAUx/KbOHiOA1FSHDw5GtajChMHoqQ4+FmVcB5VCBtMHAg0cfAcB7jHgdBOHBxVQHEg6HschA2KAxQHKA5wVAEojuU3cfAcBygOBH9UYeIAxYGgjyqEDYoDgSYOnuMAxYHQThwcVRAdxcGTo2G9x0HYiJLi4GdVKA6AiYOjCsA9jqiaOHiOAxQHgj+qMHGA4kDQRxXCBsWBQBMHz3GA4kBoJw6OKqA4EPQ9DsIGxQGKAxQHOKoAFMfymzh4jgNRUhw8ORrWowoTB6KkOPhZlXAeVQgbTBwINHHwHAeWFZVapFJZLHK53GIRf7tc73E8u1SbKmJSVb1acSzJzVHfu1CrFvH/7acK1zV59aWqbbYVr3VRq1XyXINOI0hONgmys00m4Tc6Q0pVqeVF/RHW4lAttNRUQ161XGVTR0KquXLVy348luKvYy1T70Jauiqkn19/QrP48lms/rD5/0Txz3mZfTdnrampRWvycqstatvrVxqlQiDJ2ZmJZqtCoRhxu71eb09Pl1ehsJoTu2uyTZqilCqLbRkUh7RSzTNL9QpLVZSYE3f/xpSsE9e6DDK1PTfVzOxkcduWqiOhONQxujTxXYzo3cLS03QZqtBdy5mLKWj2/TKdjy49o1qlDn0HmrYlmkf04743U/UD3sxUZfiX6tb7uK3WErN5IH9XxbZ6k66oTqi712vQEAMZ6SqvvTKk1Rodo8PDw21tbcMXjNqhK7eeNhZ7S/J31yQbUkpVS1kc0kaTLl1zoKVqJ+4ONjR6Fb61CrPHEqYqr84zpGqek2pteVez9PF4ifII+1GlNL2m7OpY/5DREedoPX5snz1N98pTx/Sus1rdXVdr+9cLEQkhGY3iL0Pr+2uvdum/L7HvWl2vMQjlEcIRJ1foQHf5l/u/iotzGPvH+so66iwvXqpUGSN6/8WM83EYtRNX+u8O/qOhvPhQSdn2NFNRSnX0H1xs/kh6yo8dd7TtKTjsVCqVMk9OTpMox6N0ujYdfNR2oXWw4efWxDfrk4vqquRLUhzTG01caesXgZbqcX7WsvPRXuOEsFZFfkW9rq5qaepfVVWnq6/It1u9C6Z6uGBP2xfCZ7C8Z6o85LZgiiOsz3Goc5MrPq49c8PlVMpkMk9hQee5fQMddfJXu5jiN/1fiR9Do3gxXc4m5Ywmp0vIZ9TR+njsr10l+ZvrdSmlIToGyOvqyxrP//PyyUKP8GacrhtPbl/anFr9nG9WMdJSx7uEa/nVqP9i+nmch12uTTf/dblT+3jwYeOhsooOXV1pVB9aVLnpvkg+/HL/3j0FhZ5TK9cmxFfGirIkwov4hKRVG095trbs/ENr7S/7FANiLtW28BaHbWqjCaUhrVQZcKmVGxKS3tjY5CkU1zrYUGyvqNEYYsLcHWpLbnpyzXZ739Nbj1ufk+ralac8ysKCPXv3S+WxzZT+w7+Hh/U5DnW1Ic3+i9aP3mtfJ76Lyvh17Tmfd573Zq5RvdLFdAul8eSi+DGcnZBPpS8f4XP90cW9nwz+n7ur/2kqzcKLMC1Nh94pJbSlUDqEShlaaKFQCkKRBqOZYikNtkjLIiCU8NkQHL7aqIO4ESG21UpEPgYDwkDUaUSjoqIyErMETNxoTExkx5mJ6/66P+wvW/e9F9FRW7ht7+0uvH8A97nn4znPOe+5paze3s3PiJVj0H8Sqdtb9ptTpenIE8HLGNtNdYfCaIluKgBSrFp2P1kJ/e7TuHuPVai1iJnkIkFA2zHbABJ4B/jR/w/NMk60EQskW8tPsEmOWqUC2CDxbmKREx8MicmCtobvzU2OSjViF4L/iIOLEBzwXg9IxDYE6V6e0y1WihZglZZcMMw3qllKNkkn9590BO1zBFuTc6py3LCc1lZas55VeUh6CNoQ8uhr8WBy4M89DkIsX6PuuK4wCj88gsK8tm++nhET6FW1Qlijb27hh9RyxJfBwa6dyQsOFlqY4TXlDVN/ny87n7eTn5HkqysJOvZ5h6m9FSp8/xiof3byjZ22zWWH1qlhgT6qSZ9WXnpm/bgDeCnaCWN4bsm3Bkdmi7IiI5G7VWlDMvTk/qpJWqFg54YnHmgPQemxfYaOzBYNsAvBP8RBSCQhBPcaQBWgQwpjFdMFSxfM48+rWAdoOj91nUj7HPTT8xXz8rF2I9M9Z/zRNlArTB76ptXJQSARFXH4bY9DlbE9ofJ2qkhc+NFDoKK0K0MMzzUHF3bmwd1zC5eQoo/Gl8FARn4x+/3tjlfH87p9dWVs8bTjTjj0cay0tpkrU0hyFyPU/OnnVwzVaYg+iUcTd85CodgYUDK1OCML66TKtyRt2Gsd5x6X70JtklUjCyfG2hG7pHxcIHEjjsCYTjtCcG0oA+3DU3vJonLbuQeZQfn+oY7AmGIA9cqArVxEnqB4ghSKS0cmBxJGBJrrQb8NR7mR/LCq+Wppl/DTp1Ce3XrQUlHg4WxbR9purx19usoahegNRBHTcxuqJx2ZQUp+jA/zAzlNcvXF4Gcvw5QaspTUjwQCAb5GOvhq3ISookJP4s5J+S1dse/2qEwZEbu1xqSwUey1HeZZAVPrmUne2+Uvk6NVdlAgieiIw+vNUSA3dtQ/+dfjco+9h5y9vV2CEv1pON6iVbjLjXdQB42WvR4jLYSYgtmLw1kHw9hR27gbEodfrmOBgGIENU7ODvZyXERBv+l5GNWD54AKXpHP6hs2p+ame+5MjpBJL23Qr4AmALjS2/2XmPyy6+3Q5389TtE0VFzwR6wgQ6pGs6uP0S3Bnoedk2ehl+57WiZp1m2hy1lYT8O00SBiUpzeHZ5lrNRq7qjKY2eszYCIpL/9gvm3KjBUSd+Vx4/E3hDcWj8+qJhaAdRB03FxJmNJX8+tr1u18V4jrWm49HJUbS+mbnAb5B/iAFovr+/hlNQIuXyOtq0piIZ+yqHKKA6rn3l4HVQryDtncoStg0tTi42AOqjeCUg57eeTCrGrgCab7qVErcUHd1sUO6+q41yqtH+C523cQcYbA3frGdStMuggglwERvGFNlbt0tqeah5Vg0ZuNciJEV/9chhbxQFK+B5J7fB1xTOtL0idQnH40lRdZgIjJBEv/kcqVO3w2SWyT1ApzHTpiHn/kKZi/czwR6uCCKh75tnwXncaKb26b08iWhKKpWlk90KXl0RxvoQd73L6jerFmWklP9KbN4zs/vPRcJe8DkmzZRXvNKmKWmwHtJEGGI7jA9ZCschWp+6mBm4J2iigNgOjmIFRfKINJB9bA0Ym/3FcU4E0AYSIg389jOWMg6iiNksODZ+drWHyfIY6UaSYetiX1xmDixfhCmVXz13EAGohZCy1hc7UK/lJBK8VBxZ7HMD69qw6U0Cce6UelzoXRkVpoBBGQmX2nVJjr9BHA/F6ixTLr98ksL1ISC5JMj/7m+u/S16uzNchFJdIUw7tN6e2Y5Ah/daTp7qjt4DmCNTxNbJRTIyC0HSX9ELom2klLTbwT0TaVzcF8dgRB3wLCKDO1sRhApU3ET57dvT8DhIOax2rFcqcKsDGqtox6XLomwRGhsrrVsVnxRGYRFPKTgysL6Ag6cJBVL2KnFqcVzU+JR2DMHFlL7nthUOWT/L4urOgWW0QuPGRuMRhj0oG5SqDnZMZagtoFWIANdhoXTzPjtz0cmNbxIGWmdsj2BgFORZjm+l0WQ47I1BOO3KzBjviUGUwEmayRzBiOARD3LV9i1l2zEUHIRazCrXWy1vIbVMPqjS0WIKXrYqvikNFZeeU3be1ry+gCtN/2I2iVyEiBjrXMDjBwchAhVrRyMs+SbOn151J+b9eMLqj69ynP0dwk0G5qnLoFdhQHPBF/50TLJpqc/NGciI/JavuhbQLcmJ3OBb6kt6h1tBiKo5jRxzERJpG7fIW0KdSTl4amAOiA9NJByGpmNWIVYV6d95ytINpk5U5bHeZge8eB8h0jdqhv2HcIFDeMtP2b9yrcGOAgZpsAUwsw05oXLo+J1PSIj2qAtSwubRWd1Y7fPMIP5HKRpZWMKM4p1Ckz9yh29S8wY1pzpkxlBRZOE5MD0Usst6uZDG6Zd+dwYg44FirdHML6JPIZR6+c3J3XkUSdswRSGW0XMWuQn2wqlGqd8iUEa47K1yHo7DcaMy2frry5YI4LOUrkhDCRtKxu/4uMJAWa1cKrAuZLDbVg2qeHJX34zF3o9540UX1Hr5SPQzKFQVDoMySYRZpM89HEQdO5TKFTsyPsEuqvzvU0njpDAcT4oChXtVLjRD2UCHy0tkTLQzMJt2qqB2ycZPgMgdzpJwJ0cjTV5KKJLl/r2O5SXyNbE6vQCP2NiYO0MdpautsIhwMJBxT6IfV6/RzLohDcrrcXVBxii5lsiRZC1aMyxXlsEFdsXl7lTUH9jrxOCDIbV8OP7XRnRgQxxrUCVyg8pjtpnl4sEbAxqphhxatu7S4QKWMKQbuAZKT+5E44Nkgq/KltUaMJnuYDXfXb1XgPq5ysoGOQ7UC/dzlMyP3G1mdOrTvmhySs1Lu1le77sz/e86wNEbBGKfx28YdSZt2LBrZiZsDV+mfrkj9z7VeDIgDd6hQkXUBtCs630VHIJIWJUYKPkDfFjIDTONqZUiB31oVbuS72SA669OXX3Wvd2XAjd4O+jhpK16+FD6TDlxt2YP2i5nkENbpcrdYuqQv/mmSxvGwBikuGU7J2KSb5wQdG1cHwoNHy7Mu93IGPXEQ8YdKGVsa2D/t9UfhH6yKc1rAJDeYlp3l4pNvfPY4VjfMkdngWzTo4gUX1cXy9eY/O0Efh5N0XBUdYoHpAertTKA4Tj8Sul+6aK/ZZcEhM6Q9LNLm/HUOQjSj/keTAD8HrvnRPXGg3RwFvDGNO1S4XQHh5iNzEKJ3Hsc1Ld6RnKHMTivwxx7H2oY56qssYW72enscqqgDp06OhGtxNZA2/FaPDOV2JpGU8Psj9/KQA0EcPFz4xZcJm/NH5wFvHH9gw9mBG1xno/xWhRDDqPcHVKg/rWfIN+aAyynuaQGqOlN69teUCDnuexzcgrUNc9TZwywZtocQ3d6oR2gOLcySKTgbiAJvZx6IUqEijqDfH+31d+zv3az/xRAk45FxG13o/J8SByrFQYjZXt9zK9wPUClk27jMF+bYFgLKqRX3tAB1UCw17M6PJuK8xwFvv26wYf4Zp4UfLXM/9kvk55VNlozhn6fBRuvCIQ2pAJXi+ObrYH/HPuXw602pOABvyB5a6RTnf9m7+p8msyxsC75tU2in1iAFLR1SoCxQQKhYsCISNpCU77BAgQUGUQgU6BCZDkrjzLiSQIdgO7RkQEAS8APMzBKRTED8QCFGUveHDcaMCTPJ7ia72b9h3fe2Rfnqe+99WyrNzPsHtCfnnvucj3vOeT4qcCChLhB10jzoFVF5r03LbiAHU3g4m3SnXnFfUWpjejlzT4ujjuZOzBG9f6qNz2NdlTjkwpT/WNX6aG8Y10TFy+qkXTd47Yg4PgJw8JW9oYGET+KGVzyj+8BBxhtfLZtee0lUHtdkpI0cfoGH3zSQ7vSdNyQt0i0+zgqM2MPnWNDyldYG6zDf9l1vnKvJDXfxPwXCrNm5syKJV44yWqduaE0SFuxP4IhS9CCOAv6OG7SAg8SN7mUviuoGchCC2uyGL0UyL0macMVwXizfM+CIiCfDjbuY3a9Fos6391OELgKOTE7SOasy2VtHWRSlNLTu3P23L4Cj6GQV+vKB33EDHzhY4cHaSa+KSiIHvWyF1Gr/eoXIe5LqtzstT6YqYBy09dA83nxGgs5mfRJTLnURkKWWVjcovaggSZSyobo01W8fAsf1s1jrjvbH5xcePNK8D3ADATiOx0cOL817txRDIsfkCP6qbjsaKyZk3hNUBtJk1p70cUQctQ+04Y0TykRxi+vVFlczPxGC2o6X6ijJ/7yJHOqXHbWQfo6PARzRg11PDof5WG2UiI/U9iqwcUPG3vLJvAEcrKPlF2cWj3hZVN5rc682EnMtpDOK43tRVN7B089DiL3o4wDhxrmHJrxwgw+mjLtdtu0TgmtkQKbDXg8oc8foinQV6/3XBIRXgGPbWVKJm2xrnr5c4GMBh7R8emkeDzfArv6BK4Co6sGnDx4wGAcZVwZQGQncAQ5mbOj9Lrx32M2ifvqAcZCOqDzuiaXpOqwMlCWITMctxWzRKuMgtqjRjV98tSXc9VAfh188CDem8MZBZcmdi6sqS3mYq5H/8Ixio2kC6z0l2sm/5ORxYzhoj/B+YmLBWJxBmXh6BDgcZ8n4cEMOMhzi7gqU1zutfbVhPvamUhiS8siM4cSLyMNrBMx7Dw8FBNx7+oen957eO3TaznkHNsRL9hA4CjlJs1OJ6E5c4iQy2hCVlDVgk6jozo432KXJwpl6Zklz8EoxO7UagC2qJOjn8+0FHu/jKKSzfYI/WOHYpMZy2fs70qzQsbEUNGBnxHx52s4bu6GePw9gHSVbZ2qeLmfuJXAUbZgdkNR5QwCL7Msvvt6V74HE2LdPsnxtqJ5Iza+pSkxAv4onlScuNEzauZD933+AZRewLp5Qlrix4QoCHIQgv9qgRJ7cTRCVAFGbe1yJehId5vidQ9m1GEv+mbH+d9FLMUVQraKJGvTNP4LlHi6OEnIh/vYJmajzT8Zsqt2tzDp/MszNwzS7AMDB/cnzTerR/BiAeZTswa4eC9UtdQ84NkQFZvdeUvDV//2TbsBLd2I7dpRx1dYnMXU+9qTCqgwufqhGnKTggatY1aZxMCCHcDZ9TkZqTVtVC/2tz9SdoyypuP+pGrEID5gZWmCiYsCcyGZMz0Euc/gFJr3pCuKhWtofvzzhEVGPfJO9DTjcfY4l5IGRoWnrmNsnEnS2ofHhaxTb4nEU5DC7m2vj2d0xWzVkV08M7lECJ5BLkRe4AxwfRN1xlg5x6x3CvseOIr6I4emtUV755O3a3hadBE0pjQsX2jR9F5206QRr00c4SeIv9gGeiRJ6C+CoZ1UKYs88MuuQ6mFgXfmrXx/BRNW0XVhoRLM32YTp2UVUr3A8vLbv+xdI7ZV8OxY/1ag8IGrRLqmKe8ABBto6nt1UY4Ubkh8SzW0qy2UKfhoMBZFml2j3APXgJm7VkF09IXb9jK993YJ4lKQTWOmneCWjDxybRd1xlkBcO6E9OEwHdiSA6MRkeDxcy5H7WoFDGHrfPMhGVIphlLyKOUIBc3dOX1YmqZjglPM9bVULDDp9T5QRRyEna3YKKadii4JsU6uzI0mR1KKCMxy9hQgdvJNdGksI2tpbabm2uUKPFNJvYHEOoqhUWmUnNnTXZXouVSGYnFptj6ElDqu6UTahrrqvzaXcEy8v1/YiKYjMN0mzu+RUEHkTd6rHeR3r+0atiCRAMq6pmeKVjC5w8DaL6or12k/uOMzxtZuKz158pri58rjJskd0HHv4RaSWnkMqcLD1QCkdKeRVpOYs9QN8yqSR/0yHc4iqxgEKHLfOIhQ4ZMk3/jL1i50HXAoRFcBcE2lvSDwnZZ1z1flIZQ47GnNRfpJrs46q/IGlydFEpdQq/2xbDAfjORbSxwEIa1Rt5s4oPtbtYZjbWkPbwzI9oSC+KE6BYnZO/QD+MD1C3YTPNS9NX5Z7FDhIH0DekKaUYNhZOrGj/q+a7/71HYhOxD4Xbhw4EC/uf6hEKHB8G7QwRJ5fTiAC0zFB6iXyv9mriwzsMikVcMjF6Wu2KJTLqK76pSYmPzYMgXTYz0FzOWdD6bdIVq+li6Uonea5NXNx0B98J4tiLK6q4Fj8QdSUvl6qSZGolvtZqcc91MeRCTjVxg02rJWuMtHAgkEzki+k5DLxQ3RXkts37N4KyeycR2kF8RF0Noh3pOuRxdVIGS3gKHutnrvUBGiSUYIHB3aEngm1+wzfY2IqjA2dMV2FxqEJeuXny33g/NCQ8bgfk3NqePx7MnKUeQo4IjiW8bEJ6KubTE86vLQzp4RhiFzlhJS8jyTKIUxuSSbGZlDILwrr6n9EqOFeP1lhHe8ms1vUMNVOtthjdQly7BtTaVtX9NHv42Axj0XGnDs9Fod1gnyubW60KasdslNciuau+BPqqZkOdLMDR2npG735kw6OSWWM7XM9bgGHTNRpnuxLEQeir0QG5RkOKIT44NYvQgCQHxoWlA223JmNyeDIMXhtQFWNhH/11TwPAcfRjD5rZ8I7aLhRYX2izRVWZqK/nIL7ODw+BF8/+46XWJWWD90/R6Qe/vfn0L0msqizr57hkk2SWrWoXAYdyRXLMVtxjXYfB1EZm9Q0M4XbYX5l0agiLzozApLJnUFwVzJRHJnzxATjmB0JHZGhNetjCC0nopZLKS7eZPGBA6ScGi02Ew9x3Ec56uXi4tNQ5Af7GpubSoVH8QIqO4F89Qpe76Rr4CiM9V9eiELA/WbyMoZhMneB+5i9piiBBuW31YdG2mELHY4GN92BNpvwJmy3Zv0zcOmtCTKU02qG1FfZu9VgrH2nwg/gRByuUpXC1GD/N79icqoBSgkkHqvK/DS4u8q7qp4DOY8U1+yE+ekzCBteeY1AW4QngAOYXa/KByuctAOOwCwy+ofYRp7upznNdEZqJg0S+ZBczGWSLoEDxEZTQWyo5Q71aK8FyvFFZXJy+ye7oOmKZMKsyToG9afPFDpY8lfyt7bqrLp4/OwWgFz1yi4gB159UraNjNN7jgUDbeeX3r7Q41U37B3mCLenIPbiqho2Ss87olhXWcoF+EwjmQLxGZSd8iJbr3b3+igmcDgbvzsAACAASURBVDjMbk/YhvdrwJHTYYBF/zzuwnoN5ZM85Rlirq92CRzydjI2gnhxHlexkk2XaB4wrWmGbFwYNlGkxhsdCvmtFwaorfZdwo35pZF8jpxOemsHueXF7dxFZUfGnl28zDzgNnCwClNzyJvXEoS1yRuEG2hc3SxB6eyrQQhC84PmJ4tp0EXb/0AqLO1YVZRALFvGNffsXh/FA448rsKY/RsKN8i7wkkZXRDBLqPJWJwbQve5yEmYgVxgcwUc9tgIkhUDUftzaeM+EV+XpVoxwYYn9IpLFsoFb4XAn/4AiTeCzGBZfybNg8sUXBvu2TrhzgPUKt07OltppCqAMgUMtEE99o5wA/H2yNvTHyohoHS78+1dNxRUeOxU/+QYrC/VXh+VugscbJ1bZueLiUr4qeo5iGvMA9uvMmgfoIOia7bBpot2Dzik4vMGBh8uamQYfdwn5JzafiNs7Cqh01AspqhyEGH5s29LZJAwfH5JK66kb2pEZXlo6x1TnP46L4/NzuPJ9HELhkfTwTv2OWD3cWyiTMGsDaKFG0g+QCJSVmn8xW6siCbjx+6Zrht8aH10VyeAAxxsncKYHhz22wk3yFTzshb2aAjQlNSKO2BKyIWHVesViMjhonOUCLRcUugRRP0/edf+01SWxyvFlkraWtsAbaGthgpsH7Q8LOALIWwgaW1LozwEQXkIU55jdBCFOK6PCQrxjRGxiJGBgXUdsiwhIjrjKGucMJOdHc1mzRjHrJns/gOzMxPce6vZhLb3e++hp2XGnp9J7+E8Pt/P9/N9HP+eQGGLtpw+NU1T6C1NvwdRDru25rkZ9qkET9244U/TFrVeK3GMXx6YWr6MGIcz0ztdTsKfZLPQgMOLcfz/yRQkupGGog2GFdDZgMQ2c121qSrWnwXiKAsaP+kwwsRGYOx0+qIcCMCRdKPp1OnjSk4I4QZXWfTvjugkWBed9vsykg8EWJ3Pd7SpmAGHz1qVeIXzcruBbgP9nypHdNzxfPooyBcEul4ndRYYt8w68T7swBO4cb6xoMzPZk82fozJ2dUw+/33Kza1nOxymhS+AjRoeRyLeDJl/k39PHNtkN4GqKRzdypSxX4mU7ofJXxWL1wM5WAOHKrWHbMOmrZA75zCIQ7/fDeIyIlH8aBpbpwlf4RZUatvxsHh0R22RPcG+j9VtcjiXDEnpU0AoKQcuWJNA0w4tj79+vzVtWv8bhKXG89TFMkfrFy5skYjl1BkHiHlcSziyRTiRxKWdTQgpKPoFbU0NiAtc6SC0fMnNIYxtiT83lf9hkVQDubAIZ3a5NwlUocSbrD0MT2j0YVwvOp5LRY0zeWTPWmZxFZ8axz0h63N/Hi/BccGsrOsG+vgJgMC3WXqwEryhvV7oiAaZ4j++tZVv6nRm2UlUw/dgy+isM8I4qi7h3lpJ2KFUXfUdOdnY8cZp6Oo+XkH14HALNT1NUv4dv+XJyW+ROM6Fx2BbgQYA0d3zseV1jh2SOEGh2862ATuYHdm3UZLFhY0tfNSq8uNxYsEDk5c6uDZNngD6yowbaCdJ6kuh+tMpOmDEpHvQKpaJv9iRxrIbZtOYsIN99K8LdemNLuMw7HuHuaoT6YIWjNHH/bkVZUxXvqwvbWd7ZCAEhHdcZfyNQVE5IhVNA6lgx0jfBsBpsBhMI5O5MnsIYUbbiteL6BZlVR+Lp6v2cTywQEGnTR8Aoe9avPITugqC/qJqfKwTdVU2rENOjbCzCdUbyjrC3omdVCSfdrUCkcQtTSmwEEWtDnGEZ9MUQ3rzo40h8cgZL9yRZLPBtpg93horARTLyyyq+kI/GqLNL1LokxZHHBEXDp3N1trCy3c4ColpaBskHhjYBzjquj3nvhy7l+LA4411ont0dABPnrWpdGG4Zpq/KEx2E4VZtzM9/10TopIMnhWCiV+6SZfWrOC5xMzc1W4NrKgDbmpaOvUNZejSItSimDXNq7KgcBJan7uiCnDBazqrKLKvvZi0Ai07PMyAsyAgySPjSV6bmgBh1oc3gLuoLuEHF8XxBSlpWKyvngxwKGWZcN6Y9rUrEMRj20DOWUxhJ2CZI6E9Hu+H+tjyx48gVZVdeP2XZMsiD4xozwObqxW4kTvYa4beFKZrchCYurJu5qfRaoggWOywoIxSGEXy78B0zl8vp/GDDiGzSsIjEsJLdwgPJWe8oxCeAetOMNMbN7FUvrWLb6AI4yk/wZIGu+rtIowAj/Z3GgUKsISZs769lX0MRtvQqs6bG6hr5ELHnAsW/UeP4XFVio0yAVthhvmya7NFnE8Egqy+fJxSAIiS4Eu4vI53+zIoX33wcKhhHWDXkaAEXAIdTdfWkMrEMtyV34PDkghGjYzaJLh3EGWraTx5JwUHTgI+l8K0f956bqDcsxTJcu+gdOm2nakJ0bvU3B2AYLzawOjqvxguirhMruNf/zEOGJBm2rYODBbadqLWoJGqlWQNEoCawnWZt+cZJI+nkETrBgBR8K067/iEBNGWaxcbc2mTOCoDE89OYF3B8kM955JowAZONiEUwVNtXjZ5VoF5s7ysQXwaZNOu3ylcugVzk6dALCn6ePZwT1rtHkcVTKFqefLASNaQdsNc/n4ZqssHhUDky3V1wG1Stg/2owbWAkTCZbUFWZc8xKsmACHQNe7f60+1HCDFbulYs82amq6Naq80qLE7L6xeSaaEL5P4NAXgE5VYuS50tQ4zIyRbMXzXVQhcGo6nT7ASiTpAgTn18PmTYw6DwaPcbxwpF50uHrnWtHa9bSfa1kvV6BXMHHiLoKeirRpSIMdWG1VY2ARvw9fhQlwEDwXLnZ8Nz0VUerdJmAx03Y8zBbn4v5qGG0el4/MUS6NpzJsbmg8hB357VVXZiFB1utZePdU+fKGA9TcqDjjyF+xajH+ahyJuskffyytm65H6w7YOtfnbrCD/p/kak+M7KQ+AAYCjmPwA+say/ry/ggUX4UBcBjaCZ4bFmq4QdD/fRD9T4oqr1jYuxIPXDEoVfOqVVHLNCeBqaouHWm24H/kmyOyVo8CBFd4oGHhs/Bv70Wdjvq8/Wnu1INgO8UgcMxHr7t8+dxOpI7SgjfNrhbTYIfFit9S8Ydoap7bRhhxHn4FyC7WDDUloPgqDICDtrvCuxpTcU72J0JWPBw/4XAXx9NQDm/GYStx9OqSAHuxqSYQU7Vrx1oAlSNCV3dC6/lZ/dr8PVHUDD/jyEtLGTfYwAG4KvPd7Zk5rcVIXkr9dGdXo4VnW9T9Jly5dW1QFqdTEQjVoGxDRZ8xAgiue7JHeuBwE474kMMNgr1NfEQdNUjctqfZuiYQHhJJOaRoGkfsrurrkYCHervLd0qFv0NknfgI+G7UnnwvaQyWOM6YT9Vog63Cw4xjXthtQG0q6tq/2B5rdK5cQqCMOFucff9YGgJ7pAcOaWgSDk5WnmsHdYbTmcyWfYE54vq1+/uMW1GAIyUr9c+AokpYqasBsVIsG5nnbkAROWjuReT26iJlyq8LOAiijkI3Ds+c6vFdvs9Y4qB25ZL6J3vWxgZkFcos60czEpmzR1rg2GrsC8WQCkstq5nNob4UrdcnrMrAfJgnHzqWhgIcHFn2LeA2SpvGTYFBfgJcu5raUEQOWOIQHK5zHAp62B92VZAG4x7mgNmAXLnuqYfZvMB4cu6I/hmAPX66EAVogWPYPC7nqUMPOOxVpz+m1g0iltc5SgJ0xGN3rR+F+up5AYe9anMntX+q2lbuMxMLDzvqKe9HMFM09yJt2nWRzw0+cAB5HPNI6gbTHuagxJFOLVJempmwijweacYzyFTgb2cuvaYOyJYuZI+0wBH5rHnXmtDDDVb8hsr3qfNwuue+MAXKf7Nr90HY7w0c+i0bj0ShlShhM1Oak7uFzM0UfC9U0XvWH09mBR848DAOVauZcVNRaoVLDsXHMp41S7T8tw1GsA5+nFbS/Oz3AHsckvM5CMBhyHnRWGUPPdzgilLHgSyO1o+aLWWB+raoaGKmFQE4lNZvZ9rmGdsKnKukLPrHOeDT6R6fhu8FAXFj2twlAI5wLMDRndNbbfLzBQAu78HscsrQ7+tLt3++Gi7P1mg04TgH8XvZ8vCrP9+mZhyCnZv+vuDQ0QGHtOnuwid6Q2Sk8OU/UB/xJGOvo8QWqG+HwYFgT+BIycr75NgwUmkjPna0t7YvSkVtpm55milNC/W98MKZ3xhwHGto3Bvrn6fFka18fJhaGT/66JdXr86ff/Xqd3jHmx/95RG1Ddh6+PFKGQLjUEWPboyJDT3cYHHA00QQNw0vYJEmtVgDpZ55AQc/+4fM4qXwVMip7vv8LwJqM/VHjYeM+94d6nsRdS1foV8K4MDjqnQf+I/f0Su29sMPLgD6VvdPq3cfePTo0Wq8g/jFA7tX/wSkASde+OBDLZs5cBhyVi0Fe1z6wdaeqKPeQTf9D5yKlyW5C6RyeAIHjHGB9FTIuMrF+9Rsx6tFOHgvInQjV8TqpQAOPIxD9bSjNI/vH0bD4jH5EaHBYCAfisE6tgqIXxWC6SqeSTk0wJE27QpJT4XYwU/Lo0DVL4BJ+MnHIWHWM3OUrb1SV58EbXggp2qt3k6px0QcvlOzgN+C90J4oCF7KRKGcAHHfHF7X77Fv5aHIklpesL8r3F4+pE0wBH5XfWGEMwaJXfwm9sJSMnUGIetpHbSqGJaq2IvOf1Pyr9OukBMNYDttOx7a3v7C5nyW/Be+CyK+w25KmTL+9nTa9f4F1SBMnKWcnjqVTBwqDL+5gzB+jb3Dp6njjP6LN/C6ic1vqDmEJ6MI3nDy6/+x965xzSV5XFcBPuwtKWUQHnVLqFYprTQAgIVoUIwmKGF2iCvgo/CCkpRdoOP4bGos5rIQBAEzOBj1BVGROM4ilF8s44xO1EzOmvMmnHUZKJm//HP/WO721s3WXvpOfe23NNb4J6/R+fYe87n/B7f3+/HA2uqQpVRCJ9xubglOEBAMh8LvxfuFOo+sjio0XHYFbz0mU28YnOVoTUCvwQHPl4FB4fjvcqdlyEOxxf87YGArreRFRV0Dnx+8DEOh3G0bCk4NtqFlHFafvSvYBbg7FvHrwr+d00zT2afxWEX8mY2Y5PNvUcRwyhfRly8Cg4OzqLQFrF8XoLD8bMY6XobHbfxEPg24sCh1Q2ObewmX9ZI8Q8lChsD18kINx761L51/KrBi4zAgAgu4TfrYhzYuzwzcjizsf4JDk5Azj3y4HC8V3o+e36C4+4Eh663UatLHYPlKlzBgXlV5bTZ/zHZtWvBjtKD3z61b53g4JA8mbMSHBg5sGFSXp6OfCzrlOin4FgcQh4caVVjqaJ5Co5zARza3kZR8c/gNsluwLErhTb7f6F0+4lMUGjW+LvPglzB4cF451noqjjJ0X/BluDl1JOF0u+qM2VzABzNNy8b5mOhCtHbuPgp2iOevKH2Fx5JcLD5kHAMesblW3t3qEBpFc7EXVdwQLt7BgfNfovDQY5nk1PjVu+svGTD8/Yv7XMAHOF7euZjST0xOELQHnF1Qs+eUrLg4Ooh4EDOOJM1F1xFjEsAYfkLsB03rbHZ7ASHXXC4vbKA65WZJyp78jhyDoBDpvnH79GVZMxicOTUIb6Nbb0/DcjIgkN5d8JIG+Pyrbn1QLd82lbrIOCYuDsXXBUsMui1EEwU9v7xzjkAjjVHR3vnY2ksETiQe+OB1t07VKRvIywcgxwcUM3JtK2GLAZv1TUe4tNvTXEO1GshmKjs/eRcsDgSVaO5DDho8MZNSZ7Y/0o6vSq5uOWViiJwKOeGxeG9EMxS/O7mXLA4Egd27KdFkzPfLY6Sig9DQBU5TnKObbWTPleFFRX0qpNDATiMD2gDhycxDmFkREQ30YyVj0Iwz70Vi6H2VLO/guP1Uw8sjmsh81L/RXeMQy15vgnYjYkzgbM49G9rBDSCY/MNSsCheHBO7/fgUEQ2NP3hVBGPqJ5EwOv7Ybfn5EjO3gprG08rODpfu+TnoODgdP6tjsuan+Cg1f5PNvypHVxz6hpF1GIFICm0ZVXkUXXXVFQERwU1n+n93VUp5z0caq19dz+dpyAmx8h+iacjYuJXrv/LKv8Eh2CRJ+DAmSfzy+KA2f+IfxZRGCQth1NVYdUiQOWoD3QcSbuvDZBPx4KvqKDmrZ+7KthA2K6eDEOZ+f5DwhCmIKJ/yiaN8awlhXp14flS/wSHcNeP/yLtqqB/Wv0XHDD7H/lt5Gc82XiQpI5bG5sBLuT1gXK04sMwUOw4TQAGcQCNnaFBfl2rgpkbB2zZ3HidoWf4CyEJcowFVXjWStBUYf4p3D+Vo5HpJ116VzHgcLug9j/6WpVYBzjARf2ulWML+INTYMogr1WxGJ6DvappknMluMgtsaH+iNh/q2OFS50DYdviWAvk/ILK9sMCoj+RcrT9UnRSiUfgsObuUPllrQon80qPy7BrBhyAq0tn5Ri8bg1fqy5KHVuWRvI/pv7WiVKfPE4jaRw5HUABUDS0o9eaTws4iHUcsm9VTR2YueGcfaC2jk9NPiMkh1Bz9nJBlMkzcIz6JzjSqhr1LvOHGXC4X7GwZxz5beTqwfaOPXzv9y7Yiiv7+Sa4sB3faJx6woIjLHjjCGurDB4ZGb6ncPVCWsBBaHEIviza9MlAWJYlwXahn0dIju680fXFOg+sKKgMl85Vrrqy3HUeCAMO94dJB3vGnbcR4e/CErcE15Au6k/OhlTECWpCkYYc4T2HcIR1uGCQrj/Na2uLk2kBB0GMQ9Z9tO/l1uiE/w+EDYyTHOtKJybHzqtnthtE5AUNgWLbK5XRD1Mq4e2XMlxtJwYcANe9+B14KJKgJhhpP76SCvPQALDitPNaiJhNNhRvxPcLpjypAutyiGsdiHlVVUAcpzXdSqWjMTYROFK+zNp03Fws/nQgLMtBjsY+QnLImq+/7F1JXs7hwHCwH7YOLM/sn2qpiF/AgINEYkyybg8wo466A7DFAGmOw+nMcUWByWoe0ijA9gnSraqlPdWlMrLGEVRSXZ7VqOfS0uUc6qocbEi/UauUilxjFQ5y5H7VRygESzx93RPxObz1G13mRmRD+19tUlyLEQYcgDBVW+8o8NFHPXNAVAB5mDkBOMG7XDwOFn2vwTojLETLOE/GI6zYGw7BcS4d0VG4xdE98KLVXJYUg4evkxzEQjAjr2/ElkC2IxjcJPsIY44vl1Gg2Km63nFgPAGvZWPAAfI2j9SraJpyJI8K2pYFjCGm4IVSbK7ybR4kzHAb5UCm2MFWCOPwRT0O42gU2PXHHvHL+n3x/gaOnd8cD5Lq3KRGWHEJvWSEYIcnfz0mIdsRjKjK7eAqVWeAL1fnrvSO41sK2uLYCxhwkLoRXOU2cAIA7VxFU4V5GDw7Vnh1KsMlMsvmZ0yB7dvyrPt1CLeatP9GXgo4FoQbASkXt0DuaFrTxVRaZsdCXBVZ5pUtkmS31561xFBISgjmQUeweMm6vRDNeffE2tHXi3257ncd2JIh5atZCxhwkAOHLmNq40HQ8G60k5zjimE1kpFNl3AmhChsrAn48q3JPFGIbqvxK99siiA/dNrhw3eBGZeSF9pCgwQMquNIbDgzDqrzDOSSEoJ50hHM1PZhVAV2f1b9+7a57mmID9e96DApP57l9ldjwOE2zhD2HjytBKmvIudGXywC9ji3807VGlyzlsmG2lM8yFZPItuqVlfQCmaWG72LKKxyGdAUl5WixLF3FgenM3QzF5TqISsEI98RLFBcdyMA+BcqNF8f2yfmc325+CI1C4BbBhzuVkz2m0fg+a0ofRW1dPuwBmjPKwaGzbh2jlj2Fqw3FGb9HZmvYrLCPBV7+NkVOIVt/Mp14H4BiENHXsU4OAEQHQxZIRj5jmBs6Kw7hao+12rSsn25WOBfjQEHIK3SARbxYY+jBM3jqNWlVvaBX3FBzbQZWfBgqqx0D6qtsi2G9XvBRVkc1Ssbbg6gKWk/RBqJNnTkHTigTZucQrB+wqQs+Y5gTuEh+OOHn6dHXMuAw4MgR5RyW54QEmlozUAj5c632l5B/sfdf54a1OG+CTyJF9l0HNVWxfqRojRIJfa08ZPYr1oDYdwmVIzz2lVZ5HBVwFfAKQRLP02uIxgZciQb3nwONnQjr9/+J5/FgMOfF1sXVglx3wWaji1SJLnDJcWXX0RAVMz9z4uXTDttEMGYXdAwhGirln3rqsFOlbvxk+zYwamig5CLgYpx3lscOdA2kQ5ymF9WESdleX0/kCJHSZu5QwNOUzWMIvqUDDioCzVIvoe445jJMYjijOcnjW8rAo6Cta8JH/5Oin+UnUEOhc+3GhgVPQK5M27zOaKyO/0QHNNxMYhclc3QK8ASbSis30WGHCNkRkPKo5QXdpXDyDroHyYHAw5w4C/3DKTgCJHJIReVXX50WGGHhjrl005bEMQBcGzVYXIg8ACSJT1XNGCnyq2CRL268ARkyCEdF4PIVSFoTB3ID3s+nPctITmeTR4iMRpSK0q9tCwSbj2qGXD4ta/C149cBSo5UL3jCyuOhWaBDY6PydVp6UFRwUWYUtnpAVAedMwX6y82QWSObjWr+UlHciB5GKfJofb5FciZSUf7EnHBu2pNOQlykBGCxWRvfRQhg8fWAhlw+PNaUnbnG8i9cJocVJ9xFr+gsv+0DGL+V69wI3WI2VD7OaStvqDhyop9Foohx7YYlldDDI41mefdqDK0scSM4wb6+ApsnoGrgllRSdG32kspEoKZkmzBMLJqEHxKBhzUBjmk24dVKdAoB+VnXL16S0cAJLsHSFia2nLrv4Cc3MiqRm/nIINPuFjZ+DANtlW3WvcYw/IXq2CMG+rJjmP5+AqEzmyGjrqCOiGYVldwCxKUR/IpGXBQG26I0jdCwpTYO15I8RnPF0e3psOKnAASKTY/A/qOJx5uv1NArYXL0hXXns1M9NBT+ZhtDoAx7uGPR9oWzi5wsJITbBcmecb/UCEEU0tWgBsV2O0K7FNyAxlw+PGyGC5Dx+NQfsZZouI31RrIrQLWyFg2bH0B26ow4OuefXEUfkq2RWK+AQvGODwVtzUyrNgMaOW4gnfz5KBPL8aMXZX/CcGW8YxUCMECxS0wAZHjU2I2mZYBh/+ukoreDo2R6IxTN+mO5biMOVdh7RiA0kqnZwyLzy2tGrFVUJgEUv/R1tXUDOnkL8wDKN1jspef5VFT2eETiyOHzLjPj0KwZqJe6WSEYFrRf9m7/p+0sixugX2UMeAiREEsEAOWroCARQp+oyVOxiwUKHERlKrVtraC1BgbR8Vkd61NRInKrBod0XRXqsXsdrs6jVG3aZxtM4lxm3R2Jk2arc1ss9n5I+i+V8eddir3PnzPZn/g/c7j5Z57Pudzzv2cc7nA2hoar4KkmjIFHGQ/CMO4eWEYvMfLLGzS9rjEtRQt7gddq8HXDnJFmn0z4yI3oCcvHld9G1jWcUi7QNzOESyHJ48CP3W/45+0N8MGM0ERFSP0jvwPWOYgpuPY2ysinmOobR42aJiVPuaFyTlsHY4+BQsUr8LLAo49BRz/v4/I+iwwD05avxnhiahkOaNuOTADKrGxFAkPcpRVoeks0LatUXianQaS6JHU4Gz2qFUH+lSEXeQGRlTZ/NiXSy7lB3SBq5nELxhH2AMjj2vbxVDk0AYhcg4qc3xWC1KUqdQkmnL348ENbSngSDZXaYq8PK8C7nFt9KawkJToKD2GOqMCKAcAKLKlOQXeVeCPF/SL1wfISQHoooHWRT1Q8wRokFEKL/V1A0GnOjwo4JA5RBBBwC5QThw40qTsxtbyVRwS0mKYnIMibL19hQU2ZesAadkcomQz91robUgKOEjx5SL3WBd4vFP4Xicp0RFhl17fADvjGwVoguSWzrY+ew6kHPGu9WCER0YKQM/LjwTXgety7tQfyxK1qyHM8Z5ioIOpZtCQyiCJjGuoqGMw2RKT5vCKo7tM4Zi14faZYeJyDoSpm23jfxBTon8mYQq5goKLX399sUDg7MU7HTUFHGDKgQZHBfB8XpUVICXhRESnHS9qu8CneSCtql1Oi4KbrVQfr0VvklA8QPLyfZvhdhWwCqh/8beEDfLKquvTahaYHbWUkYIcUoromLyKqxMU8eSGOjtykBoHDa8L2HMqV2JwCSm8+qvkhX5TLf4ApkTZBlOou+S+m1n+0UflmTvPlkoZSmkKOAg/aLr54AmYfdYoPP4ihomwM/Ii3nVweza4y5VeOFDWByS4GD3CJm4jxHEjuAaZmNcefugUJdo5UoZgE4xxYv72Yhk3x0bYLRgdTt3P//wUff7i01ma2PbDBI40m9y4HMhSEZ7rQ+Vc/AZYPybJlKgtXeOtPVPFn55/M5n4QiAYwgaMpoCD8EMRRqbAwRGLjg3cHCVCEDcqvDAdwHFwA5iUoZsF5w9xVfbaDtHthuHGDgw3Ms6/jHQkVrjUNZZ4ZoBHl7L27Y16bg4xzmE3CCsd/4ouep5c+OpJ7OWd731Wzj7jM8lKVdA3SVydm2vZMAkpVM6hYXNvafkwUxLnHFT26SX3VJuiS8Y6i12FMDq5PTHr4HJsKeAgTOWY43eKIQUv/mqLX9dLpEJKZfMq/q2FKA9Zv5sAT+RU5ofuKyB3oGav3SWWHEtFvJtRmG+I5+fcRYA7Mk2cgs9ugFdV1rXa0uBkEOAcGiXHOTLYN2c+Un18NIOfdeTG82t+gatQmiTjKMfPONI0eUJfUAsVgu3KOQDZilJ4aQqcIqOm1EYJ1jnshlKHN9DN//GPTvCvjL18VoRHf5cCDvAjgVMOGd887e6sEh30fAwl1JaRIS2s1+F426wOeNEZmgE8qn0Fa9EMByP5Bz9Ath8biETDsJg6rC93uCigUxlLybQaTOnPoXhcz+VIDrr9qHlCQXP53Pn+YdZutYD1p2zz9DKtI5eeZKpyNQkXoNfl4xGCYXN9rxrm+gAAHDJJREFUfg1ADoSpuweLV0RNSbflWK+/0E6+mxKx2ldbPrGw6Sng+ACUQ3xSEdiMDBgOVuiQFjZV1j9eh428VSkmQjywXrCwsQRSdMS2bNjrsDAoB4pU9FwOtzW4lg3J4o9mxZqdwKuWTTmCB2P9YM2DuMvc0iwQsg+UrtApzFLfskc//3apUvZK8XyZJqckmarQknEB/EKw6E1eHR0Ur76oOURTooRMXtlQXjt/9v0uuq0KYSE9BRwkUA6YCeM1aMbpsOZQkicddJOB1/lwYhtGb8X92kEdRN6ODcjQwiRIrHTt408q8R+7vf1+NhrEF9c/huXwx9cf0eRgf5dUjQA7XXaZnN7T43AehHTQ6+RFoWBYvfCTxZBlPX9YxJS+5wLlpAEHbiFYdnjTJ8zVJI5XT9e+lR2aKVFC1mFcub3afmKf8tLcPaPcngIO4pQDbkKU4bVtfKfrSDo8IhI5tzUaOMKH/cGoftEBnf5RKHQs6kehCfb29KBvgKFM0rAo3bBG0CDeBeEbr1ndE6HTueC3Sw3OlcunVDAmd2Wu3I+RDnqyXiGkPZuqTX///aNn+q6Xvnd98lXSUpU0/EKw7PAdmishKCp7fXfN/EMyZZqGwij1PYid4Yv3VdHEvrfkpYCD6IPLhPGj7ebpBxErR5IU6TAZqgr8i9oZ6D2Cssl//sdpgIUWqYELnDu4F8m7w97QeAc7mcojHaMbJb9YU0Nn5Inn5wbhrX8mOc0LuV4Z28P9es+diFNemEwWiFAYjZHNwFddsn2b/YY+77UlVeOgJekCOIVgqpnAslFOSXh4VVo21V1zGKZEF1/kqixDCVmCb+Tf2BQwpSngIEo5cJkQDY8/W7vmL+DhFdCgS28XyZ2O2ct6aC0tHn9lHvq8CU5nbE2dW9uvoG+rSa+duFXhbMrDHcrtdXJrxaBnNRsqUogv6MsdHVApAL1wIDQBv3hVvKAOZ/pppZw6vNCBKSF1ZdfWsmoSTCb51S3uuwoTsoEDtxBMHfvHeMKjTypjfDCcLiPflHRTIcfqc6PZsSpxn9GIy5YCDqIPasKnOEwYV82bY9HW8SpGIRVPOyU1T2692LwxNgONTZjKbPo7K57mhDxLyX0FdMvGZV3dcxsrS1Z5nQnHYAeqnS23FDS/mFOfxLEKbzqwEByrqnMHquGQiZKOy956owWFDhyrKlUyheOXeia25xMVYkbPvPhJuz/JqUoabiHY8JlpgHaQ0usLbvNxm5KDj5XRTXUci7HkWrgbkB23/7LZkpsCDsIPThO+Fi/MtPX1tOp4nDy7FEan2RhsDP1B386C4wYLt67dxBGgWxbHKzP69X/f8hdY5GwJBOZMuUyXtdPvjZnn4XQjfnTyr4NGXJ9KcS1526BFRJR0DJ/a9kRLCgagq4pSuJx8FDamitWJveL9SxtI1HHsvRETgoXh11Hz9S31CRNQjOlOwJnunikxVmZDIF+qwWCDVrLjMbcDBxsULxfBTmRTwIEnWWkMTX2REcdhQ76iuK+njGbtZdbZpIlRH42LXJ9/6Ler1cNwz4mfTR+LLuEc3YJu2egYVIGE+ePo5GrM6/cV8TgimwlJRItsInmjzrFy7bL51IL4Nfyt7W1DN4W5uFa1kOeAtNjukY6TM7WeaH3B7qruT5E0Ulsus8liDPVMad+WNO1T5fjpNVFk6jj2viZP6PtSC71UVnzcvHGpNNFAFyqj0o1jBvKeKUuMFhdDpKQmvOwVsUsMcouxYSd2A0IdMz7dETA1KeAgIVmpfIqDemLxTMU/0ubxrjh0FleOIdcmpb+z/ogGwXo15TxdqzszhvqiDMc7UWfcqsCrEUTdsWILTyBHSe7CKXMs0x0yWoXyY2ylHf3WH22N0FHQkBg4Qmdnw72W3+urF07geGV8AfWE03n4qjyIwen3qPGsavwsX137w6pyDGyJnYqg64p9LF2j0dDpUlMuO8dl0UX83vvaK5Bjnwx9UPCOcp9UHcf/zoOrfN4x6KWy5/rXt0YSCsGUTZ1R+PWSP5hy2/PI7zA6q/7L3rkHpXllATwGohACBHFQQKvrRNQKiAUkEqKoQ9bMovgYReNbiCURNbSrxURsGp/ToKP4IBk12uzGV8xs6upkTIyPiYvtxDGd3WU7O7uTNU3+SHbMH52drc0/dj8w2WmtyP3gg21X7/9+HO+953fPOffcc8jCI6mo768kJMw+r5C0SBKWGc9tLnqQL6Xw7BwsnILn4j1wIHKzokCP6XwJIHt8g0ClTLeoJpQZYm5xDhlPCoyEhr8/ez/bnxSAxzIZPvS+4wN1hgQKmC5u8KYP2j6WfqyOJFHpwWke0JfDRygJ0b3qqbZxgcxPQcYGCCFhNyUVYmnkHJGkqmxq+WbueVxHGNAHOVH5x2TAJWYgv2qu80oK0Jcxb2YVDYlaS6bhA4RCUmCgUIjHY7FkRTwXnaEce/JIygq1RyLCxXM/7D+PbB7Hm48GM+L0fLuRMY6GP9R80kYiGHQItP8FwEe2LiWPIn2sGlpoq5JAcMUGkPKOJCaGhKAS2ZEkaJJotU1ccdzTC7H10n6eXVYTCm5FYPdcFSSclci3yocMGrA9vhHeijvf+Mh4exLa5nSuPFkkKm5qYpxkFPsIxOjmpI/VqkszLC0xCOxrRNadQhmMek8hQlmhkUUE+3hQNrV7uuWO95i5MGNcLICEbWqKfy1pX+mxuXO9s9KjVDBiblbgEcB4mXYkp1xd0RAOY1azer0XzYXtfRF0gYQrl/tIBGJxRMTp9qJT54xZuQW+rfYNmBSP2NNbwIF0cHTTv/VrX7Kv9YTMwYlxW4lgnqTkpN7zYEuZnjKCi6rpzPceU5aOi+lcmV8Ok0xmKk4my7k9dHR70cRQXX1FAoUHYOJxPn97z+JAZnhB22C5oiFsA1SFLKsY/bj3UNeYeUpZWXms6Hhb0mdzD557q97l17AowLpoSRS63kODk8eQSOuZ113BgP5ASqsmqkA6e0n15PkqJGzlpqSrt7xVf3tcUdCv6QD/p3Ewa/55BTeVLUm1MGZV031gZbb+j6OHVrvG5ifN82Ndq7dveY9+UF8Rw9KMAE1qytZNjfh17GutD7Rovd3gJoeiG0Pn2MiXs4Y5rgDvFUwH9WhCbpbxya2usReFGc0fHe77+tO//nP+Qdch43uNNVEnqByg04pYskoP8NwDByI2B6mp+uGKNn0DeHCyqbhuj5pGw29aWlp+9dv6S/WPoksKDnRTtEQM+FcIOP7QaQW8HgypteMmgwbGj6RzWrUn+i8m1DQOtjx+75JF0umCA2eicNTsMDiiGvTNDFivhCHrKGlU2gDjR9IJrdQT3ayCmpLGaP4gv7GkpKbgAKvbl0oMBxXz4tIf3AGOzciYff82u183SWem2vKRgVo9fc+E5PBwUdD05M7WD3/w1d27w5/o7jVKazz6cbxs0BnaCI2ek5P2rmMRCpAKZcfvSqkwyGHd5sQRqgaHw/n6UigUDbWDkxIG6wOWZ5TNfjBb/lmqiQE8tNoqK2ZT2P9KGh4E6+9TNkv/w3s4kYiXt92XaoNgi8ohtvK0WupIRzaHgMHAWRXYwdGzjqoApPV/+gKgwVvUzSmJDQfPM49RvsqHQw4LPKCV5GlPdHefYZ1hZeKovA4iAc62Sz+an8Rg74EDoZGGlxeqpFSYe9y5QXBEGa3mUcZSribdnaIGNVTo4+DXh4BmtW00hupGQeFex8Y6anFYtb4LwF5oTRguktlI50AF+8UNdeIIjqxIODQc2QMdCefQZNQeOBAjB82n8O60O8lBAOjfs70LQCouuy8NdSfkQleW2uMdqLwNkeOpMYbnNjlhJ4A5bnFYG7yBkEM7fb+62Ma9maWo5GWDQ+RwcFj6hfoEeu2BAzlyYH0gm8N96ugwNywPrSDzKMaN5KDG1B2XOdSbKo0meXYnxm08hp9yjnZcBSxaP2Rf64M0M9BC59kkR5zeneSgrqjHa1P37YEDUZvjmApunON/wQ0L5LiVdTGhbhI1KDTG+MzRks1spmCq112Qsx6npK2P3GJdBA6r1l/utJsIFn7DsFilSN33UyCHpT1hsX3T0VlweHkmorakR/4fj1Qat1Il1YS7hRtXnOAGJCrZfaKmU6UqpYTpYP9tLzZTohx2E+RCc9XlWzTUZcHRNzaH2n4iGCZTtyDBo34C5CBkZgE1/XYKHJ6pgVgak8nEBgSneu4Kcuyn+RQ+zL2R4voF5PjyTXHOFKPdT+ZaRMW44RTXSFVFXLLDbam82FbINbgBch0JdW3FPyrkg3aVq2LVekYGQCIY8Xyd7UJNFnKYDF+6gxwEX4OpLwfgCHAGHGkkhazn1S9//c0aN1kBs5bIz9fmkFf/Y8b19M+mdA595Fybv1SsRVSNy8mBuTFjaWWw3xkeWyA343oeE/u3Lx3oQnCAJoJpBj+WB+7k8Th4twJ32927vGP9dQTA4XmELEO/nHphGQsvDyfT2LsiGpIoTG7XD1KyXbuAIyzdRLOfk+1BE4XF7XpDJsfFypjJ15fJsM6dG1bI8V2tGSOsv09GKOAWKz7rZJgPLBGMWKOm2/4h691KtK+Ll3KjNSprqBxs2zkMDs/IHEG1eWDevL6+bh4YMFdzmexdYXOgSPFxQzrWiAvXj6ONyZ+sOul0oy4UqSlj0WaFOERGWKhHlqldJExzmseiDPW9flfyOMw6q7DbI8Sinb0fAEoEw7BUzczEnWIl5Q86o37nyhBykDbh5txZBthx5TA42LXiKdPAQlk5OgJ97fiCybQuIaftCnKEBDKqAIr2OuFnamZGlfTaPJTzopIY45M3E0LTv3OVuXFjxXi9L56EQoDHkGYAVG12wqPKva90oCGT0xYHYCIY5d1Pd0rX9AxmjM/lSxtcZ5RhNNPDU+IcwOPKUXAkknvWl03KcoFEwuVy6demlk1Jjt3j//yGxdhSjs7gXEQOIoW/XCrfrlmhI3s2Rzw1DFS7y7EbY74+SaJApG86pBnohR1q/jntURn01XJHWkA6bXFsJoJ98eXOIRwt/5TPTg9EUNCuexob7TKjjHhl5mChhAlaMtcLG/H2L1JsguOrP9uYtUhRtUmtjFhbO93X1/dK0HNtXW0+rdgdAVJLeMenWj/4o7YdyBjUBboLccUBCFlv77CZ3MJYg0tE3cj2Nejbi/FsZM4LL3+FJGnJkEnccMWseugW40QB2zedjtgJHIecB4c1RHH73o5x6u+yS1YFeM8ddx1NljGhY7nEXQmjntddLpPRUoFrHkPg+NwW5DEXHx6mbfu/hGAF5qWFiOR/f/3h1d9f/ezlq55r5n89S87bJfkc+9ICRM0T+UAFQ2HqIi63bgHNIIUgJanXfiy03W7GNCBudBCoHrqhZj8E3JQ3msHGiuIWIXfFFbNqXKjy235WIaP70EVbOp2CCDhep3PsRA774LBcY/qNT0LuCvL2I1GzYlwYb4IRqvLCC7pKiDbBcfcwedv/JfX9dpO6TJSzdnW+qKxowPxSzq2eV67hd02aaUjg+3TlfQMLpBAnLF2c1SdxFf4oJCFHeks8NWqI4qUje0SdqaibG2cEI+meokh+VafqZs4gG+mAZrVT3SZR2Mjpfgcvfp5gs1UAQDEssEvZJjsvlu25Kq+dZHpl7CArlIi0uTG7DLmceXCOK5LPKZu9Ua3g2PZjwbJnsYtVCvLahwPfln97Yf6lyO+s+cU35JB9u4Yc/pamKJ9IEfTJIV2cqbve14Tfjyx/PY9Aol7olWo4SJ7hK8YLpT1IRHB/qBm1PaUDxhXcf9i71pim0jSMVFu6WqCeBnvjYAjlsrTlUtpCHa4NBjJULEaBchMqt+XqGG6KLDgjJIANCFQDSBU3C4OuAjJrxhUscpnJSpzEiMlkJhlHmU2awJ8lGvmj+50WFBFKC6eAy/f8JOHk6Xt5vvf7vnPeNw5H2QBWVeRVU1Z6R9FXIh6JalzxlrSXRcHlCGe10ZCrHI6+3yTHHum8lN/i546nL6PaOmtkZPO2nOzql1/tW8nmvKD0ZSsOkkT9oGKExWRO60bfvCkAtQaXGzKprYqXW20fyCVoyPGgq6fdbPHLRU2GOt4Zd/UlHXZEWQcKm3h4reTYGl6nEqN4HW8s3q5QULFqYuifOO1XMDHu0uQYtSo1dlhUusL/u5lQB5h6w2V0NOQq17GL60e1StOGn7R6gyp3IkJt9gjaw/ENXT4rVFDuYbkhy9ZpvhTWaFIzi8ycnv29uUej7ZNJEJZ2fCaSv42Ew4rggkQHd2KVtS0uuTg0YZFc1EetC1OWV9v2+LJ7DB5UffIravO+IFuEKnbS0Y6XVe12P/5Fm6M2blU+2vcLb/njB6ynDV5BbXw0JPYCmEk7fZILmc5KmRjC5yjIlsETtXbWfGH+0HsOkv4sbIUtEyN/QCBZ7scQKayRpOchoOKYbf3P6OhsRDQFCdHMNqDbqeKw0s9vD8/RdK0/yLFcbO1st1Au6qk6xasD686m7WN44yAb2C7FmWApQXYuV+NiVbvS5GMTd6ZRivGrbSkyNx61fEeQuDITetqYXKIaGw1ZurS/kJGU5TNT2ztb833W68q3tqU+woozOWvyJdExvH+FQw5bn7uBoewVTkaGs+pCEOS19s9v3nw3rk1H0b9oZ+25hO0lHPrKGgT5JeDEtQd5jB2DZ+FcNFyvpOb9/PBGfnbp2o/W9huorraG42PV9UmHx4WTYcKKznYT9u5OsgOZV5Z7J8Hm6NmfaVTcTpyMjIa0y27NQPlmSGt4zpkK0el1uBL4stQn/25/sdp1bb5kVwe2LT8Wh5HQH7KC3PLpxfXj7UrutG6gQ9yhmZgSCyJmdXNkotV2AzbkWA2cmM9j2MWsSTXc/AOErZbORUO4KWlFKWdaLyab2BD802Lj6AJVF+IGWBVIxxqtut/b7UrUT3sUGeHxJoixHPEczXdb5inf3B+9iePLSSR2fFFP03ITOm2PnlWoyRxzpNVVXLwOV7495Hc5QFjRn8Kir7XKlTJZ/VeXuycCIqgKXeHNDALyVDtbLDv1qm9G4CqY0gx3dHTWn8DpGOnzlI5WYdlBNzOjXK8aoqTC2gyxxXMRY3qYitDFGZ3fXo+q3Nd9aA11Ueazzo2huiAdFcIAf3Otut/7j33YoKmCPIGJYuwVqqoI+/RihRH12xFzO0UbhS8bvTnyr0/nHegHS5SbdZYCpCNSbXDlST9ztyw2doyWhBuFihzxFwh7zWfxbPTID1GfNv739jcigiRq7JRGZ//q1dx/Ix2Vc4EHAnW540e219nox0EuzlA8TBJhUW5jsvewWuPWs05VEW1DchHzGwHsAgTBJ8azvnzcwrCz9TCd68EyUGxEpG8YVYNVc2oLDVY1lSpgejQ5P3OwVuUZrZRYm5YVHEr48K9Xlpb9jacvpcjw/YyClIjmjV5ceoVvGCxhrkIRF1z51f1KB9MLM7BYOfDKhJfGD9ykoeT1XKcTJNEpWY+/WbIAxR28OlpUvmKTBWtlSIHur1UsgQyhMmVFHbrZ+qlwCsfKavtKB61IpShMEqbxHECYGx+D4GFr8N61H7QgFSMRJ/7G7fGIfEelTBxcMH5XmJbc4rBaSrofwrhmpwmTHioyxHSEupFUP1g1oHJ1qgtWzQw687JG4Iokyk3uTGet9Hxw9rTf4sd7MLJ/HVavsR2iEeWg14w3ffRafUzc5atr6WX/3pUHNN+eux9mirhiFgKL1bms3NpicTWXar2+MzWsCe+j/I++2dp/2+enM8FGyjRiIjr2o+7HnJ00tLxa3VGgGZ9Mj+dbbV8Q+U5IJK0oUNH7+w1hWbIhzg/Z2Nh4LLxb+m5/jIeHjQ0W3S2VAcJM4D29alD5hI1tvciRO1O4qaxiRe+erMyFlNRTjVnE9D3VZJCKWX9X6OuijaY6b1VVbV1QybmLi6kufpMqxuPQx1YVhHIlLuYkBYl9qmjgbpQDwztmfrfDcIhqGwhR4h7SJGfXjtGz2QtTubCyM+zYmnu9Ya5UVqvbU7R7kxZ5ctGq9Q6LPncbG4OFkstEYLFStbNiI8ku69dEOTk6o36I52aYhvXurYf7yagkRTrd2BcTRGd0LkKnS5l5+rpqalI7OZUe6Uy02s7wJfCpIMpZeRGK3r2DJZlAPnbt2MFr8d9dyujuZpQe9L/SwqvcheVhSVBdbUQNy6Aam8GVJGeTAVXPmggsJeepVma3OJws9dMz5QGqO/RUB/f2KvrmuRI3z6pjNSpt7geqPv4nGRcaL3T7uZXudmjJrtwV8JFV2XIzBY7jFS8+Xn8rfxd4blw3Y19lwq364+JyNv7fUGDfxyta9XNA/2A48AIu3vqtM30dPSKBKylcumCnasGTwDpAQBrj4uzi7OwaGxu7Gbt5vB16Z2bt6VWAxcqVS8HJl3JJanBtmyjM5yDj9u3S3VcChoIKWKeMb7qIieWCmr6XfX0vdTodKA3jnQlW2x4gyinYPHrP9CpMPoL+9OJF17XrTaKEhPtDf3vSVXJvcO8/gO+qxlgG722iyTiAKhPjOrZA9d69J+eOCc/nY0wB1UdBezGq6Z4LXH0306pLqJZcOyY6HxWVkCC6euxa173BQqAZ67Iq0QWRjR3XDD4Bzz0vzBzUBI7JEIsoJSGxXJ1Rm5uVKTovyiypxzaryvXlDlE6L67z5nkEBCQNoKzs++/T0s43fV1y70WQXv899bJqLcVNDzlUlBXY/6zr6yZgtet3C4eDY1c9biW6MOmx069nZmaq5mItfpf42YAEvEghMw3yYf/Uvqp4SvegR6P97nhOQ3B7+k59HjJBeEs3/YtAEvF9SuqptjdEnFAMaCcxplVV9mMGquStwHUp1ZriEw96ekZHtQOTUxEN8+q2PqtKnZFqNfbckZHhO+3qUMRZapnfQuSTURqr5o5iRNFXNY1lMg6tvheZB8Rc3/Dz5ufNzXW5480jI4o7wfZPP1gI38WKw0eqw9MbXg4/6FGcKN5Ji6ea8BKonC1BlKHR0SiyqWvnFjzwMMQ5GQDhoqnRtHCBIJqOKrkIk4zlIYG4dT4j/kCVyS2ny2L1TMuV//5AlbgVqaIyQbhaHS6gRctclQgTD6uSpF6O4Lk0tTqWznV0saBYYtUel05T0+j6AomEs3kwARGzAMQYsF8DfGmxuJOyHZHy6tjwcFoqikhMbATkS5AnUp2sOb5QLJaTDwxSay8nqkRCdXaxlko54G/ErUqVSJDzE6kSqpOLtVy+xalKrROpjhQJsKuTF1+Om7pxpMACjo5UF6mlIxoUpk4SJ/xLOaLekUBAMDhKMDjx5XqbWc4lHDmfCgLHy5oAtx04h8nn06jk82HqayG2vqT/A1P7LmCjilsSHPkIAQEBAQEBAQEBAQEBAQEBAQEBAQEBAQEBAQEBAQEBAQEBAQEBAQEBAQEBAQEBAQEBAfG/9uCABAAAAEDQ/9f9CBUAAAAAAAAAAAAAAAAAAAAAAAAAAAAAAAAAAAAAAAAAAAAAAAAAAAAAAAAAAAAAAAAAAAAAAAAAAAAAAAAAAAAAAAAAAAAAAAAAAAAAAAAAAAAAAAAAAAAAAAAAAAAAAAAAAAAAAAAAAAAAAAAAAAAAAAAAAAAAAAAAAAAAAAAAAAAAAAAAAAAA4C5TgZ1JfJ1t/QAAAABJRU5ErkJggg==;" parent="1" vertex="1">
          <mxGeometry x="-117.5" y="97.5" width="65" height="65" as="geometry" />
        </mxCell>
      </root>
    </mxGraphModel>
  </diagram>
  <diagram name="pipeline" id="oBOJPI8WT5u1TvHsaGbR">
    <mxGraphModel dx="1668" dy="889" grid="1" gridSize="10" guides="1" tooltips="1" connect="1" arrows="1" fold="1" page="1" pageScale="1" pageWidth="827" pageHeight="1169" math="0" shadow="0">
      <root>
        <mxCell id="0" />
        <mxCell id="1" parent="0" />
        <mxCell id="hW8EgmJHF-hAIjpgLk11-3" value="" style="rounded=1;whiteSpace=wrap;html=1;arcSize=12;" parent="1" vertex="1">
          <mxGeometry x="260" y="50" width="790" height="210" as="geometry" />
        </mxCell>
        <mxCell id="LNYOebLtOE29yBiJLSGc-19" value="" style="rounded=1;whiteSpace=wrap;html=1;dashed=1;" vertex="1" parent="1">
          <mxGeometry x="580" y="60" width="142" height="190" as="geometry" />
        </mxCell>
        <mxCell id="6" value="" style="rounded=1;whiteSpace=wrap;html=1;dashed=1;" parent="1" vertex="1">
          <mxGeometry x="430" y="60" width="140" height="190" as="geometry" />
        </mxCell>
        <mxCell id="hW8EgmJHF-hAIjpgLk11-25" value="" style="rounded=1;whiteSpace=wrap;html=1;dashed=1;arcSize=12;" parent="1" vertex="1">
          <mxGeometry x="270" y="60" width="150" height="190" as="geometry" />
        </mxCell>
        <mxCell id="hW8EgmJHF-hAIjpgLk11-20" value="" style="rounded=1;whiteSpace=wrap;html=1;dashed=1;arcSize=8;" parent="1" vertex="1">
          <mxGeometry x="730" y="60" width="310" height="190" as="geometry" />
        </mxCell>
        <mxCell id="hW8EgmJHF-hAIjpgLk11-11" style="edgeStyle=orthogonalEdgeStyle;rounded=0;orthogonalLoop=1;jettySize=auto;html=1;endArrow=blockThin;endFill=1;" parent="1" source="UeYxYK3Cn5XbAIOpTatN-2" target="hW8EgmJHF-hAIjpgLk11-7" edge="1">
          <mxGeometry relative="1" as="geometry" />
        </mxCell>
        <mxCell id="UeYxYK3Cn5XbAIOpTatN-2" value="" style="shape=image;verticalLabelPosition=bottom;labelBackgroundColor=default;verticalAlign=top;aspect=fixed;imageAspect=0;image=https://gitlab.com/uploads/-/system/project/avatar/30472118/logo-extra-whitespace.png;" parent="1" vertex="1">
          <mxGeometry x="30" y="160" width="50" height="50" as="geometry" />
        </mxCell>
        <mxCell id="gM9HhOSeEY18I6hsgLa_-3" value="" style="shape=image;verticalLabelPosition=bottom;labelBackgroundColor=default;verticalAlign=top;aspect=fixed;imageAspect=0;image=https://upload.wikimedia.org/wikipedia/commons/thumb/f/fa/Microsoft_Azure.svg/2048px-Microsoft_Azure.svg.png;" parent="1" vertex="1">
          <mxGeometry x="1177" y="160" width="50" height="50" as="geometry" />
        </mxCell>
        <mxCell id="hW8EgmJHF-hAIjpgLk11-1" style="edgeStyle=orthogonalEdgeStyle;rounded=0;orthogonalLoop=1;jettySize=auto;html=1;endArrow=blockThin;endFill=1;exitX=0.5;exitY=0;exitDx=0;exitDy=0;" parent="1" source="YW1inPbLGPEtHc-UeUeM-15" target="UeYxYK3Cn5XbAIOpTatN-2" edge="1">
          <mxGeometry relative="1" as="geometry" />
        </mxCell>
        <mxCell id="hW8EgmJHF-hAIjpgLk11-2" value="Push &lt;br&gt;terraform &lt;br&gt;Code" style="edgeLabel;html=1;align=center;verticalAlign=middle;resizable=0;points=[];" parent="hW8EgmJHF-hAIjpgLk11-1" connectable="0" vertex="1">
          <mxGeometry x="0.0835" y="1" relative="1" as="geometry">
            <mxPoint as="offset" />
          </mxGeometry>
        </mxCell>
        <mxCell id="Hc-8KjNSSpe0YUT5cz_B-1" value="Developer" style="shape=umlActor;verticalLabelPosition=bottom;verticalAlign=top;html=1;outlineConnect=0;" parent="1" vertex="1">
          <mxGeometry x="45" y="410" width="20" height="40" as="geometry" />
        </mxCell>
        <mxCell id="hW8EgmJHF-hAIjpgLk11-21" style="edgeStyle=orthogonalEdgeStyle;rounded=0;orthogonalLoop=1;jettySize=auto;html=1;endArrow=blockThin;endFill=1;" parent="1" source="hW8EgmJHF-hAIjpgLk11-7" target="2" edge="1">
          <mxGeometry relative="1" as="geometry" />
        </mxCell>
        <mxCell id="hW8EgmJHF-hAIjpgLk11-7" value="terraform-lint" style="rounded=1;whiteSpace=wrap;html=1;" parent="1" vertex="1">
          <mxGeometry x="290" y="170" width="110" height="30" as="geometry" />
        </mxCell>
        <mxCell id="hW8EgmJHF-hAIjpgLk11-8" value="terraform-security" style="rounded=1;whiteSpace=wrap;html=1;" parent="1" vertex="1">
          <mxGeometry x="290" y="209" width="110" height="30" as="geometry" />
        </mxCell>
        <mxCell id="hW8EgmJHF-hAIjpgLk11-23" style="edgeStyle=orthogonalEdgeStyle;rounded=0;orthogonalLoop=1;jettySize=auto;html=1;entryX=0;entryY=0.5;entryDx=0;entryDy=0;endArrow=blockThin;endFill=1;" parent="1" source="hW8EgmJHF-hAIjpgLk11-9" target="hW8EgmJHF-hAIjpgLk11-10" edge="1">
          <mxGeometry relative="1" as="geometry" />
        </mxCell>
        <mxCell id="hW8EgmJHF-hAIjpgLk11-9" value="terraform-apply-test" style="rounded=1;whiteSpace=wrap;html=1;" parent="1" vertex="1">
          <mxGeometry x="750" y="170" width="120" height="30" as="geometry" />
        </mxCell>
        <mxCell id="hW8EgmJHF-hAIjpgLk11-24" style="edgeStyle=orthogonalEdgeStyle;rounded=0;orthogonalLoop=1;jettySize=auto;html=1;entryX=0;entryY=0.5;entryDx=0;entryDy=0;endArrow=blockThin;endFill=1;" parent="1" source="hW8EgmJHF-hAIjpgLk11-10" target="gM9HhOSeEY18I6hsgLa_-3" edge="1">
          <mxGeometry relative="1" as="geometry" />
        </mxCell>
        <mxCell id="hW8EgmJHF-hAIjpgLk11-10" value="terraform-apply-prod" style="rounded=1;whiteSpace=wrap;html=1;" parent="1" vertex="1">
          <mxGeometry x="900" y="170" width="125" height="30" as="geometry" />
        </mxCell>
        <mxCell id="hW8EgmJHF-hAIjpgLk11-12" value="&lt;div&gt;.....&lt;/div&gt;&lt;div&gt;&lt;span style=&quot;background-color: transparent; color: light-dark(rgb(0, 0, 0), rgb(255, 255, 255));&quot;&gt;.....&lt;/span&gt;&lt;/div&gt;&lt;div&gt;&lt;span style=&quot;background-color: transparent; color: light-dark(rgb(0, 0, 0), rgb(255, 255, 255));&quot;&gt;.....&lt;/span&gt;&lt;/div&gt;" style="whiteSpace=wrap;html=1;shape=mxgraph.basic.document;verticalAlign=middle;spacing=2;fontSize=8;" parent="1" vertex="1">
          <mxGeometry x="140" y="100" width="30" height="47.5" as="geometry" />
        </mxCell>
        <mxCell id="hW8EgmJHF-hAIjpgLk11-13" value="terraform.gitlab-ci.yml" style="text;html=1;align=center;verticalAlign=middle;resizable=0;points=[];autosize=1;strokeColor=none;fillColor=none;" parent="1" vertex="1">
          <mxGeometry x="100" y="150" width="120" height="30" as="geometry" />
        </mxCell>
        <mxCell id="hW8EgmJHF-hAIjpgLk11-16" value="Azure CLI" style="shape=image;verticalLabelPosition=bottom;labelBackgroundColor=default;verticalAlign=top;aspect=fixed;imageAspect=0;image=https://cdn.iconscout.com/icon/free/png-256/free-powershell-logo-icon-download-in-svg-png-gif-file-formats--technology-social-media-company-brand-vol-5-pack-logos-icons-2945093.png;" parent="1" vertex="1">
          <mxGeometry x="870" y="75" width="30" height="30" as="geometry" />
        </mxCell>
        <mxCell id="hW8EgmJHF-hAIjpgLk11-17" value="Validate" style="text;html=1;align=center;verticalAlign=middle;resizable=0;points=[];autosize=1;strokeColor=none;fillColor=none;" parent="1" vertex="1">
          <mxGeometry x="310" y="140" width="70" height="30" as="geometry" />
        </mxCell>
        <mxCell id="hW8EgmJHF-hAIjpgLk11-19" value="Apply" style="text;html=1;align=center;verticalAlign=middle;resizable=0;points=[];autosize=1;strokeColor=none;fillColor=none;" parent="1" vertex="1">
          <mxGeometry x="860" y="140" width="50" height="30" as="geometry" />
        </mxCell>
        <mxCell id="12" value="" style="edgeStyle=none;html=1;startArrow=blockThin;startFill=1;endArrow=blockThin;endFill=1;" parent="1" source="hW8EgmJHF-hAIjpgLk11-26" edge="1">
          <mxGeometry relative="1" as="geometry">
            <mxPoint x="655.0952380952378" y="260" as="targetPoint" />
          </mxGeometry>
        </mxCell>
        <mxCell id="hW8EgmJHF-hAIjpgLk11-26" value="Shared/Specific Runner&#xa;(Docker Executor)" style="shape=image;verticalLabelPosition=bottom;labelBackgroundColor=default;verticalAlign=top;aspect=fixed;imageAspect=0;image=https://gitlab.com/uploads/-/system/project/avatar/30472118/logo-extra-whitespace.png;" parent="1" vertex="1">
          <mxGeometry x="630" y="350.5" width="50" height="50" as="geometry" />
        </mxCell>
        <mxCell id="hW8EgmJHF-hAIjpgLk11-32" value="" style="shape=cylinder3;whiteSpace=wrap;html=1;boundedLbl=1;backgroundOutline=1;size=6;" parent="1" vertex="1">
          <mxGeometry x="824.52" y="358" width="30.97" height="35" as="geometry" />
        </mxCell>
        <mxCell id="hW8EgmJHF-hAIjpgLk11-33" value="Terraform Base Image&lt;div&gt;(Docker Registry)&lt;/div&gt;" style="text;html=1;align=center;verticalAlign=middle;resizable=0;points=[];autosize=1;strokeColor=none;fillColor=none;" parent="1" vertex="1">
          <mxGeometry x="770" y="400.5" width="140" height="40" as="geometry" />
        </mxCell>
        <mxCell id="hW8EgmJHF-hAIjpgLk11-34" style="edgeStyle=orthogonalEdgeStyle;rounded=0;orthogonalLoop=1;jettySize=auto;html=1;dashed=1;endArrow=openThin;endFill=0;" parent="1" source="hW8EgmJHF-hAIjpgLk11-32" target="hW8EgmJHF-hAIjpgLk11-26" edge="1">
          <mxGeometry relative="1" as="geometry" />
        </mxCell>
        <mxCell id="LNYOebLtOE29yBiJLSGc-26" value="" style="edgeStyle=orthogonalEdgeStyle;rounded=0;orthogonalLoop=1;jettySize=auto;html=1;entryX=0;entryY=0.5;entryDx=0;entryDy=0;strokeColor=default;align=center;verticalAlign=middle;fontFamily=Helvetica;fontSize=11;fontColor=default;labelBackgroundColor=default;endArrow=blockThin;endFill=1;" edge="1" parent="1" source="2" target="LNYOebLtOE29yBiJLSGc-20">
          <mxGeometry relative="1" as="geometry" />
        </mxCell>
        <mxCell id="2" value="terraform-init-test" style="rounded=1;whiteSpace=wrap;html=1;" parent="1" vertex="1">
          <mxGeometry x="445" y="170" width="110" height="30" as="geometry" />
        </mxCell>
        <mxCell id="3" value="terraform-init-prod" style="rounded=1;whiteSpace=wrap;html=1;" parent="1" vertex="1">
          <mxGeometry x="445" y="209" width="110" height="30" as="geometry" />
        </mxCell>
        <mxCell id="7" value="Init" style="text;html=1;align=center;verticalAlign=middle;resizable=0;points=[];autosize=1;strokeColor=none;fillColor=none;" parent="1" vertex="1">
          <mxGeometry x="480" y="140" width="40" height="30" as="geometry" />
        </mxCell>
        <mxCell id="tEXlzktsmgSkOuah6m90-12" value="Trigger Pipeline&lt;div&gt;by Rules&lt;/div&gt;" style="text;html=1;align=center;verticalAlign=middle;resizable=0;points=[];autosize=1;strokeColor=none;fillColor=none;" parent="1" vertex="1">
          <mxGeometry x="100" y="190" width="110" height="40" as="geometry" />
        </mxCell>
        <mxCell id="YW1inPbLGPEtHc-UeUeM-15" value="" style="shape=image;verticalLabelPosition=bottom;labelBackgroundColor=default;verticalAlign=top;aspect=fixed;imageAspect=0;image=https://upload.wikimedia.org/wikipedia/commons/thumb/9/9a/Visual_Studio_Code_1.35_icon.svg/2048px-Visual_Studio_Code_1.35_icon.svg.png;" parent="1" vertex="1">
          <mxGeometry x="35" y="355.5" width="40" height="40" as="geometry" />
        </mxCell>
        <mxCell id="ZG_lYEFG6VWjGCjV5V_1-12" value="" style="shape=image;verticalLabelPosition=bottom;labelBackgroundColor=default;verticalAlign=top;aspect=fixed;imageAspect=0;image=data:image/png,iVBORw0KGgoAAAANSUhEUgAABDgAAAQ4CAMAAADbzpy9AAAACXBIWXMAAAsTAAALEwEAmpwYAAADAFBMVEVHcEwhlO7///////////8ile7///////8il+r///8iluofl+oAhej///8glOohlOoBier///8Li+j///////9QMrIglOwjlOv///8ilO7///////////////////////8kl+4Wj+7///8TjPj///////////8jl+4ilOoilOpZsO////////8klO7///////8gl+oflO7//v////8glO4elOsakuv///8hmOwklev///8FgOf///8EgeYWkOoEhOj///////8jlev///8Xkun///8dl+oaluwJiuf///8tmOggme0kle3///8kl+r////////9/f4ll+4BgekBlegml+wglOv///8jlOr///9es+8hlur///8Wj+0flO0BhugJhej///8Ykev///8HiekBgucEhucdku4XkesflO4AdeYAf+sLiuv///8fleoDgugLiukjlOoglu3///8Xluz///8DhekimOsml+4ek+shletuuvL///8RjuoSj+oil+wll+sTjuwjlu4klu4glOobk+v///8Bg+ckluwnhd1ktfAFg+sake0ilOoCgeYek94HiOwll+ojluwXkOxSrvAfl+7///8XkOsile4mkeoMjOkQkekCgeoelu7///8Li+sdlO4gle5uu/EjlOsnl+0gl+pot/Ehleoel+wSketMq+8Vj+z///8Agecml+4dl+tZsvIckOtgtPAbkupRq+8FhOcbku4Vj+wjle8bmOwfl+wSjuwkl+oajOohle5asvARi+tbsfBhtPBYsO8HiOkBf+cUjesckesak+oYkOsdkeokkeoUi+wkk+opl+0Zk+wPjOoTkusfmOrC4vwEiekOiOkYjuoblesznOzK5fpQp+cjle4SjutDo+4jlOsWk+par/AHiusml+oPi+lbr/IglO5TrO93v/MBhOgYkOqs1vhtu/MDgudBo+1TquuPnswAaOAekewxnOwrme1ZrvMnl+wWk+s/o+7+//8AfeUVkuve7/xltPF9wfMll+4kle4edY8NAAAA/nRSTlMA4QoFWOEDAvscpuymGfr4WBSmIEMC6esx8h1QDhgtEvvhEQ4NBDDy+vymViPkCw/55QFG9M3OTenbFnk2c6ZjUzPeBjdI6lhxLxzB1zj7PAkI/Wgc6sRA+CmL0xC54HV4N9omfVlru67jWGydX9B7o+7AK1habq7x2+KRKMWxfeJgu73w1DRgwgaMnZ31cQxm98zJneVKs+t5sbVe52SSyrmLw7/umrL0qpO8XKa59Z5xk3aNgeG2Ndmry9CoyI6Nh6aXl1aZo3vgIqefMNbBzjO2jlaHo+xZgBO2wCnBo5ysqHh99aWiooSCqk1lIgUcaE6XsEJVgXtU6J7CymyDsOIAACAASURBVHja7N1tbFXlAQdw12oLatGmtYVaStMXpOG2NUBCKUUUBkFJ4V5MhwwSykpriEaGzawag7zoVbLFsmWAJBCH1DSERFP5MGQMZ2bY0q1hVGcinSzZWKJ8kLDEZHzRnXtbXqpmentvjPP8fsntc87tc597eG7On+c895zT664DAAAAAAAAAAAAAAAAAAAAAAAAAAAAAAAAAAAAAAAAAAAAAAAAAAAAAAAAAAAAAAAAAAAAAAAAAAAAAAAAAAAAAAAAAAAAAAAAAAAAAAAAAAAAAAAAAAAAAAAAAAAAAAAAAAAAAAAAAAAAAAAAAAAAAAAAAAAAAAAAAAAAAAAAAAAAAAAAAAAAAAAAAAAAAAAAAAAAAAAgc3Jy05KjByFssuvy88anZXJ+VrZ+hDCJ5pUV3j79+rGbPn32yrLJWXoSwqMuUtjxu4c/vDkNH/70rZ2FBVX6EkIz3ihYdO7QL+ZsuSEdb5w4dG5mSUxvQjjk5je37pnzzLQJy8aN2bIJP3/ljc3z1tXrTgiHWOTWn62+49N0ffb48bdn51XrTwjHDMe9fYNF49IOjk/vvOHYvohvViAc1jQ/feqV9HPj05pdvTvbTHJAOExZef43kzIQHCtqBQeERn6GgqOmtnd+20L9CUYcggP4MhXLPzqxKTPB4VAFwmJN8/qDmQiOFfsFB4RG/br1B2/KSHAM3v+U4ICQBEfT+uczEhxFQx2dUf0JIQmOjZkKjvvLjDggLMExNzPB0TD4WJkr60FwpHKtSnnDgcfKHKqA4EgpOVpeXXJvnf4EwZEKwQGCI1XlLQfMcYDgSDE4GgQHCA4jDsAcByA4gP/74PgseagS1Z8gOFKaHHXmKAiO1E857+gUHCA4jDgAcxzAt2vE4VsVEByCA/gG5jicOQqCw7UqgBEHYI4DEByAQxVAcJgcBYw4AHMcgOAAHKoAgsPkKAgOIw7AHAcgOIDvbHC4AxgIDvccBb6B4HCXcxAcRhyAOQ7gWzji8K0KCA7BAXwDcxzOHAXB4VoVwIgDMMcBfAeC4zPBAYJjTHMcUf0J4QiOdRszdcq5OQ4Ii9L43KXFmQiOoqGOTiMOCIeqeGtPJkYcNbW9O5+K6U8IhayyJUMtNekHx51P/nZfJFt/QigsjLTfNee19IPjjtUnZ+dV608IhZzGwnOHn5w07vNqAitGlCcvf11RnijLV1yVqDNc+5ZZC/asjdfrTgiJaNv0Nw8/u+B7o22p3VBbu39/0f7gUdSwuHhxS0NDQ0uyLAokfuyv3bVhQ+2WLUHtDQuOb35rd4kpDgiL3PrOS++//fcbR/nHn4519fb2Dg4NBo+hAw+eOrXtwODg0IOnDh8I1ocN9nZ1dR07lqh94x9eWru7zelfEB7V9ZHlu99999ZrBWtbt168rG/v+0/39V3s69v7n0SZeKbj/o6OnfOf27evPVn/0qJ4SV2uvoQQjTmyKibnjR+tpKC/v/+D/oEPAgNHP/nkk6MDA0H570SZeGpV56rOtkgkUlBSkqzfWO84BcJmxozc0XKqdwS6E4/uyjMff/zxmcruyvuC8r7K7uDp7lg0GostzM6uzhl5gT4ELrsteOzoPnPmTPeO25Jl5Q6dAnwNwZijsvvCdReSpeAAvo4LsR2xC8kyliwBAAAAAL4znIkB34YdsTpaVVqfUFpaVVdXVZqQykJVNPYl+3JOLCvx26qq4OdYWq6qi1Z/odmcrCn5jY35+RVrRionNrvyqu7uxJlgiXPBukdWu0fefngzqupi1XIH0rewoqDznqaEdfH4xKlTJ8bXpbbQdE9nQUX2F/bwxkhZvGldU3xiPNUGRxYmBs1+7uzw7PpIc+HMmYUrlzePVG5qam7+/mVHT58eGPigv79/4PTp00ePHg3WBgbuiTdduxmrCvKzcnzqkJ7Y+Ka7H2qduzFhbuvaefPWBispLWxc23EpXpI16j/ynPq2wvYlrUGl1mSVsbS89qHpzSWjbipcPWXq9effeeed8+c/Wj83WSfY6PXr//j0iL1HjvT1Xdy6devFviNHjuzduzdYPfLP5D/s8ma8sLO9sK3C/b8gLdGSwhfe3tOz9PmEpY9u37Zt+6NLl6a2sL335JKZkVGXqletunTurqGeoFJPT0/KDSYXerbvOTmvsCR6TRqtmTj/9b/9JeHEwZHKwVafPXv2YNLZ4IXbXx3sOtY1FLz80eF2tg2//chm9Gzvfe/l9nsrjDkgDdX5y+cdO15bXHxTQnHx4qKixcFKigu1qzefW3TtzXFiBbN/+OCcluBXQa1E42NoeXHQ7KHzy6dc3cez2vad/FXRpFmzJk3atGm48k2jJF7YUrRrw66ixLsWJ9sZrnRlM1p2zXn+pfa2qI8e0hhwPPXcn1c/MyHNv3A0YdITm5fES682Wxqf9+snX0v3xsITnnn24Z9EruRR9eSZf/3Bi1/ZaHlNTU35/7jH+QP7z768Mt8MKYxdxfK3vsa++NUef+T1RY1XdsbcxkUvHb8j/VaXvXi49WoeLWzbemjBtPRbfeCJ9y6VOFaBMctt3P37Z/+Vgb9VMm3Bh3fnzbjSbN7dP15wSwaanfXImzPzr8ybxN8/tWlF+o2Oq+2a37bQhw9jNWPy7b/8USb28HFbbr5+/JURR05J+13/Ze9co5q6sjg+vAIhDZgGAwQMiMEBCQkgKAYUEIMgz4AIUShCAGGJOKC8FVEw4NKKoDCo0MpjREaxBbUiHaj1Vd9WxmWtVGaWOrYy1j5c41qdDzo3gTygtIZwgncu+/+FwMranHu5/LL3/5yzj4ERgrCmSfusqCRFdrRlbz6Kk9wa+lJF0AUMBNIcHFSrfQUuKMBhMAocPSUowGFyZY4TVR6WFvP3L//4Gs0RkKII+OODQBqXKmTfOVdMtAAOfTTgCLvyRBmWZjb4JZKMAw6dBoEmCA79OVfCkIPDkHxxkQ6ajOOJkxIcMYOfWiIIauvZmMuCjAMEmgA4nNo/McIvOGKTPlZ6rnHhT3tRZByvo48HBsHJKiDQRDKOc1oBhz4acLy//byAL48aF5rcnIUg6CsABwg04VJlpjbAkYIGHO7zzpoppmN5icnNFBSlSnQjeBwgEIHBMSLj4HknV1BQeRwADhAIf+DQ14LHwfNeXwEZBwhEYI8jRQuzKjxvLyTgAI8DBJowONrxDI6wmXP0pxo47IW6EfbwaIKmZMahj+OMA9+lColHZ4mpXNiEB5oaHse72sg4RnkcXlPAHOWK539fXsuawYWN/6ApAA6dRdN+nC4PO335RmMcz6rgOePQowoe9/QUpQpYtAh4PkHEB4fx0mVKcCxbaqyFdRyh6weI7nG42SUGFp9Z7HGgySeGYwdbeEFE9zh0jDeqguPlQ0QZR2ctX1GqhCYT3hzlisp3rSqrytfp7TmVE05nQ1dlEE7B0a4VcGy8VoLG4zj8cvmO4aizllxGAY7XslIFn3WAkG5V1EtxfPXKtGzBretevhZUXZhgAU2hjGNptzOaWZV/33uuAo4BNOYoXrfV2/NjkuNdY2WDrKoLie/MFYho0KsMRGiPQwUcO65u7HZ2RAOO7x/M+kEBDiR7VSI9+1I34BIc1qyongVH5N0Y3V0zD6z8AKtXYH4FNFXAsTUvHQk4ZmLguL8DLThwm3EI6b6dHmXKDu2mljp7/7TeSmQH5QoIwDEeuUgzjvuVcnBsaSayxyEtVI66jujHFvuXkPjP1kn4ML0CmgoeBzJwxBacu/dgFlpw4HZWhR2kUqjIs6OPXPdmrI2hs2ElKQhf4GjXEjhqUIDDtODFPZVShdDg8KdbfVid9aujpFzMM9uSrUQ8mJgFTYmMAwk4YpO+RZ9x4HPlqD0tfHV8jckY5Vr+gviTObNtIOcATQWPowaNx3EOfcaBz70qXFH53TPuYw74iOvmwz5+NLBIQQAONcOOnFUhcMahR57f1Ptb59TFMjx27Qkl60LSAQJwqBV25DoO4nochtaS3cWFv3mmngml+ovdteI4MDpA4HGMf+UoccEhXcKR+TvHdIdRQg6uzLGwg5wDhBNwtOPbHD18b9kPiMGBw1KFZBO+Pr7h9w7xdbAs3Hy4HMgBgoxDrd2xRT/fd0MNDvyZo0Jx/a6Qj94wNV3nsfMDIAcIPI43y3Lei//c/wPhMw5DvtnTijqHN9VtlHkZPkAOEIBDvYxjOuE9Du6GqJ4FVW92fCjVl4AcIACHWgvAiG+OkqiCpkNl6njFlOpvtwI5QOBxqLOtvpLopQqblVqsY6rW/fiqOgPIAcIDONrxvMkt7L/aWACGM3OURK4t8shXk6SQc4AInXF0pyPLOIi+cpQblFpc6KLuHZHmHLPtoLcPiCgex1Kt9eNA3MgHZx6HG21u06F89VmK5RzlQXFADhAxwKF6rgrCbfXn7j2vVLYOJGKXc6G4ftFi03FkYV9VX1gXxHODpxdEAHCMOMlNj1OOJOOIrEp68fNzpTm6P5h4HcAM7UKTsym246nf6vaeP8aCTqQgIngcI86O9ef4oMo4Dj/7UTEde/tRtjkScxRPPUeFdP2MkCPjK+AYm086ibnw+ILeIji0cVo9lnGkIVrH8U8rsnwKge33qDQAQVB8dTm3CfVa4znOexXr+s1gLR3OTQARLOPQ46xLQ2OOJu2zosrDsi0SkIADVxmHHtMp4+aR8V5C1Sen18fwobMP6P/f4xgBDno9InAU7PNVgsMPCTjw5XFYW+w+2DD+W+W+oC1VEgfLOUCEAoc9Bg5nRBmHL1U+f8CVJLSg8DjwNKtiOENQlJmvQdaUlZlxbBPYHCCCgSOnDQk4TLFSZYYcHNYSr2yigUO4yaftPRdNbnjd5pW1TLA5QETyOEj0lDZnRKfVC2iKrD7RK5hgK0fdbGJOabg2Jdb5dEIoDYoV0FsChzZmVUjMlDYkp9W7zztrpgAHz9urgmB7Vfw5OddDqjS7DMsz/9hjwQNygAiUcTD1e0rQZBznBXzk4MBPxsHzTjjq6aDhZWT97VIKrOYAEcjjMCRfXKSDImxs0sdKcxQVOPDjcbjxBX/NtNT4ntetaBKQofE5CMDx692xT5wUYYkHDn/OuncWu2h8HaaFfw70hi32IAKBQx8NOMJmztFHDg78lCpcv4Sj5raaX4nlzev1m3ThMQYRxOMwJKfgOOPAjTlKogqKNK9UMDlQeptqoVgBvQ1wtOMZHCM9jkSCgUMo1nARh0qxchCKFdBbyjjCUNQUBu84aaFUObK9U8CXh7WWeAWjWAAWGd0YyMKDxxGXmHxrgmvoZcUKzKyAJh0cTk+umKCoKQy+cxqVcaDgUf6hp+F28qhsyWo0u2MZ/WvxkHEY8gWdq9wndi0OlBVNAioUK6DJrrKt9iWZIvhnNC3YqVwbjoHjzhcGKHgUMPBYYi2PqhuU2+cZiSA7cm31EQvf/s3Xo+e8u9hlosXce8W5FtbwJIMmVzSzlfOyEPyHW3qcnEszVOHRzqRYBBZHYZ6PSPEv7i/2SUOxkL3qzPU7dBz4AhGstacZEwahZWanL7TmAE2yuKzU4sX/ku1Hs3V0NMLk6BipzgShbWSkI6ZI2ZsdXQoP7LZgq/Ao5utv6kxNwoxUpV5gaeShqJFGWb1nnyknDUjk+Rcyy+RjHRrtcGTbNw5VcWWRDp4rmmJoOGi8ZxN+Knji0DZ1jfcKha7noMmVPXXu5/EFDPOAgGhGjXOJjk5JujMjmhFgTpHL3Nx8+GtAwPBLinkAw5PRUJOeXtPA8IxmmDsXrFk5n6mS/euKcy40FxjoqAqL7Do6svIbxc+w386QRQ2ITq/e5cNSwRFPsjBte11Zlnk0w7kmXTraITnXYBegEm2MoTqXlJQ41zR4MrKyCldcShFH4MDioM6/cPN9BPt5bmY4QcoBmmTpiq0e3+0rHTja2JfXfe3hw2t5rf2NpaXZFQMrmjFVZGMKrsAUnN3S0pKN/bwZe126ra+/Na+7O6+1r/94aWnf3c8vitiq3oldUErTdWNVPcTe3H98W0uwMvJQPNl3mAYqBrDILaXH+/v6+rGoLaWtH+4JpakYf0Ky2eB3Rz/de+t4X2uedLSKyP3bSltk4xxobh57qNeMr0lHu+ZWdtrZegsbHFQq/pzytBIERpBjQ3xCqB08yaDJ/dxjc2JSch+d+Lpjj0/9tDt3ppX7/NTRceLE/stbMF2+vF+moa8nZK+kr0905KZi76/32RO1NnBhQm6KmXjkPk09O3HMszvTVIRFxgJ3YDFGRd6yZeh7TMleXgkLA1OjolKxqKsXRv0ymz/io1SXGX5scHDwcmCUdLDThuJvfLl060/SuMOjG3Oo0jdio+3oGHyUasWi4aHpnrShGQPFCnr3VZd+YcLECmiSyRHB57AsJH6zRRw6mUxm0sU3MHV1LRlSV9ftriVdsq+Yhn6Mvb7BEok5mDaJNrAsLFgcvu6oz3CSLo1KHqGhyLcVkZdgEWWhlfL2TpRYsEQiaVQ/iR+LyRuVggtpYr/w8ETZL6czh+IuX3b16oPbN7BxDocea6h0MpNJ52ySXugGJhsXzTppZp955KMAh1FD40IJD55k0CSLJNTlstncCH97kqEhSU8YUVlZOet/7J17VFN3EsflGYImISGAGF6CCCwQlCCPlALVIsiRR0DkobIaqOJ2a8X6IIiKVrRIFREQrbgKbHl1peK6WqlrdX3samu1WruC1dXWXbXuIuKxPXv2nOveICQ3MVZuM9cEmO+fnDAZLvd+7vxm5vcbHaL8uExsmiSbYmY2RSZLEovFpjJdoT9pjSrScommZe2vCQgIcHISi5NIo6RVpUc6fB3n6u4klpFf7tln387OrkTL8LOukh+29JxC/qFOTknGkQ+wZIsa5OUQ4CAcj54KYWP7KAo1DGRmW9NswgUBh1XVri3TsH0UhRoGMn1n/rWJySDgILyO7tnOwZADhRr6CojPmZkHww2Cu7DxTWrdGoVCDU0FSiUt+m5UoWY5MORAoYaBWOyoxWE8AizkqMaQA4Ua+jLzqwHZeKPasbIyBEMOFGqoKylj/rWJbmDg4Pp/MN8FCyso1BCXU3jOhZEEnBwnbRK6BuJ1RT1HWl1VdBXIGoBRuxdLq7drgL7SMvocX8kf0/OW9ct8pSe6qwSWVHJgURAgOHhhi5fZYt85SvfCWKzdx01XHKmT9hE2zzaHd8e9SN1aVvmmlgPxtZuOUV2+jpCN4zvTMvqMVWe+qRkD15UvptXHHsiJuhuWDgiO5NA52ASG0i0xx0Uo8jXXR1HRG2zHaTzknu7ZaVpGbWKW/rxibDQ+7ytKy3b3HICvP2tYy6guX1niMa9JRL50vNV21TckzcXZFPq6+oqELmwxjbDDcoy5wMIKEByEV3CdelomCkW5v22FKZtKR+mlu3teDcmgbmT1dB+9rEPTqCDC+kWKEGj8RmmHzWhNcuj09QWGtYwqfRVlzKY+jeLs7VsOltIyqm31bumJrULbcVq+/u6gftf1bunxlOhsGoNczfxqmhf6EKBrlW/ewLUKSse9xhF2NO8NK7LQQ0WTjx7O/G+2+o1r6T468tQqueanTF4szV+QXzizdjT1lP7n+ErLKOlrdebpDEr4LbPd/tPqSQp6RrWsWhw51nxbQj10iPT1h1uf6nldw7atvnKaxiDXpIyH1YBFld61Sm0srlVQOgIOl5Tm6eu9tc7jo6l0r4IFt4VSVXSgPKpr2450vYwmcNN3bDtjQ8ERjK88r4ILJ6LZqs2sLH7i3OrJ+Tx9rCZwyz88svrVeQGgviZwvfMLltRFswec53Da0PGtA0HArlUyca2CelZ8Yd3e9frfXx8rIjaqz/jmp3WsCtV/jyZ3x4UTaXyqr5sgfE2fnEvpTpD52bw/3Utvo0/yj54K4XhC+1pesDpl4J0U7on3KvJhwYF1FZTOdBrn31+EeQOEtA43vg93UhkVVYIcCpEu3y9Sdy4qTzmH8JXIm5mjnqsintZ2yR4goTjBor3Gzwzc13wab3zlSJXiJlhwYF0FpfNeY39tDXFEpXKSgSo4gBvIZLJPYyDT6b+C+PrP4hb1JLfZ8WsufAhg1KdqxdZCGcXXxSC+essrRQPt+g7kRO1XpMOCg/CatAnXKqhnwWFjDTIdLSi4RdL/MPZOqwcaAWkOP8ktuVx+MkTa3w/pmvbDp44Qr+bdjSlUcJgLLCAugcaA7Bf+M333ZXGBwcFT/FbEwTkJKB3ggKj8B83aI+EHUsDBxNBpc6ih0+RbPFCVjwECx8RGjYjDfBRIR0XC2F+ZDxwc5JcmAIPDyj93ox/OSUAxBA7HYq2Iw6in1Veqp9VDRRw+/tQRkL0RB8gloAsOK2BwEPYLYsdjkgPFFDgoSbzeafVGDY6banC4J947lscAOH5jEHAI4MGRj0kOFIPgqLiX5qq+gfcdMuKlCk9eGaKaZT07PqceAhzJuxu3GjziOA1zgTDJgXpZ4FhfcSJtsEQcm4sPRKveoQHzcuohdqIn21+bn5FkUHBYjrH5vAgcHJjkQDEIjvxJV6jgMOocR1DwcXXwHRCe8x4EONxCa5e7mBp0qWLmt7YddqtKX5KjDZMcKMZyHJ8JGQeHOVTEcTJaqgbH2yDgeJLaGqvu8TRIxCErfLhrdzI4OLwmPa8HjaV0LFCpEbiWQXD8UnBI+IOmqrJfnRwNCH+FkYgDqMBBBxziaR0LUsG5QfAU+0WqlJClaoJeUgBfyufzpc4cDsdZKnV1Mk1STt8zs2QF4jGlCI6Bg+O40HWQ5Dg0mqqgwJEcekkTHAIDgKNtDgPg4GaN8mUHksiwpB5NZJsRLpRIJNHbRaIokShEkrhhmgupbL8xbI4zP0AJEOQHgoPuUsWoqyoaTVWA4Jj/jmFzHAyBw7sqN7LQnUTGGL/x/UcTnf567cOOy5cvt+w5WVl5s7LyZMuVuVuWx8a+ubXmDd+oEGF8hl/vAWZmuIRBcAx4ITzIIg6o5KgRRByMLFWIqQtytscrD3Tb2Hb58v/+9Zd9owQRn7cf/vbixYvBi6bLlSoOPraktba19VLjij8LKlsO5syvMVcei2YrDUiawkJ6IDieW1WpuKfaccpYjgPIV80cR3zODQBwPHEbssnR5Kbi+/dyMvfvE+TOuSg/O/aQiYWFSdHCiSMdgxybmsp56enpvPKgfAf71NTUUP+FRVkK+aIb15oFd09mxi6LjnfxY0sDZMgOBIducMysS6RGHEDgEDABDmUfh7qq8vrfQCIOInUd5awsVrcNTHRkBOVYwvvv02fWByuyiqrsvVQHHvk8e9KYG4nPZB8r7oRyx5ETF1pkKSrmLP4sZ8tbIsm8DI47sgPBoTvieNxp99SoXXfMfRhwmETYdNv1+2o3Y6k1VB/H485+qx5Q4LCvbfuqTOVrXIy1ydBoAFOSY7ODgyOJDBoHjLj5JJD8CJ08q/7wrcqW7yND4rM5s2WYLkVwaIMjeGVPXEn/U3P1DkyOw8Q6Jk4NjrgfvwOKOFb29EMODhyprW3nKeBY+vLBwUzLuV6rnAlBeaEFiuAluQdySHb48ZM88ZlDcFDVVNzQ01X2oB8cAihwLKWCY+l3RTA5jjtXu0qGIjh8GdjkpnfW2IrnONVkVn3ugVfeErqw3WX41CE4qG/xR1eve5SARxxUcMyIgYnEuWPv/+d6GTg4ag0PDvNRRQmEMYrb5FAw66NRl5eL4v1cMexAcKhUTr7Fr3c+BQeLBMdYeHCUxMW0+/uAPIwkOPp8VYLjBgg4pr6785N+o4bJcSgHuWVNIIxU3KAdiopdZ95elpYtFSM6EBz94GggwVGmijiYAMe5tXDgON/Zt64Cizgclqx5HFdWBpyPoQUOZ9FNBY8wWrnx8qu+/GjxnyKFhXzcbovgUC9VGI44zq1dAVJt5J7VAMdOGHCMvPDT465OjweqpUrRS1+qSCUt0KecA8vq49Sw95rrIhNtxVhhQXAowTGroeccJeI4ZMTgSFfcV0ZHJbARR97ejp6uzj52guVj6IBjBD/xyl5HwrjlXe6QNfObuaLxHEQHgqM34vixS50cFRgzODYreqOjEtgcR1/E8bRo8GBGTPvLBwdQFyzT4uUdqd2zPLrQHQc9ITg2Fzdc7WK2qqIERxVIxCG/r6oAKcFRD5fj6F8A2RkEHOJpsa2pxg8OIjnIf9HquppwNgYdmByVN1w9V8Z4jgMEHBPOalRV1sCAY+rvlVWVPquGiThk2SnVE70HATkInlfBsS9io7NnY3lleIPjSbn8UU9XWQnDVRUYcFgxAg77dW3nPezU5dh2/5cODk/bP9wqsiIGhXgjv6zOXDbeFWOOYQ2OZDLiUIHD2COOhN4+DlVVBRAcZQz0nNAAB4sTVRrGGxzgILwdC1Y1RL6GhdlhnuMglyrUiOOQkUcc5xkGB1zPCR1w8CUHFgURg0W8Hdve3xrPFuO22WEMjqbiR0zvVQEDR18fRwkwON6ltpyfW2oAcIxwmjcoyiqqf8TIRf/4dXS2E5JjOIODmd2xjFRVnvZxPICtqtiv++NXHmpfDQKOKYUPG/29Bw85EtZPrz4hyjbFB3E493GowGHsOQ5m+jjIiIOyV8Uw4PAcczoCfF49k3ILmnz49us4YXI4l2Pv9MQ9GDEoqiq9fRyqqsonQJ2jU5fsfBznUWbQiIMlDWn4P3vXAtRUdoYDxsQUEwjJQiAQHAygDQQEIQJBEERlkZcsGx4+ICD1STSOCLi6CJpSqKigPNQVrajga3WhU7a7VRkqartK8bGVrptqtRZ3HOtsp9POzg7be0Me9wJuSHLS3GvO52Mul5OPbw65X/7/Py/5gREyYXdJW6I3zFXseDj2Hw9f/ZMcEUfILdwEMKusVbGNcVB8ZLnhAaQyjoDwbnimtX3P43j4ah85ahws/DyOViWYtSpXhr79WmccNoo4KELVqmo3UhmH04BC6gUfRHtOHdwq4gAAIABJREFUVR5+TZJRFfwEsJ7WZHcgxtH44bev9FPO/7DYJsaREPjzNZVkKnKwHJ5sLISbgtn5PA79mnJir45l4TbyGWxVAjKO/xiMw1YRB50p6b+zl0TGMTevr8kbzh6F8zisXONYC67GoS3I7Bvsal8ExDjeH/r3u/t0I9I2ijgovim/PrmZTJnKI0UKzFTs2Djm5m3/9t194EdVFlvBOJw1s1x1xnG7qxqIcbgPtC78yy+0rLaZco4gPSezOWg2aXzDOd51YyDMVOzZOEr+9fI93cetdc5VAWYcB5Do6LVuxgUw43A70TWoX+RmM+OgeYo2kWa5yshIWXhuGBsOxtp1qnK2STccD/DsWOxJbn6co2vAGIe8T8LU5dXChU/bgdQ4sqqW+Av1z+/r1Z3//2X1aN+zuSQakGUFrSkWwHmjdm4ciVGheuOwxmn1Uzgb1wBKVR7zmTpaL1U+kOLoMrfqesMRkDRPqqtNjIMiTqpfMW8ZSYzDo6StiQlLo/ZtHG1hVj6tHljEkY0ah+7Qaa+C6GRAU85j/AlgHFM4W13JkqvMyKqq54nhU2jPxuGR161PVq10Wj1qHGDqBvLnmNPqpdFAZo4uQ1IVAcY41tnIOChsbm0ESXIV5/gvV3PgxqP2bRwRV7mYiMM6xnG+E4hxhMgPgjeOkayL2NPqbRZxILlKDFlyFY/wX3HZofAptGvjOP5C5mNd46Bx1nUC2Y7PWX6Q720N4zBEHOgxrg62MQ4kV5leTopchRV0uFgAMxX7No7djb0yK9c4aJ6ARir27vkkUb+uCpxxVGGKo3TGOjDnP5tuHKFs7r0/lZGjNLpdAkujdm4cZeEPsMZxwSrGQf0dEOOYG3GNC9w4lmVdxBkH1VbGQRFvOXa4IoT4vpHtsLNYIITPIKxxWDnioDOuzwe06VBfYhRo45iRdaLUMCXBlsbhx2y6Gk78kGOWU2MtHIuFxhFxFTOqIrJGjQOYcWTLL4Evjs6YhzcOm6UqFIpQUEyCkMPjTt3GD2CFAxrHNS6mOPr8VqoVjIMKxjhYt56L9LRvX8RBoTGbtpcQfUSWtfareqkvDDigcWBTFdHzWywrGMdqMMaRin0YrTQca0vjoIj9S38TRPCDmQI+v/aSAedw2L1xBETkGoyDGfdTIhuHVSKOHxDj8Ac/qpJqjnH4ecZtuPMxsQOOOc2lSTBRgcbRcuVFmq9uQJDJHy4PsYJxUEHVOA4a1qqAq3HcHZuqpII2uUnDN0Vxzp3QxySURWyHlVGyGweAN/gPpwaeFXgZjOMxkClIqeMjDhAPowcmOqJ4SRXJYBa53S3OyTBoFW0CsoUfOlnN9AcsI3DrJXkHgX3jwK0n65PgUCyZjeP6DRBvcM2YQrrOOKIkfXtA7F/Hcrggwo2q3JgK4mFcVP1UpY+ShQvygSyrn31oW2xggqE++XJDJIiP/IDwXDM2Aaf5pH3zyI24VQ6W26OhMBhwkBg0Jr8OxBt8WtC2WMOes2xudwSIiQTZ8kuYj1tE64bybABxzFqs1vQt65vnAHjEpq28sZrjRzF0wbUGAF2wbN6Jy+aUAjIKqafzCDuwMmNzRB8Vnt9GarC5tcd3W/5W+PvSL+576h9xL17p4QrL7YjVsmNIhvm4Zct6B1pYgLX6cUT9eR6WP+G7P2/D7rorFhSfqbD8aKSPI/9q1vpRerAq5nAFUVesdER2ZvLgibGkhliQ2bl09yxW6jSzkcpyLqtY8SzNsAVchie/e6AywELW7JaGfhfs55Jj4er+hpZssFrpPikxzZ+eOmAZ64HNS3eWqoIxAxuMly+UFWWWdEEqa1bZynO9MrO21pvCaMptPDWDkL6RPWeFQhYFExVSYwqTO/SksbxyKhYORoFrPrU8fGdvXCAmohbmUK8dKYmPN40Uz+og39G/i4edIkTz5e3qH5BbJHW81gTPxGedVz61RCrCesX1mzAGdtddceH9F2fCIytNYsUzV0aiWgvTzfrFOm45Nj2SkKdBstx2dPM5cIdisoccHO7+e3XTsXCd/xMjmO+Ke0Fdd72kEBt60pbnSGK6h00jHcN64dKQC8/XDzc/wZfnMlRnkdTxWilCpAd664YtkDp9uK43VsbB1SJowYUvi2vrTGIdy1xXW5xYGGzeRzOdzX2w488E9I2QzQ2nt+bAERXyOwdTwOWLqFi4LDYCF2xrkYgfxvMU497fNCFnQRhfJDKFFM9KFfFlhXjfQJ2jUIbX6mIi6QRaKY5MgUyC1WqyVJFEtiVqTGRAEzPwHWucdQyziM8VMMRmhvR0dtp/v/+OgLlKWd4XsbxgmKi8BdmKmM1k4PD6PSN4jW/vzRaOizwTvNgmko5lZbIdx729aI5jtJoqdUKtUxzZ3hZJZXj7jNdK8cN3rHHWscxMttjPzNEyxygete377whZGC2VsqFvvCWjsnQc3jEKfPvQCct3yG3TSMew0iaj1VTSN2jFs5os9U1acbTvTA6TYDX220zwYgoSj31yLn4vEQujRVxvuEYFAoJgQOKcQJWk9Orhz9Z2wMIoBATEJIKNdF+GgHs+uq25oaKMeFtysFo+69uaA9e2QUAQq1jFyEnjl+ZuOpe31oOAO/mkOjVs2Ji0HBY4ICCIkqCke7E5Aplov+LxkYbIlrlEnDTKcmr4ZewCXzhjFAKCAAj1S1/O9swpCNtafK+u+eTSOWXOhJwxqvENng+MNyAgbF7ToKWLEdNISaRm5t8bPtIoP7S5g6CLYqFvQEDYGvTQUDoNrWlwcqRh1Myis5uaB/aUf1TmPHtkhMi+ATcZhYCwjV/4ZYiD2VHeTAYj0J8bdzQz/+qm5vfzVgY5zc0m8J5f0DdIEsLS6TS/hIyMDLHYC4VQLBZO4gKF0GsmHvs0wFyiQF4iFAonx4y2C545Aeu4G0g7LW+wcalvYJ2AdFSpcanBo5j54xhVjrSzTOq4LtZ98UbmYF824hecQkGKLEwSF3d915LaDZ13lSWRiGmEEHqjQHQ8BfoG8V1DM9XZkxP4Qc6WJJ5KVaBS8fz9eaoCIxdJSUn+PB5PuhCLnsHB27dvDw72aK5vo1+gWKBCXqCSSo0yq1RIG+Q/LCWKQRSYm+iPWagqkKKvU01Cqr//AmkBXupCDWkP7gYifVSpyrjUAqkGKTipBuoeLRCliHKksVlSe3rGaB5l1HTx6LdS3sDMU6WFSfii85lLih6cffzYdf62n4WXV7q5exA3P4HxBplsQ4iuWrt/3+Vo7P7M9Uti8qMV0fmrYmJWGb2oR4Bc59/8EIPWLi1utt5Eri93XUbR9TQ/Px9pqjDOHI02jH5qIG3VQMPZqr9xU3MjX6FQaJorjEtFLhU6qToeDKnhxlON0ujJdAKKoiK8VG0vIH8QNlQ4Str61EypesbxndE1+r2bRUUTM9crHpw9eGn4SXOV+vgeeflKh0NuZc7TyHAuvXMW9A0y2IakOPf0l3/742+3nbn71cUqZXJysrK6qqp6EhdVyL/2ZLVafVIHdbKyvRpBuzJZrUQu0Rbo32rki/Z2pXISzEhDZXKNnlSNfk/DirwcualW19TUqFEi9IfUJGt4jUq9eLFKy6oFQqwefa1Sp16tHiXVMhqXWqOBGid1VKJSC63y6vZkpLE5UrWM+u7VdwaqE/2WGu2PiZnVx/Pk8SuDgrKcPDqyQ1ips0bIgY6gHb+PVcHxFALDT8wUNK1v2xmBfB5VBh36yG1e1iJ3dyd390VubpO4+B97dx4TdXoGcFwQgekw4DgTrkGgRK4y3McAcqgEA6kIaBDlUuQQi45XYFGOWLW4WVlCUcEICNqyotKta9waV9Yj27pt2pBGdk2abWqNbeI2/r9/NKllgFVu5jczWQbf7yfZxBAzjJv3ffI+z/MeeXmjf97oJp9s9OcGboafGv7oOm70B26G/xb+5PG/OPUjx3449TeN/Rq38V9o+OsLfVXDH+XTGD7UbeaHTnxTI/4nyGd+4pTv/Pabu8lN/KrTf8v3nzj2PSf/S2Z88kZ53YBLhLPjUokXE4I8EooLBjOJG1YsTXkkvbr36lBoXZCzo2Nw8JYtvq8lXZz5P8DS9/YUVpXrdoRzINZ6e3W2ntmpD5uG9no4M15hDV77xkT2PctQq9aw3rBeYdro5C/vHw8kbMBalhv9d7vqU7MVOcxO65Wj7fhX03B/BMMV1sF34Hzfl7t0RxLTmJ1WXN9QqMu7EgK3vGbAwjo2b5zadLk3NdszjDTFmvspidnJVQkxDFdYyXLjw572Z2s13kqWG1a9faOouTpl2IPxCiupbpxK2NO7NVtl6m3L+IEKHA2D+/SnghiwsIosxeNYX0p5iLeS20WtPFFRRBc0XtjMiIUVcKmL1DfVp+arvNi8Ye2dWO/KphIXhiwWn+O/I/V36mt1LDeWwNav1elXYusYs7CCJKWnsPhWss5dtoa7Ra2/FavtTmHBgcUviXrsHep6vHNdkmc4RdGlkKms37nHzZdxi8W0xaXuWFxnb7ImS8XJlKWRqSSqH+jZwoFF5OsSGH/07MX6Wp27px9bN5bIJg5ZyJkEMhUsYmUjLyGu2GmkssNb4UWSslTklqVWRToyfLE4bRSXutChE0+vJNeojyg4BruE2GbWXo6nxIFFCRquoUdjm3pbK9SZKiX7RJcUr6QXh90YxFiUoLGnat8H1Tr30aixPIq5uKQUZX+37RADGYsSNDJOa9TeijD6KEuPT/a3fWz/wg8gyNFxs7NL4OSgEaBVKDk5v0QDx9cEDlg8REw1FjDOH7exKZkWNNLYIrpkA8d3BA5YMmoMbDSEiElWrFhhCBjv/flHKatuFnxC0HgX+GV/ep8aBywXNw5tOjkaIiZJWeXk9JubBRk/X/lVRQhB410pjmZ9+j6BAxYzsOnartSVX618q8LOzm4sYHjKZDKCxjsivLT8V3KGOyzE1/XjF+oy2QyjAWO5vYODA5XQdyVwJB14n8ABS3FJSPmZNjfKYToCBoEDmJNH+xW1D9NKhMCxlsABS3EObar2DmNavfu8Stf+lC3nsNSCY6hXpyAtESFwNO/8NYEDFiqN5p1odWfBIYIw9+STrox4WKY0uuFphYqTJ0IEDu/aj/MY8bBMphJ7Ra3knKsIbL1rn3AfByxUGr1YSWlUDDk7Kr9x3cKYhyUWHPp6SqOCyG2ofNJD4IAlFhx7O6u91zCnxAgcZalXQ4MZ9LDEgoNerDD8tac/20vgAL1YSAocqu7PWHGAXiwksfesuHac5xFALxbSAofdquOsOEAvFlI4yEKcWHGAXiwkBo51L0ucGfYwuzRaTGlUIFEKzc2jEYx7mFsaTThYQ2lUqMDxz93bGfcwN1O5d1vtQ2lUnMCxWnduN6/Vw/zS6CVKoyJRdHyx+5cMfJhbGr1FaVSo4qgy+nZhDAMf5i04Ips4piIWn/yv+zwY+TC3F9vBgkMovMgE8xccnIsVjlfzrsNcOgrzFhxDvSw4BBOWmcHdgTBzwXGVBYdochvarnKTD8yrcDx8xYJDMMu13e9xIQfM4Jt3IoPd5qLxV3VfC+WUG0zHRRwiMpyrX0HggBmZSjsXcYjHQRbysoRTbjCnF1vrbctMEkxUouaLu+w5h8nq9L06GaVR4VYcPtG349hzDpMrHJF3WtdTGhVPUXb5fbaOwuQKR2G9xjONeSQcr+ZdvFcPUwX3FCevZ/OXgGy9ay/n8XosTDMwvC+EXqyI0srYOgqTFxzxJw5k+TCLBLRc281bbjBRzHBLhTaXWSQge1UFW0dhmgjXEy+yihyYRSIGDsOTTAQOmFbhaPmDipaKmBs5ZCFOvyNwwBQbD/8xq4g5JGjgsPvJjzczB2BCprLh89NlLDiEXXH890/OTAJI53HvQXQix9sErXEoNCO8rAIT8JiK0JTqkb8GMgsgfcERd72D423CCgvIuOHKLIDkBUfk6IKD3ebCStMOPmcjB0xacHDVqMDVUYXmzFGKHJBouw0LDrEDhzL6gZ4bOSBNkPzsbRYcQgvPKt/GjRyQmKgMn9nfQEtF7Opo8gmqo5BWGd17tTXJjwWHyHJ2VH7jyo0ckCJQ//CVjHs4BG+rpFZxsB5SOJ5/8kkmiYrY/D1rnEqcmQyQUOEYevyKvV+Ci1JoztGPhZQFR09xcnM4U0f4fuz1QvqxMF5M4eN1nlQ4RFeU/e39OmYDjBXcU7yz2YuJI3w/1j35JP1YGL/gMFxtzj0cwssta+sMDWI+wDibe4rXcrU5lvmr7FbRVoGx6vS3WHCAtgokcY7sal1PSwXLHJTq63EezAgYxUNfr2PTKJaNHXP7h5wZAWNst7lYnUlLBaNyGrZ2necZSBghSH72gw4FFQ6MVUcHnWyojsKoVizH6UF1FNK4hHYll3KcHlRHIUWgvlfDZnNQHYUUEaGdre4kKvi+Orpj6x3u8sFCfE/11etk/kwYjLNXDT7nyXos5MOEz9u42RxvixyKdWcSqI5ifsHxh8vzEx2YL3hTHY2+zhMJWIBHYUuFNofpgje8Ssu3UR3FvJwj7ySXFrHgwJTqaGcoFxZjPnVx9TpasZjM39PuIFvAMB8Xm6ZKDqlgiiilukDPFjDM04rtP1uQzpuPmFbkWL/rpBuzA3Ma2HTw0g5bZgqmSCtrq+rhgCzmTFR6bhzIVrL3C9OKHKoaJxu2gGHOVqz+1jptLhMF04ocCs253VRHMdeCo6Sp1p09o5hBqR65x+MqmF3whcZH0QpasZghLCDjBo+rYHYxhfsGyzgVi1mqo9r9z0MpcmDWROVYZ2tzEa1YzORAkQNzCJLfv5LOxeaYvciRPxIXyCTBLB2V4b90N7CFA3MVOYrj2cmB2RKVjCTuGcXslqvsDnInB2ZNVDpIVDB3Q7aAXAUkKpBmjfvOG3lcPIopXkeE3iFRwfwNWacNEUwVTObb30eigvlEJaZfL+T+QEwRc/dp2xG2fmEeRVncH4ipIiK7XnAoFvPi/kBMT1QMD6l4cigW8/H3tHt5lCIH3hpISNnqTaKC+a1OH/nFALMFbxOV4vJ8JfeaY6Eix38a+5kumBAkP3tboyJRwQJyGy49tyFXwQSP4TP7SVSwIHtF+gPuOseE7TadrUl+UcwLLCQsoJWDbhjnHN/4iMP0MAYH3fCmwNHf/riGW79gFA664U2B41lqphdnVGAMDrphnMvxrtZSOrEwTpp2cBUH3WC4hOMhZ9tgLA66YSJRaeESDhgvvPTADQ660YnltkBIkmu4lGM7M0fwTmxeYwGdWEjKVaIf0FcRvhMb+xGdWEhiyx4wChzDT9vcw0lUIAF7wOjEHuvKyFISNyCJUl0QS64icoHjAgUOSBeW2VrcE8T8ETZuyGM/4oFpmJKrvOQRWXHzFHn749MBPDANqRx88v/Wd4gZJGxDpSXV3Y9EBdJzlSOVFyNZcogpcLilLYCdXzCBvUxzq/C3zCEhExWbztZSGiowiV/W2r/LOSIrIMe8xkfRCuIGTDK27ZxcRcQCR/vva8py/s/eufc0maZhPAJCSac0tU23B6Y1hGNoi+VUClQU0k1JKAUJYluKB0Dq2nLIBCyFEoc1sAFssEQgwCjTCS4K2XEmEuJOVRIc2Y2m+8cmTCYxY0zW7OFLuG1Rx924swI9vIfr9xXe97lyXfd9P/eDEwD2RH5pgcnjwDmiHQ7ziwYBGipgz+VRSd+QshYHiWYsq619mBgFeycjWbyJrRx041Tw9aVP0YgFeydPX7ZSgulRWpHCd+H1JbDf8mjvs5prOEz04XUtc/FWrzEd/z7YT3lU2rT2FR6DpBG1TM/EaCau0oP9UddacbsFS4vp04hl+iYqjktR4AD7I7G0wFuMxyBpg9C/NXlcCr8B9kt6tXtdzsCJogds57wGk+YgHB1Z0bEnflxYoUlDpdE1htU9ICyknS2zlOTgUNFBN34oeozVPSA8VHETbH4MgdGioVL0d6zuAWEiqVkfsBwYAqM8jB4PVveAcFqOXNv9qzhYVPcbPb6gbsBvgHDRbFj7C9ZyUH2A40rnxOQIGrEgfNTL7N39WMtB+QGO8yNoxIIwksjh/XiyB5aDyiyrrRpDaQZ+dhBG4gYrDqlx1Y3CnFJaunisKvzqIJxkcHj//GkW78hSliOhm/R1+NNBmKscrQtbNWisUBU2f+pOrxGDXyD8VQ5D28osZjkoWt+Qu+6sSlJRGAURaKysPoPloKhuVFpMCdVpSfjLQfiRGrowy0HRuujKmngwFboBIlPlsHf3X3uNc0Y53eC7HollCuQUEJkqh7TpXy4mGiuUyylK1ybqoiBy1LXa/4EqB9UQVlpMq9W4EAsi2VjpWuFjFRiVyBb2z6+Jjc24EAsi2VjJHejE9lEqjW8sma1/06K+ASJLuqBv7gDuulGGFGbRCx2Pi/oGiCzxLK33Ie66UUc3PBOTZ1l1+LFBhFEYR7drlnHkKKMbFQIOyhsg4uQH66PYW0wh3cC+LxANqmQJNv8rnDroBgC7ILi3eF6JByGpUBe1QTdA9CwHV3xvqge3ZMmuGz9Mjd+AboAo1kc/s3f7McxB8vmN2e/uQjdANMmQ6jXzTgxzkJhsodO1aYdugOiGlWSV9yQTYYW8doPpnzetZkI3QHSJG1yYMCOskLgsuqXTtuJ6Cogyic0jupnLCCvkbcNO6pNxPQVEnXiWduMhwgp5xzcypbAbIBadlUBYQWeFrG1YjG+AWIWVtHL3zAWMgaENC8CuwkqyasPTg4OINiwAu6FO0vCyH09CkiumLKENC2JMUinvx+dfIKyQiCONHrRhQcwthyx3c4oJ5SALh5eVU4/RhgUxtxypErvN58CJJAeMnhrLo1W0YUHslSNtpO+2GtvASMGpWd+DM2Ijyhsg9mSUNrVZlKdwKolPIKbYGgyidOgGIAD1XPEjV2MKziXByRGqLffsgtJ6/LKAEKQbVx8XM2txNIkdU5jmP7YdM+KtNkAUEvMyb9g8uLRC6G5KoXzK5uZx0U0BRCqQChq2anBphcDdlCv31032crydAojlOTh6N9aBERf2rG/r9LQxDV1YQCzik6dNrlkUSAlJdqHTZWvQixRJ+FEBwVC09m5+x4RyENJumGfGVgWcKvylgHhhpVlgH/cwkVYIZzdeOU9O6LSteaiKAkKGlTRBxUQRWisE48hSzbp3YYSFbgogqudIy5zcxj4wYjVhl5WLW6enB5sz8H8CwiqHVK+b+zOWcxDIblxRW76tMIhgNwCxWyvavz534r4bMXh9uFC5eLRNLEFVFBC+tZJwz1IJ5SBIdeP+/EBDEzcdTVhA9LCSNyheW8FNWSI0U4Tyxe0zKgkHV9oACZRDIRObXL/GQrBYc4rpX/cGqxuwG4AcacXYuznFxzhHTEkRHpga10wbUd0ApPEczZmrd1AhjW1KueAbGrOXJyvQhAWkIam5OsFkUTsO4wTHBjbTP3OzTzuIG22AXMqR2qpqs6qzoBwx6aUInQ+faVQSjIoC8lVIuQVdVrXwBI5x1CdFr5aY572jZ/H6ASAjcdyCMmtNTw5OctQnRTtsGhX2bgCyKoeId/qpeakWZzmKMLKci0e7EsrRgwWkpU7U1PfCh/0c0SPna75vZqCiSZYHuwHIS1WpfnJikY8h0uhQW8j3W564pz/j1MNuADITzzlecculvIpDHXFeH17mmy22slwBiqKA9GRIM3vvrVQK0ZaNeE106b7lyelcPTcPE1+A/CTmGY+t/f5+D0qkEZ4vdy5unTk2wpViwBxQgvx0mfbMg85Z3HmLpGwoO+e8o3puKmQDUIWkOpHhom1KiZsrEZSNoYGLWlxnA9SivvS4/Z5F7YDpiJxsTEtYinz8aoBaJdI0o7jtducs+rKRk410tFIA9eKKgtt00eaSF+LqCmQDgF3FlVXTek0P4gpkA4BdxJXmwenT3VNOISbQwzO3AdkAtCBRITLcMA35Lgjx0Nu+YTucxUMDfZANQAOqpEZt380ZPx6X3R/ZV39VuRiQDVU1ZAPQo0bKkqg0zx4ir+zHbBSW1Dz/xHQ+IBu4lAJok1eSy0e9c51KIWbQ95hRlOaVZ2v2AuwFBLQiPm1wum9g3cxfxm6wvWQUz9BmV4KhtTQOsgHoZTrikjNVGltHTcky7szuqv36KpBRXpouivVcThWmRAH9TEe6qDyha+K3NT2okn4sJ64xnW8ySnJeFfb0AHpKRx7X0P6n7YcHUCX9GA6nvGpUf2X9tiyYUfDCEqAvSfVpMsOod6hYLsQs6f+dEG1sMT/vXmtQnUVGAXQnv55j1J4fGCp2OhBYfiGisIXyzuEHA129hkFWKjIKABmKTyXTfQNznpalaxgm/WBEYWeVVBYN3dQtaM/KpNhADECIxHRW9fR57+3fqRvRnP1QRFEX/WHbe1El4Jbm1SOjAPBOOhQsSUHFWvdP/i8cqJO+B4PtkPuGtzZ07TwJS5EBswHAf0lHaWtTb5ltvvOCg43Bjjdegy/vD0QUdzuvmsvBhCgAH5KOOqlMn+semCuqbER7NlQO9Q1bbWPBiMJRxCOiAPA/qJeKBKrzpm5Lp9zBZtA6oWSVqANeQ7MgDkYUPOQIwC8Sn86S8HqDtqNfzqen7zjBzgomFEt30GvIWIgoAHxUsUPKDdiOMZt12Ec/3xGyGsUdgYTi7g16DUxsAPCR5McrArZDvKC5OVR87gI/i32CZlbDpBsVoxwKwB5sB4clC5Y7blmHi9QlNNCOnarG8I7VyAwmFJRDAdg9SVUh3zHq3tj6spja2sFgO0JWY3vDvWM14pBQANif78jktetM3ZaQdjAoKxod71sNfHkA9us74jjcal6vO6AdRefkfEpVS98TDR2sBgDhJV4R0g6N6e7LlWCXlgrikZOyUwl9KxqwGgBESjvEds2YzdoRFI8sdkoOmY3G9cvq/xQNWA0AIqQdwYKHeFQXEg/15esktB47RkPc9vGrAAAgAElEQVTtGb50dByiAUCUCh4/i8f4IZJZj5BmvDEaG+7R7yEaAMRAPHLfWI/+lutB9agl7g6g7NqfNePQW6MhgmgAEAPxEIWsxzemu5+E1OMyAeUjm8HYkYyW/qKOnXCS+7YOmgjRACAG4pEY/856BNTj0INLHUXqgzvywWBkE8RkHAxJxoNDd026z7+H0QCAYNYjt/1z3dh4d0g+Lh+InX68MxkHA8Hk0tOjIcloz32rGTAaABDJeiTvyMdvQvJx9On7+lHLiLiCBOSCwXhjMg60nAuajH+zc+8/Te93HMctvVFOC70QFcplMxTFctEy7CBaOBISzA4ILkcPhHSzUBR0DF084BmSsjMh0cMJepAZ7Y6Lyc6OKEZdYnLwHD1e8MSQLEtgS4wnix6zM87+g/ML2/f7LZSLRU+1FFqfj1+syeH46ev76Yv35+sXW4WDSZd+xFcZGjoDWIZUc+pjRD/THy5nk2xWg4SuQ6SymKkLmbLJ1xja9f21V7uapxpjqjL4MVdg2dfHTH9cre1fr3XETTWIUjm3Q6ZkvfifOP3RjqysLP8X+MtCppRdfyDWxWicwzgkNYZbMWfIoDKASKmPuf2hcI/7GmRIa5zqkAc/vi4TW0Tiadq4KunT3t7eEycSBCfmvehNan/j7Y05p5pyxKYQvkwpa3pwWCoLsS3ufCvWhX7crVAwZABR1B/+BlFMd8i36+9ILSL6ZnT40cGCo28JPnMJjs57cXTTzYO/e/SXtrbh0W/EqtBqh+4Mibc89eN6oS38daHRMGQAUdQfsxpkVocILaIXjeu9fU9vDw7eu3dvsF8w78Xju7e++/W7jX3FPeJ/KlXFnLLw14WaxgCitEHmdIhmukpq3txVNiCwm812u33uC/tA4vbdaTX12dmm5JmvmSkL6gJ4vTpk+oMvr0oxFElSRfNeFBnSU3KrqkvllllfRlkAWLFCesbCJpn3YgWPXwAAAAAAAAAAAAAAAAAAAAAAAAAAAAAAAAAAAAAAAAAAAAAAAAAAAAAAAAAAAAAAAAAAAAAAAAAAAAAAAAAAAAAAAAAAAAAAAAAAAAAAAAAAAAAAAAAAACxbKrVERRLhC5u0EeEbOdeg00h0hlx28yKHXTUdtpi2hUAQqTs5Q5eWaLa6x/VuqzkxTZdBdSwieXrHLrNVMaIfl9LWUNSISOoY3TZ741i/0REX52g9fmyfPU3HZl60ko7R7L708PGQlLaxf+zjgY48wkYE7uS8+rJ9vz1zw+WUCTyFBZ3n9g101MlJZlHSXlMzsOX4EZdMKabtdP39zNih1ek0ByJu3kjpsD58simnfV18ZWxsZfy69pzPO897M9ewmReBxfCm+/zZv50+IYYtpX39yN2+bgM3OhBhqrJLxr6+nhQ/6RefdH3n/eLMNWrCCTW5obvvg53vJWXNpJ2wquA/fZsNDHiIrG+BusSHF5tOTM7xztsn7/dkpjBzhDrsdKE3Tp5OmBN27IFNH/R1pzNzIJIOKnnd73Ye7p2cJ/7PBZ8oOmLIJ7Qy0nrunzwQOy/s2AMF971pGcSDyFGd7b7fkjT5jPg/HrldpuO7YEiVmszHbp6OfSbsytM3j5lNpQSESKEybG94f+WzW1k4ejs7G9NySSiUUrq3nM3ZECjsnLNbuvMICBEzcNRfmnirdzKQ3xecz0/l/mgI2VIHrrWsDRj22pZrdh1hI1LUVfz361U7Au7lhEKHt57xOZQnlWzvBeeGgGFvkO0t7qgmIkQGddHAtaP/DriVJ3f89HL5as4qIT2pPH1/ZeCwJw/8rKEihYgQIcOzrmSiMDbwVv5f+5++255ORqFraUPiuUD3oSU/abmVX8RZBRGylzVWozJ+gb386dHBMvZyCFtaYz5emLBA2O9snTDrbISECCmO7x3KyoX2cuFECXs5pC2tXbCl47dqrRpaGpGyl/Vxslj2cpjCVmgXbOlKJWEjOoqDvRzy4jAqFwo7VmlUEDaioThilVr2ckjDbn5ucTQTNigOMHGA4gDFAVAcHFUAiiPyJw4HYYPiQNBHFSYOUBwI+qhC2KA4EGjicFAcoDgQ0omDowqiozhkQxRHGO9xEDaipDjusJcpDoCJg6MKwD2OaJo4eI4DFAeCP6owcYDiQNBHFcIGxYFAEwfPcYDiQGgnDo4qoDgQ9D0OwgbFAYoDFAc4qgAUx/KbOHiOA1FSHDw5GtajChMHoqQ4+FmVcB5VCBtMHAg0cfAcB7jHgdBOHBxVQHEg6HschA2KAxQHKA5wVAEojuU3cfAcBygOBH9UYeIAxYGgjyqEDYoDgSYOnuMAxYHQThwcVRAdxcGTo2G9x0HYiJLi4GdVKA6AiYOjCsA9jqiaOHiOAxQHgj+qMHGA4kDQRxXCBsWBQBMHz3GA4kBoJw6OKqA4EPQ9DsIGxQGKAxQHOKoAFMfymzh4jgNRUhw8ORrWowoTB6KkOPhZlXAeVQgbTBwINHHwHAeWFZVapFJZLHK53GIRf7tc73E8u1SbKmJSVb1acSzJzVHfu1CrFvH/7acK1zV59aWqbbYVr3VRq1XyXINOI0hONgmys00m4Tc6Q0pVqeVF/RHW4lAttNRUQ161XGVTR0KquXLVy348luKvYy1T70Jauiqkn19/QrP48lms/rD5/0Txz3mZfTdnrampRWvycqstatvrVxqlQiDJ2ZmJZqtCoRhxu71eb09Pl1ehsJoTu2uyTZqilCqLbRkUh7RSzTNL9QpLVZSYE3f/xpSsE9e6DDK1PTfVzOxkcduWqiOhONQxujTxXYzo3cLS03QZqtBdy5mLKWj2/TKdjy49o1qlDn0HmrYlmkf04743U/UD3sxUZfiX6tb7uK3WErN5IH9XxbZ6k66oTqi712vQEAMZ6SqvvTKk1Rodo8PDw21tbcMXjNqhK7eeNhZ7S/J31yQbUkpVS1kc0kaTLl1zoKVqJ+4ONjR6Fb61CrPHEqYqr84zpGqek2pteVez9PF4ifII+1GlNL2m7OpY/5DREedoPX5snz1N98pTx/Sus1rdXVdr+9cLEQkhGY3iL0Pr+2uvdum/L7HvWl2vMQjlEcIRJ1foQHf5l/u/iotzGPvH+so66iwvXqpUGSN6/8WM83EYtRNX+u8O/qOhvPhQSdn2NFNRSnX0H1xs/kh6yo8dd7TtKTjsVCqVMk9OTpMox6N0ujYdfNR2oXWw4efWxDfrk4vqquRLUhzTG01caesXgZbqcX7WsvPRXuOEsFZFfkW9rq5qaepfVVWnq6/It1u9C6Z6uGBP2xfCZ7C8Z6o85LZgiiOsz3Goc5MrPq49c8PlVMpkMk9hQee5fQMddfJXu5jiN/1fiR9Do3gxXc4m5Ywmp0vIZ9TR+njsr10l+ZvrdSmlIToGyOvqyxrP//PyyUKP8GacrhtPbl/anFr9nG9WMdJSx7uEa/nVqP9i+nmch12uTTf/dblT+3jwYeOhsooOXV1pVB9aVLnpvkg+/HL/3j0FhZ5TK9cmxFfGirIkwov4hKRVG095trbs/ENr7S/7FANiLtW28BaHbWqjCaUhrVQZcKmVGxKS3tjY5CkU1zrYUGyvqNEYYsLcHWpLbnpyzXZ739Nbj1ufk+ralac8ysKCPXv3S+WxzZT+w7+Hh/U5DnW1Ic3+i9aP3mtfJ76Lyvh17Tmfd573Zq5RvdLFdAul8eSi+DGcnZBPpS8f4XP90cW9nwz+n7ur/2kqzcKLMC1Nh94pJbSlUDqEShlaaKFQCkKRBqOZYikNtkjLIiCU8NkQHL7aqIO4ESG21UpEPgYDwkDUaUSjoqIyErMETNxoTExkx5mJ6/66P+wvW/e9F9FRW7ht7+0uvH8A97nn4znPOe+5paze3s3PiJVj0H8Sqdtb9ptTpenIE8HLGNtNdYfCaIluKgBSrFp2P1kJ/e7TuHuPVai1iJnkIkFA2zHbABJ4B/jR/w/NMk60EQskW8tPsEmOWqUC2CDxbmKREx8MicmCtobvzU2OSjViF4L/iIOLEBzwXg9IxDYE6V6e0y1WihZglZZcMMw3qllKNkkn9590BO1zBFuTc6py3LCc1lZas55VeUh6CNoQ8uhr8WBy4M89DkIsX6PuuK4wCj88gsK8tm++nhET6FW1Qlijb27hh9RyxJfBwa6dyQsOFlqY4TXlDVN/ny87n7eTn5HkqysJOvZ5h6m9FSp8/xiof3byjZ22zWWH1qlhgT6qSZ9WXnpm/bgDeCnaCWN4bsm3Bkdmi7IiI5G7VWlDMvTk/qpJWqFg54YnHmgPQemxfYaOzBYNsAvBP8RBSCQhBPcaQBWgQwpjFdMFSxfM48+rWAdoOj91nUj7HPTT8xXz8rF2I9M9Z/zRNlArTB76ptXJQSARFXH4bY9DlbE9ofJ2qkhc+NFDoKK0K0MMzzUHF3bmwd1zC5eQoo/Gl8FARn4x+/3tjlfH87p9dWVs8bTjTjj0cay0tpkrU0hyFyPU/OnnVwzVaYg+iUcTd85CodgYUDK1OCML66TKtyRt2Gsd5x6X70JtklUjCyfG2hG7pHxcIHEjjsCYTjtCcG0oA+3DU3vJonLbuQeZQfn+oY7AmGIA9cqArVxEnqB4ghSKS0cmBxJGBJrrQb8NR7mR/LCq+Wppl/DTp1Ce3XrQUlHg4WxbR9purx19usoahegNRBHTcxuqJx2ZQUp+jA/zAzlNcvXF4Gcvw5QaspTUjwQCAb5GOvhq3ISookJP4s5J+S1dse/2qEwZEbu1xqSwUey1HeZZAVPrmUne2+Uvk6NVdlAgieiIw+vNUSA3dtQ/+dfjco+9h5y9vV2CEv1pON6iVbjLjXdQB42WvR4jLYSYgtmLw1kHw9hR27gbEodfrmOBgGIENU7ODvZyXERBv+l5GNWD54AKXpHP6hs2p+ame+5MjpBJL23Qr4AmALjS2/2XmPyy6+3Q5389TtE0VFzwR6wgQ6pGs6uP0S3Bnoedk2ehl+57WiZp1m2hy1lYT8O00SBiUpzeHZ5lrNRq7qjKY2eszYCIpL/9gvm3KjBUSd+Vx4/E3hDcWj8+qJhaAdRB03FxJmNJX8+tr1u18V4jrWm49HJUbS+mbnAb5B/iAFovr+/hlNQIuXyOtq0piIZ+yqHKKA6rn3l4HVQryDtncoStg0tTi42AOqjeCUg57eeTCrGrgCab7qVErcUHd1sUO6+q41yqtH+C523cQcYbA3frGdStMuggglwERvGFNlbt0tqeah5Vg0ZuNciJEV/9chhbxQFK+B5J7fB1xTOtL0idQnH40lRdZgIjJBEv/kcqVO3w2SWyT1ApzHTpiHn/kKZi/czwR6uCCKh75tnwXncaKb26b08iWhKKpWlk90KXl0RxvoQd73L6jerFmWklP9KbN4zs/vPRcJe8DkmzZRXvNKmKWmwHtJEGGI7jA9ZCschWp+6mBm4J2iigNgOjmIFRfKINJB9bA0Ym/3FcU4E0AYSIg389jOWMg6iiNksODZ+drWHyfIY6UaSYetiX1xmDixfhCmVXz13EAGohZCy1hc7UK/lJBK8VBxZ7HMD69qw6U0Cce6UelzoXRkVpoBBGQmX2nVJjr9BHA/F6ixTLr98ksL1ISC5JMj/7m+u/S16uzNchFJdIUw7tN6e2Y5Ah/daTp7qjt4DmCNTxNbJRTIyC0HSX9ELom2klLTbwT0TaVzcF8dgRB3wLCKDO1sRhApU3ET57dvT8DhIOax2rFcqcKsDGqtox6XLomwRGhsrrVsVnxRGYRFPKTgysL6Ag6cJBVL2KnFqcVzU+JR2DMHFlL7nthUOWT/L4urOgWW0QuPGRuMRhj0oG5SqDnZMZagtoFWIANdhoXTzPjtz0cmNbxIGWmdsj2BgFORZjm+l0WQ47I1BOO3KzBjviUGUwEmayRzBiOARD3LV9i1l2zEUHIRazCrXWy1vIbVMPqjS0WIKXrYqvikNFZeeU3be1ry+gCtN/2I2iVyEiBjrXMDjBwchAhVrRyMs+SbOn151J+b9eMLqj69ynP0dwk0G5qnLoFdhQHPBF/50TLJpqc/NGciI/JavuhbQLcmJ3OBb6kt6h1tBiKo5jRxzERJpG7fIW0KdSTl4amAOiA9NJByGpmNWIVYV6d95ytINpk5U5bHeZge8eB8h0jdqhv2HcIFDeMtP2b9yrcGOAgZpsAUwsw05oXLo+J1PSIj2qAtSwubRWd1Y7fPMIP5HKRpZWMKM4p1Ckz9yh29S8wY1pzpkxlBRZOE5MD0Usst6uZDG6Zd+dwYg44FirdHML6JPIZR6+c3J3XkUSdswRSGW0XMWuQn2wqlGqd8iUEa47K1yHo7DcaMy2frry5YI4LOUrkhDCRtKxu/4uMJAWa1cKrAuZLDbVg2qeHJX34zF3o9540UX1Hr5SPQzKFQVDoMySYRZpM89HEQdO5TKFTsyPsEuqvzvU0njpDAcT4oChXtVLjRD2UCHy0tkTLQzMJt2qqB2ycZPgMgdzpJwJ0cjTV5KKJLl/r2O5SXyNbE6vQCP2NiYO0MdpautsIhwMJBxT6IfV6/RzLohDcrrcXVBxii5lsiRZC1aMyxXlsEFdsXl7lTUH9jrxOCDIbV8OP7XRnRgQxxrUCVyg8pjtpnl4sEbAxqphhxatu7S4QKWMKQbuAZKT+5E44Nkgq/KltUaMJnuYDXfXb1XgPq5ysoGOQ7UC/dzlMyP3G1mdOrTvmhySs1Lu1le77sz/e86wNEbBGKfx28YdSZt2LBrZiZsDV+mfrkj9z7VeDIgDd6hQkXUBtCs630VHIJIWJUYKPkDfFjIDTONqZUiB31oVbuS72SA669OXX3Wvd2XAjd4O+jhpK16+FD6TDlxt2YP2i5nkENbpcrdYuqQv/mmSxvGwBikuGU7J2KSb5wQdG1cHwoNHy7Mu93IGPXEQ8YdKGVsa2D/t9UfhH6yKc1rAJDeYlp3l4pNvfPY4VjfMkdngWzTo4gUX1cXy9eY/O0Efh5N0XBUdYoHpAertTKA4Tj8Sul+6aK/ZZcEhM6Q9LNLm/HUOQjSj/keTAD8HrvnRPXGg3RwFvDGNO1S4XQHh5iNzEKJ3Hsc1Ld6RnKHMTivwxx7H2oY56qssYW72enscqqgDp06OhGtxNZA2/FaPDOV2JpGU8Psj9/KQA0EcPFz4xZcJm/NH5wFvHH9gw9mBG1xno/xWhRDDqPcHVKg/rWfIN+aAyynuaQGqOlN69teUCDnuexzcgrUNc9TZwywZtocQ3d6oR2gOLcySKTgbiAJvZx6IUqEijqDfH+31d+zv3az/xRAk45FxG13o/J8SByrFQYjZXt9zK9wPUClk27jMF+bYFgLKqRX3tAB1UCw17M6PJuK8xwFvv26wYf4Zp4UfLXM/9kvk55VNlozhn6fBRuvCIQ2pAJXi+ObrYH/HPuXw602pOABvyB5a6RTnf9m7+p8msyxsC75tU2in1iAFLR1SoCxQQKhYsCISNpCU77BAgQUGUQgU6BCZDkrjzLiSQIdgO7RkQEAS8APMzBKRTED8QCFGUveHDcaMCTPJ7ia72b9h3fe2Rfnqe+99WyrNzPsHtCfnnvucj3vOeT4qcCChLhB10jzoFVF5r03LbiAHU3g4m3SnXnFfUWpjejlzT4ujjuZOzBG9f6qNz2NdlTjkwpT/WNX6aG8Y10TFy+qkXTd47Yg4PgJw8JW9oYGET+KGVzyj+8BBxhtfLZtee0lUHtdkpI0cfoGH3zSQ7vSdNyQt0i0+zgqM2MPnWNDyldYG6zDf9l1vnKvJDXfxPwXCrNm5syKJV44yWqduaE0SFuxP4IhS9CCOAv6OG7SAg8SN7mUviuoGchCC2uyGL0UyL0macMVwXizfM+CIiCfDjbuY3a9Fos6391OELgKOTE7SOasy2VtHWRSlNLTu3P23L4Cj6GQV+vKB33EDHzhY4cHaSa+KSiIHvWyF1Gr/eoXIe5LqtzstT6YqYBy09dA83nxGgs5mfRJTLnURkKWWVjcovaggSZSyobo01W8fAsf1s1jrjvbH5xcePNK8D3ADATiOx0cOL817txRDIsfkCP6qbjsaKyZk3hNUBtJk1p70cUQctQ+04Y0TykRxi+vVFlczPxGC2o6X6ijJ/7yJHOqXHbWQfo6PARzRg11PDof5WG2UiI/U9iqwcUPG3vLJvAEcrKPlF2cWj3hZVN5rc682EnMtpDOK43tRVN7B089DiL3o4wDhxrmHJrxwgw+mjLtdtu0TgmtkQKbDXg8oc8foinQV6/3XBIRXgGPbWVKJm2xrnr5c4GMBh7R8emkeDzfArv6BK4Co6sGnDx4wGAcZVwZQGQncAQ5mbOj9Lrx32M2ifvqAcZCOqDzuiaXpOqwMlCWITMctxWzRKuMgtqjRjV98tSXc9VAfh188CDem8MZBZcmdi6sqS3mYq5H/8Ixio2kC6z0l2sm/5ORxYzhoj/B+YmLBWJxBmXh6BDgcZ8n4cEMOMhzi7gqU1zutfbVhPvamUhiS8siM4cSLyMNrBMx7Dw8FBNx7+oen957eO3TaznkHNsRL9hA4CjlJs1OJ6E5c4iQy2hCVlDVgk6jozo432KXJwpl6Zklz8EoxO7UagC2qJOjn8+0FHu/jKKSzfYI/WOHYpMZy2fs70qzQsbEUNGBnxHx52s4bu6GePw9gHSVbZ2qeLmfuJXAUbZgdkNR5QwCL7Msvvt6V74HE2LdPsnxtqJ5Iza+pSkxAv4onlScuNEzauZD933+AZRewLp5Qlrix4QoCHIQgv9qgRJ7cTRCVAFGbe1yJehId5vidQ9m1GEv+mbH+d9FLMUVQraKJGvTNP4LlHi6OEnIh/vYJmajzT8Zsqt2tzDp/MszNwzS7AMDB/cnzTerR/BiAeZTswa4eC9UtdQ84NkQFZvdeUvDV//2TbsBLd2I7dpRx1dYnMXU+9qTCqgwufqhGnKTggatY1aZxMCCHcDZ9TkZqTVtVC/2tz9SdoyypuP+pGrEID5gZWmCiYsCcyGZMz0Euc/gFJr3pCuKhWtofvzzhEVGPfJO9DTjcfY4l5IGRoWnrmNsnEnS2ofHhaxTb4nEU5DC7m2vj2d0xWzVkV08M7lECJ5BLkRe4AxwfRN1xlg5x6x3CvseOIr6I4emtUV755O3a3hadBE0pjQsX2jR9F5206QRr00c4SeIv9gGeiRJ6C+CoZ1UKYs88MuuQ6mFgXfmrXx/BRNW0XVhoRLM32YTp2UVUr3A8vLbv+xdI7ZV8OxY/1ag8IGrRLqmKe8ABBto6nt1UY4Ubkh8SzW0qy2UKfhoMBZFml2j3APXgJm7VkF09IXb9jK993YJ4lKQTWOmneCWjDxybRd1xlkBcO6E9OEwHdiSA6MRkeDxcy5H7WoFDGHrfPMhGVIphlLyKOUIBc3dOX1YmqZjglPM9bVULDDp9T5QRRyEna3YKKadii4JsU6uzI0mR1KKCMxy9hQgdvJNdGksI2tpbabm2uUKPFNJvYHEOoqhUWmUnNnTXZXouVSGYnFptj6ElDqu6UTahrrqvzaXcEy8v1/YiKYjMN0mzu+RUEHkTd6rHeR3r+0atiCRAMq6pmeKVjC5w8DaL6or12k/uOMzxtZuKz158pri58rjJskd0HHv4RaSWnkMqcLD1QCkdKeRVpOYs9QN8yqSR/0yHc4iqxgEKHLfOIhQ4ZMk3/jL1i50HXAoRFcBcE2lvSDwnZZ1z1flIZQ47GnNRfpJrs46q/IGlydFEpdQq/2xbDAfjORbSxwEIa1Rt5s4oPtbtYZjbWkPbwzI9oSC+KE6BYnZO/QD+MD1C3YTPNS9NX5Z7FDhIH0DekKaUYNhZOrGj/q+a7/71HYhOxD4Xbhw4EC/uf6hEKHB8G7QwRJ5fTiAC0zFB6iXyv9mriwzsMikVcMjF6Wu2KJTLqK76pSYmPzYMgXTYz0FzOWdD6bdIVq+li6Uonea5NXNx0B98J4tiLK6q4Fj8QdSUvl6qSZGolvtZqcc91MeRCTjVxg02rJWuMtHAgkEzki+k5DLxQ3RXkts37N4KyeycR2kF8RF0Noh3pOuRxdVIGS3gKHutnrvUBGiSUYIHB3aEngm1+wzfY2IqjA2dMV2FxqEJeuXny33g/NCQ8bgfk3NqePx7MnKUeQo4IjiW8bEJ6KubTE86vLQzp4RhiFzlhJS8jyTKIUxuSSbGZlDILwrr6n9EqOFeP1lhHe8ms1vUMNVOtthjdQly7BtTaVtX9NHv42Axj0XGnDs9Fod1gnyubW60KasdslNciuau+BPqqZkOdLMDR2npG735kw6OSWWM7XM9bgGHTNRpnuxLEQeir0QG5RkOKIT44NYvQgCQHxoWlA223JmNyeDIMXhtQFWNhH/11TwPAcfRjD5rZ8I7aLhRYX2izRVWZqK/nIL7ODw+BF8/+46XWJWWD90/R6Qe/vfn0L0msqizr57hkk2SWrWoXAYdyRXLMVtxjXYfB1EZm9Q0M4XbYX5l0agiLzozApLJnUFwVzJRHJnzxATjmB0JHZGhNetjCC0nopZLKS7eZPGBA6ScGi02Ew9x3Ec56uXi4tNQ5Af7GpubSoVH8QIqO4F89Qpe76Rr4CiM9V9eiELA/WbyMoZhMneB+5i9piiBBuW31YdG2mELHY4GN92BNpvwJmy3Zv0zcOmtCTKU02qG1FfZu9VgrH2nwg/gRByuUpXC1GD/N79icqoBSgkkHqvK/DS4u8q7qp4DOY8U1+yE+ekzCBteeY1AW4QngAOYXa/KByuctAOOwCwy+ofYRp7upznNdEZqJg0S+ZBczGWSLoEDxEZTQWyo5Q71aK8FyvFFZXJy+ye7oOmKZMKsyToG9afPFDpY8lfyt7bqrLp4/OwWgFz1yi4gB159UraNjNN7jgUDbeeX3r7Q41U37B3mCLenIPbiqho2Ss87olhXWcoF+EwjmQLxGZSd8iJbr3b3+igmcDgbvzsAACAASURBVDjMbk/YhvdrwJHTYYBF/zzuwnoN5ZM85Rlirq92CRzydjI2gnhxHlexkk2XaB4wrWmGbFwYNlGkxhsdCvmtFwaorfZdwo35pZF8jpxOemsHueXF7dxFZUfGnl28zDzgNnCwClNzyJvXEoS1yRuEG2hc3SxB6eyrQQhC84PmJ4tp0EXb/0AqLO1YVZRALFvGNffsXh/FA448rsKY/RsKN8i7wkkZXRDBLqPJWJwbQve5yEmYgVxgcwUc9tgIkhUDUftzaeM+EV+XpVoxwYYn9IpLFsoFb4XAn/4AiTeCzGBZfybNg8sUXBvu2TrhzgPUKt07OltppCqAMgUMtEE99o5wA/H2yNvTHyohoHS78+1dNxRUeOxU/+QYrC/VXh+VugscbJ1bZueLiUr4qeo5iGvMA9uvMmgfoIOia7bBpot2Dzik4vMGBh8uamQYfdwn5JzafiNs7Cqh01AspqhyEGH5s29LZJAwfH5JK66kb2pEZXlo6x1TnP46L4/NzuPJ9HELhkfTwTv2OWD3cWyiTMGsDaKFG0g+QCJSVmn8xW6siCbjx+6Zrht8aH10VyeAAxxsncKYHhz22wk3yFTzshb2aAjQlNSKO2BKyIWHVesViMjhonOUCLRcUugRRP0/edf+01SWxyvFlkraWtsAbaGthgpsH7Q8LOALIWwgaW1LozwEQXkIU55jdBCFOK6PCQrxjRGxiJGBgXUdsiwhIjrjKGucMJOdHc1mzRjHrJns/gOzMxPce6vZhLb3e++hp2XGnp9J7+E8Pt/P9/N9HP+eQGGLtpw+NU1T6C1NvwdRDru25rkZ9qkET9244U/TFrVeK3GMXx6YWr6MGIcz0ztdTsKfZLPQgMOLcfz/yRQkupGGog2GFdDZgMQ2c121qSrWnwXiKAsaP+kwwsRGYOx0+qIcCMCRdKPp1OnjSk4I4QZXWfTvjugkWBed9vsykg8EWJ3Pd7SpmAGHz1qVeIXzcruBbgP9nypHdNzxfPooyBcEul4ndRYYt8w68T7swBO4cb6xoMzPZk82fozJ2dUw+/33Kza1nOxymhS+AjRoeRyLeDJl/k39PHNtkN4GqKRzdypSxX4mU7ofJXxWL1wM5WAOHKrWHbMOmrZA75zCIQ7/fDeIyIlH8aBpbpwlf4RZUatvxsHh0R22RPcG+j9VtcjiXDEnpU0AoKQcuWJNA0w4tj79+vzVtWv8bhKXG89TFMkfrFy5skYjl1BkHiHlcSziyRTiRxKWdTQgpKPoFbU0NiAtc6SC0fMnNIYxtiT83lf9hkVQDubAIZ3a5NwlUocSbrD0MT2j0YVwvOp5LRY0zeWTPWmZxFZ8axz0h63N/Hi/BccGsrOsG+vgJgMC3WXqwEryhvV7oiAaZ4j++tZVv6nRm2UlUw/dgy+isM8I4qi7h3lpJ2KFUXfUdOdnY8cZp6Oo+XkH14HALNT1NUv4dv+XJyW+ROM6Fx2BbgQYA0d3zseV1jh2SOEGh2862ATuYHdm3UZLFhY0tfNSq8uNxYsEDk5c6uDZNngD6yowbaCdJ6kuh+tMpOmDEpHvQKpaJv9iRxrIbZtOYsIN99K8LdemNLuMw7HuHuaoT6YIWjNHH/bkVZUxXvqwvbWd7ZCAEhHdcZfyNQVE5IhVNA6lgx0jfBsBpsBhMI5O5MnsIYUbbiteL6BZlVR+Lp6v2cTywQEGnTR8Aoe9avPITugqC/qJqfKwTdVU2rENOjbCzCdUbyjrC3omdVCSfdrUCkcQtTSmwEEWtDnGEZ9MUQ3rzo40h8cgZL9yRZLPBtpg93horARTLyyyq+kI/GqLNL1LokxZHHBEXDp3N1trCy3c4ColpaBskHhjYBzjquj3nvhy7l+LA4411ont0dABPnrWpdGG4Zpq/KEx2E4VZtzM9/10TopIMnhWCiV+6SZfWrOC5xMzc1W4NrKgDbmpaOvUNZejSItSimDXNq7KgcBJan7uiCnDBazqrKLKvvZi0Ai07PMyAsyAgySPjSV6bmgBh1oc3gLuoLuEHF8XxBSlpWKyvngxwKGWZcN6Y9rUrEMRj20DOWUxhJ2CZI6E9Hu+H+tjyx48gVZVdeP2XZMsiD4xozwObqxW4kTvYa4beFKZrchCYurJu5qfRaoggWOywoIxSGEXy78B0zl8vp/GDDiGzSsIjEsJLdwgPJWe8oxCeAetOMNMbN7FUvrWLb6AI4yk/wZIGu+rtIowAj/Z3GgUKsISZs769lX0MRtvQqs6bG6hr5ELHnAsW/UeP4XFVio0yAVthhvmya7NFnE8Egqy+fJxSAIiS4Eu4vI53+zIoX33wcKhhHWDXkaAEXAIdTdfWkMrEMtyV34PDkghGjYzaJLh3EGWraTx5JwUHTgI+l8K0f956bqDcsxTJcu+gdOm2nakJ0bvU3B2AYLzawOjqvxguirhMruNf/zEOGJBm2rYODBbadqLWoJGqlWQNEoCawnWZt+cZJI+nkETrBgBR8K067/iEBNGWaxcbc2mTOCoDE89OYF3B8kM955JowAZONiEUwVNtXjZ5VoF5s7ysQXwaZNOu3ylcugVzk6dALCn6ePZwT1rtHkcVTKFqefLASNaQdsNc/n4ZqssHhUDky3V1wG1Stg/2owbWAkTCZbUFWZc8xKsmACHQNe7f60+1HCDFbulYs82amq6Naq80qLE7L6xeSaaEL5P4NAXgE5VYuS50tQ4zIyRbMXzXVQhcGo6nT7ASiTpAgTn18PmTYw6DwaPcbxwpF50uHrnWtHa9bSfa1kvV6BXMHHiLoKeirRpSIMdWG1VY2ARvw9fhQlwEDwXLnZ8Nz0VUerdJmAx03Y8zBbn4v5qGG0el4/MUS6NpzJsbmg8hB357VVXZiFB1utZePdU+fKGA9TcqDjjyF+xajH+ahyJuskffyytm65H6w7YOtfnbrCD/p/kak+M7KQ+AAYCjmPwA+say/ry/ggUX4UBcBjaCZ4bFmq4QdD/fRD9T4oqr1jYuxIPXDEoVfOqVVHLNCeBqaouHWm24H/kmyOyVo8CBFd4oGHhs/Bv70Wdjvq8/Wnu1INgO8UgcMxHr7t8+dxOpI7SgjfNrhbTYIfFit9S8Ydoap7bRhhxHn4FyC7WDDUloPgqDICDtrvCuxpTcU72J0JWPBw/4XAXx9NQDm/GYStx9OqSAHuxqSYQU7Vrx1oAlSNCV3dC6/lZ/dr8PVHUDD/jyEtLGTfYwAG4KvPd7Zk5rcVIXkr9dGdXo4VnW9T9Jly5dW1QFqdTEQjVoGxDRZ8xAgiue7JHeuBwE474kMMNgr1NfEQdNUjctqfZuiYQHhJJOaRoGkfsrurrkYCHervLd0qFv0NknfgI+G7UnnwvaQyWOM6YT9Vog63Cw4xjXthtQG0q6tq/2B5rdK5cQqCMOFucff9YGgJ7pAcOaWgSDk5WnmsHdYbTmcyWfYE54vq1+/uMW1GAIyUr9c+AokpYqasBsVIsG5nnbkAROWjuReT26iJlyq8LOAiijkI3Ds+c6vFdvs9Y4qB25ZL6J3vWxgZkFcos60czEpmzR1rg2GrsC8WQCkstq5nNob4UrdcnrMrAfJgnHzqWhgIcHFn2LeA2SpvGTYFBfgJcu5raUEQOWOIQHK5zHAp62B92VZAG4x7mgNmAXLnuqYfZvMB4cu6I/hmAPX66EAVogWPYPC7nqUMPOOxVpz+m1g0iltc5SgJ0xGN3rR+F+up5AYe9anMntX+q2lbuMxMLDzvqKe9HMFM09yJt2nWRzw0+cAB5HPNI6gbTHuagxJFOLVJempmwijweacYzyFTgb2cuvaYOyJYuZI+0wBH5rHnXmtDDDVb8hsr3qfNwuue+MAXKf7Nr90HY7w0c+i0bj0ShlShhM1Oak7uFzM0UfC9U0XvWH09mBR848DAOVauZcVNRaoVLDsXHMp41S7T8tw1GsA5+nFbS/Oz3AHsckvM5CMBhyHnRWGUPPdzgilLHgSyO1o+aLWWB+raoaGKmFQE4lNZvZ9rmGdsKnKukLPrHOeDT6R6fhu8FAXFj2twlAI5wLMDRndNbbfLzBQAu78HscsrQ7+tLt3++Gi7P1mg04TgH8XvZ8vCrP9+mZhyCnZv+vuDQ0QGHtOnuwid6Q2Sk8OU/UB/xJGOvo8QWqG+HwYFgT+BIycr75NgwUmkjPna0t7YvSkVtpm55milNC/W98MKZ3xhwHGto3Bvrn6fFka18fJhaGT/66JdXr86ff/Xqd3jHmx/95RG1Ddh6+PFKGQLjUEWPboyJDT3cYHHA00QQNw0vYJEmtVgDpZ55AQc/+4fM4qXwVMip7vv8LwJqM/VHjYeM+94d6nsRdS1foV8K4MDjqnQf+I/f0Su29sMPLgD6VvdPq3cfePTo0Wq8g/jFA7tX/wSkASde+OBDLZs5cBhyVi0Fe1z6wdaeqKPeQTf9D5yKlyW5C6RyeAIHjHGB9FTIuMrF+9Rsx6tFOHgvInQjV8TqpQAOPIxD9bSjNI/vH0bD4jH5EaHBYCAfisE6tgqIXxWC6SqeSTk0wJE27QpJT4XYwU/Lo0DVL4BJ+MnHIWHWM3OUrb1SV58EbXggp2qt3k6px0QcvlOzgN+C90J4oCF7KRKGcAHHfHF7X77Fv5aHIklpesL8r3F4+pE0wBH5XfWGEMwaJXfwm9sJSMnUGIetpHbSqGJaq2IvOf1Pyr9OukBMNYDttOx7a3v7C5nyW/Be+CyK+w25KmTL+9nTa9f4F1SBMnKWcnjqVTBwqDL+5gzB+jb3Dp6njjP6LN/C6ic1vqDmEJ6MI3nDy6/+x965xzSV5XFcBPuwtKWUQHnVLqFYprTQAgIVoUIwmKGF2iCvgo/CCkpRdoOP4bGos5rIQBAEzOBj1BVGROM4ilF8s44xO1EzOmvMmnHUZKJm//HP/WO721s3WXvpOfe23NNb4J6/R+fYe87n/B7f3+/HA2uqQpVRCJ9xubglOEBAMh8LvxfuFOo+sjio0XHYFbz0mU28YnOVoTUCvwQHPl4FB4fjvcqdlyEOxxf87YGArreRFRV0Dnx+8DEOh3G0bCk4NtqFlHFafvSvYBbg7FvHrwr+d00zT2afxWEX8mY2Y5PNvUcRwyhfRly8Cg4OzqLQFrF8XoLD8bMY6XobHbfxEPg24sCh1Q2ObewmX9ZI8Q8lChsD18kINx761L51/KrBi4zAgAgu4TfrYhzYuzwzcjizsf4JDk5Azj3y4HC8V3o+e36C4+4Eh663UatLHYPlKlzBgXlV5bTZ/zHZtWvBjtKD3z61b53g4JA8mbMSHBg5sGFSXp6OfCzrlOin4FgcQh4caVVjqaJ5Co5zARza3kZR8c/gNsluwLErhTb7f6F0+4lMUGjW+LvPglzB4cF451noqjjJ0X/BluDl1JOF0u+qM2VzABzNNy8b5mOhCtHbuPgp2iOevKH2Fx5JcLD5kHAMesblW3t3qEBpFc7EXVdwQLt7BgfNfovDQY5nk1PjVu+svGTD8/Yv7XMAHOF7euZjST0xOELQHnF1Qs+eUrLg4Ooh4EDOOJM1F1xFjEsAYfkLsB03rbHZ7ASHXXC4vbKA65WZJyp78jhyDoBDpvnH79GVZMxicOTUIb6Nbb0/DcjIgkN5d8JIG+Pyrbn1QLd82lbrIOCYuDsXXBUsMui1EEwU9v7xzjkAjjVHR3vnY2ksETiQe+OB1t07VKRvIywcgxwcUM3JtK2GLAZv1TUe4tNvTXEO1GshmKjs/eRcsDgSVaO5DDho8MZNSZ7Y/0o6vSq5uOWViiJwKOeGxeG9EMxS/O7mXLA4Egd27KdFkzPfLY6Sig9DQBU5TnKObbWTPleFFRX0qpNDATiMD2gDhycxDmFkREQ30YyVj0Iwz70Vi6H2VLO/guP1Uw8sjmsh81L/RXeMQy15vgnYjYkzgbM49G9rBDSCY/MNSsCheHBO7/fgUEQ2NP3hVBGPqJ5EwOv7Ybfn5EjO3gprG08rODpfu+TnoODgdP6tjsuan+Cg1f5PNvypHVxz6hpF1GIFICm0ZVXkUXXXVFQERwU1n+n93VUp5z0caq19dz+dpyAmx8h+iacjYuJXrv/LKv8Eh2CRJ+DAmSfzy+KA2f+IfxZRGCQth1NVYdUiQOWoD3QcSbuvDZBPx4KvqKDmrZ+7KthA2K6eDEOZ+f5DwhCmIKJ/yiaN8awlhXp14flS/wSHcNeP/yLtqqB/Wv0XHDD7H/lt5Gc82XiQpI5bG5sBLuT1gXK04sMwUOw4TQAGcQCNnaFBfl2rgpkbB2zZ3HidoWf4CyEJcowFVXjWStBUYf4p3D+Vo5HpJ116VzHgcLug9j/6WpVYBzjARf2ulWML+INTYMogr1WxGJ6DvappknMluMgtsaH+iNh/q2OFS50DYdviWAvk/ILK9sMCoj+RcrT9UnRSiUfgsObuUPllrQon80qPy7BrBhyAq0tn5Ri8bg1fqy5KHVuWRvI/pv7WiVKfPE4jaRw5HUABUDS0o9eaTws4iHUcsm9VTR2YueGcfaC2jk9NPiMkh1Bz9nJBlMkzcIz6JzjSqhr1LvOHGXC4X7GwZxz5beTqwfaOPXzv9y7Yiiv7+Sa4sB3faJx6woIjLHjjCGurDB4ZGb6ncPVCWsBBaHEIviza9MlAWJYlwXahn0dIju680fXFOg+sKKgMl85Vrrqy3HUeCAMO94dJB3vGnbcR4e/CErcE15Au6k/OhlTECWpCkYYc4T2HcIR1uGCQrj/Na2uLk2kBB0GMQ9Z9tO/l1uiE/w+EDYyTHOtKJybHzqtnthtE5AUNgWLbK5XRD1Mq4e2XMlxtJwYcANe9+B14KJKgJhhpP76SCvPQALDitPNaiJhNNhRvxPcLpjypAutyiGsdiHlVVUAcpzXdSqWjMTYROFK+zNp03Fws/nQgLMtBjsY+QnLImq+/7F1JXs7hwHCwH7YOLM/sn2qpiF/AgINEYkyybg8wo466A7DFAGmOw+nMcUWByWoe0ijA9gnSraqlPdWlMrLGEVRSXZ7VqOfS0uUc6qocbEi/UauUilxjFQ5y5H7VRygESzx93RPxObz1G13mRmRD+19tUlyLEQYcgDBVW+8o8NFHPXNAVAB5mDkBOMG7XDwOFn2vwTojLETLOE/GI6zYGw7BcS4d0VG4xdE98KLVXJYUg4evkxzEQjAjr2/ElkC2IxjcJPsIY44vl1Gg2Km63nFgPAGvZWPAAfI2j9SraJpyJI8K2pYFjCGm4IVSbK7ybR4kzHAb5UCm2MFWCOPwRT0O42gU2PXHHvHL+n3x/gaOnd8cD5Lq3KRGWHEJvWSEYIcnfz0mIdsRjKjK7eAqVWeAL1fnrvSO41sK2uLYCxhwkLoRXOU2cAIA7VxFU4V5GDw7Vnh1KsMlMsvmZ0yB7dvyrPt1CLeatP9GXgo4FoQbASkXt0DuaFrTxVRaZsdCXBVZ5pUtkmS31561xFBISgjmQUeweMm6vRDNeffE2tHXi3257ncd2JIh5atZCxhwkAOHLmNq40HQ8G60k5zjimE1kpFNl3AmhChsrAn48q3JPFGIbqvxK99siiA/dNrhw3eBGZeSF9pCgwQMquNIbDgzDqrzDOSSEoJ50hHM1PZhVAV2f1b9+7a57mmID9e96DApP57l9ldjwOE2zhD2HjytBKmvIudGXywC9ji3807VGlyzlsmG2lM8yFZPItuqVlfQCmaWG72LKKxyGdAUl5WixLF3FgenM3QzF5TqISsEI98RLFBcdyMA+BcqNF8f2yfmc325+CI1C4BbBhzuVkz2m0fg+a0ofRW1dPuwBmjPKwaGzbh2jlj2Fqw3FGb9HZmvYrLCPBV7+NkVOIVt/Mp14H4BiENHXsU4OAEQHQxZIRj5jmBs6Kw7hao+12rSsn25WOBfjQEHIK3SARbxYY+jBM3jqNWlVvaBX3FBzbQZWfBgqqx0D6qtsi2G9XvBRVkc1Ssbbg6gKWk/RBqJNnTkHTigTZucQrB+wqQs+Y5gTuEh+OOHn6dHXMuAw4MgR5RyW54QEmlozUAj5c632l5B/sfdf54a1OG+CTyJF9l0HNVWxfqRojRIJfa08ZPYr1oDYdwmVIzz2lVZ5HBVwFfAKQRLP02uIxgZciQb3nwONnQjr9/+J5/FgMOfF1sXVglx3wWaji1SJLnDJcWXX0RAVMz9z4uXTDttEMGYXdAwhGirln3rqsFOlbvxk+zYwamig5CLgYpx3lscOdA2kQ5ymF9WESdleX0/kCJHSZu5QwNOUzWMIvqUDDioCzVIvoe445jJMYjijOcnjW8rAo6Cta8JH/5Oin+UnUEOhc+3GhgVPQK5M27zOaKyO/0QHNNxMYhclc3QK8ASbSis30WGHCNkRkPKo5QXdpXDyDroHyYHAw5w4C/3DKTgCJHJIReVXX50WGGHhjrl005bEMQBcGzVYXIg8ACSJT1XNGCnyq2CRL268ARkyCEdF4PIVSFoTB3ID3s+nPctITmeTR4iMRpSK0q9tCwSbj2qGXD4ta/C149cBSo5UL3jCyuOhWaBDY6PydVp6UFRwUWYUtnpAVAedMwX6y82QWSObjWr+UlHciB5GKfJofb5FciZSUf7EnHBu2pNOQlykBGCxWRvfRQhg8fWAhlw+PNaUnbnG8i9cJocVJ9xFr+gsv+0DGL+V69wI3WI2VD7OaStvqDhyop9Foohx7YYlldDDI41mefdqDK0scSM4wb6+ApsnoGrgllRSdG32kspEoKZkmzBMLJqEHxKBhzUBjmk24dVKdAoB+VnXL16S0cAJLsHSFia2nLrv4Cc3MiqRm/nIINPuFjZ+DANtlW3WvcYw/IXq2CMG+rJjmP5+AqEzmyGjrqCOiGYVldwCxKUR/IpGXBQG26I0jdCwpTYO15I8RnPF0e3psOKnAASKTY/A/qOJx5uv1NArYXL0hXXns1M9NBT+ZhtDoAx7uGPR9oWzi5wsJITbBcmecb/UCEEU0tWgBsV2O0K7FNyAxlw+PGyGC5Dx+NQfsZZouI31RrIrQLWyFg2bH0B26ow4OuefXEUfkq2RWK+AQvGODwVtzUyrNgMaOW4gnfz5KBPL8aMXZX/CcGW8YxUCMECxS0wAZHjU2I2mZYBh/+ukoreDo2R6IxTN+mO5biMOVdh7RiA0kqnZwyLzy2tGrFVUJgEUv/R1tXUDOnkL8wDKN1jspef5VFT2eETiyOHzLjPj0KwZqJe6WSEYFrRf9m7/p+0sixugX2UMeAiREEsEAOWroCARQp+oyVOxiwUKHERlKrVtraC1BgbR8Vkd61NRInKrBod0XRXqsXsdrs6jVG3aZxtM4lxm3R2Jk2arc1ss9n5I+i+V8eddir3PnzPZn/g/c7j5Z57Pudzzv2cc7nA2hoar4KkmjIFHGQ/CMO4eWEYvMfLLGzS9rjEtRQt7gddq8HXDnJFmn0z4yI3oCcvHld9G1jWcUi7QNzOESyHJ48CP3W/45+0N8MGM0ERFSP0jvwPWOYgpuPY2ysinmOobR42aJiVPuaFyTlsHY4+BQsUr8LLAo49BRz/v4/I+iwwD05avxnhiahkOaNuOTADKrGxFAkPcpRVoeks0LatUXianQaS6JHU4Gz2qFUH+lSEXeQGRlTZ/NiXSy7lB3SBq5nELxhH2AMjj2vbxVDk0AYhcg4qc3xWC1KUqdQkmnL348ENbSngSDZXaYq8PK8C7nFt9KawkJToKD2GOqMCKAcAKLKlOQXeVeCPF/SL1wfISQHoooHWRT1Q8wRokFEKL/V1A0GnOjwo4JA5RBBBwC5QThw40qTsxtbyVRwS0mKYnIMibL19hQU2ZesAadkcomQz91robUgKOEjx5SL3WBd4vFP4Xicp0RFhl17fADvjGwVoguSWzrY+ew6kHPGu9WCER0YKQM/LjwTXgety7tQfyxK1qyHM8Z5ioIOpZtCQyiCJjGuoqGMw2RKT5vCKo7tM4Zi14faZYeJyDoSpm23jfxBTon8mYQq5goKLX399sUDg7MU7HTUFHGDKgQZHBfB8XpUVICXhRESnHS9qu8CneSCtql1Oi4KbrVQfr0VvklA8QPLyfZvhdhWwCqh/8beEDfLKquvTahaYHbWUkYIcUoromLyKqxMU8eSGOjtykBoHDa8L2HMqV2JwCSm8+qvkhX5TLf4ApkTZBlOou+S+m1n+0UflmTvPlkoZSmkKOAg/aLr54AmYfdYoPP4ihomwM/Ii3nVweza4y5VeOFDWByS4GD3CJm4jxHEjuAaZmNcefugUJdo5UoZgE4xxYv72Yhk3x0bYLRgdTt3P//wUff7i01ma2PbDBI40m9y4HMhSEZ7rQ+Vc/AZYPybJlKgtXeOtPVPFn55/M5n4QiAYwgaMpoCD8EMRRqbAwRGLjg3cHCVCEDcqvDAdwHFwA5iUoZsF5w9xVfbaDtHthuHGDgw3Ms6/jHQkVrjUNZZ4ZoBHl7L27Y16bg4xzmE3CCsd/4ouep5c+OpJ7OWd731Wzj7jM8lKVdA3SVydm2vZMAkpVM6hYXNvafkwUxLnHFT26SX3VJuiS8Y6i12FMDq5PTHr4HJsKeAgTOWY43eKIQUv/mqLX9dLpEJKZfMq/q2FKA9Zv5sAT+RU5ofuKyB3oGav3SWWHEtFvJtRmG+I5+fcRYA7Mk2cgs9ugFdV1rXa0uBkEOAcGiXHOTLYN2c+Un18NIOfdeTG82t+gatQmiTjKMfPONI0eUJfUAsVgu3KOQDZilJ4aQqcIqOm1EYJ1jnshlKHN9DN//GPTvCvjL18VoRHf5cCDvAjgVMOGd887e6sEh30fAwl1JaRIS2s1+F426wOeNEZmgE8qn0Fa9EMByP5Bz9Ath8biETDsJg6rC93uCigUxlLybQaTOnPoXhcz+VIDrr9qHlCQXP53Pn+YdZutYD1p2zz9DKtI5eeZKpyNQkXoNfl4xGCYXN9rxrm+gAAHDJJREFUfg1ADoSpuweLV0RNSbflWK+/0E6+mxKx2ldbPrGw6Sng+ACUQ3xSEdiMDBgOVuiQFjZV1j9eh428VSkmQjywXrCwsQRSdMS2bNjrsDAoB4pU9FwOtzW4lg3J4o9mxZqdwKuWTTmCB2P9YM2DuMvc0iwQsg+UrtApzFLfskc//3apUvZK8XyZJqckmarQknEB/EKw6E1eHR0Ur76oOURTooRMXtlQXjt/9v0uuq0KYSE9BRwkUA6YCeM1aMbpsOZQkicddJOB1/lwYhtGb8X92kEdRN6ODcjQwiRIrHTt408q8R+7vf1+NhrEF9c/huXwx9cf0eRgf5dUjQA7XXaZnN7T43AehHTQ6+RFoWBYvfCTxZBlPX9YxJS+5wLlpAEHbiFYdnjTJ8zVJI5XT9e+lR2aKVFC1mFcub3afmKf8tLcPaPcngIO4pQDbkKU4bVtfKfrSDo8IhI5tzUaOMKH/cGoftEBnf5RKHQs6kehCfb29KBvgKFM0rAo3bBG0CDeBeEbr1ndE6HTueC3Sw3OlcunVDAmd2Wu3I+RDnqyXiGkPZuqTX///aNn+q6Xvnd98lXSUpU0/EKw7PAdmishKCp7fXfN/EMyZZqGwij1PYid4Yv3VdHEvrfkpYCD6IPLhPGj7ebpBxErR5IU6TAZqgr8i9oZ6D2Cssl//sdpgIUWqYELnDu4F8m7w97QeAc7mcojHaMbJb9YU0Nn5Inn5wbhrX8mOc0LuV4Z28P9es+diFNemEwWiFAYjZHNwFddsn2b/YY+77UlVeOgJekCOIVgqpnAslFOSXh4VVo21V1zGKZEF1/kqixDCVmCb+Tf2BQwpSngIEo5cJkQDY8/W7vmL+DhFdCgS28XyZ2O2ct6aC0tHn9lHvq8CU5nbE2dW9uvoG+rSa+duFXhbMrDHcrtdXJrxaBnNRsqUogv6MsdHVApAL1wIDQBv3hVvKAOZ/pppZw6vNCBKSF1ZdfWsmoSTCb51S3uuwoTsoEDtxBMHfvHeMKjTypjfDCcLiPflHRTIcfqc6PZsSpxn9GIy5YCDqIPasKnOEwYV82bY9HW8SpGIRVPOyU1T2692LwxNgONTZjKbPo7K57mhDxLyX0FdMvGZV3dcxsrS1Z5nQnHYAeqnS23FDS/mFOfxLEKbzqwEByrqnMHquGQiZKOy956owWFDhyrKlUyheOXeia25xMVYkbPvPhJuz/JqUoabiHY8JlpgHaQ0usLbvNxm5KDj5XRTXUci7HkWrgbkB23/7LZkpsCDsIPThO+Fi/MtPX1tOp4nDy7FEan2RhsDP1B386C4wYLt67dxBGgWxbHKzP69X/f8hdY5GwJBOZMuUyXtdPvjZnn4XQjfnTyr4NGXJ9KcS1526BFRJR0DJ/a9kRLCgagq4pSuJx8FDamitWJveL9SxtI1HHsvRETgoXh11Hz9S31CRNQjOlOwJnunikxVmZDIF+qwWCDVrLjMbcDBxsULxfBTmRTwIEnWWkMTX2REcdhQ76iuK+njGbtZdbZpIlRH42LXJ9/6Ler1cNwz4mfTR+LLuEc3YJu2egYVIGE+ePo5GrM6/cV8TgimwlJRItsInmjzrFy7bL51IL4Nfyt7W1DN4W5uFa1kOeAtNjukY6TM7WeaH3B7qruT5E0Ulsus8liDPVMad+WNO1T5fjpNVFk6jj2viZP6PtSC71UVnzcvHGpNNFAFyqj0o1jBvKeKUuMFhdDpKQmvOwVsUsMcouxYSd2A0IdMz7dETA1KeAgIVmpfIqDemLxTMU/0ubxrjh0FleOIdcmpb+z/ogGwXo15TxdqzszhvqiDMc7UWfcqsCrEUTdsWILTyBHSe7CKXMs0x0yWoXyY2ylHf3WH22N0FHQkBg4Qmdnw72W3+urF07geGV8AfWE03n4qjyIwen3qPGsavwsX137w6pyDGyJnYqg64p9LF2j0dDpUlMuO8dl0UX83vvaK5Bjnwx9UPCOcp9UHcf/zoOrfN4x6KWy5/rXt0YSCsGUTZ1R+PWSP5hy2/PI7zA6q/7L3rkHpXllATwGohACBHFQQKvrRNQKiAUkEqKoQ9bMovgYReNbiCURNbSrxURsGp/ToKP4IBk12uzGV8xs6upkTIyPiYvtxDGd3WU7O7uTNU3+SHbMH52drc0/dj8w2WmtyP3gg21X7/9+HO+953fPOffcc8jCI6mo768kJMw+r5C0SBKWGc9tLnqQL6Xw7BwsnILn4j1wIHKzokCP6XwJIHt8g0ClTLeoJpQZYm5xDhlPCoyEhr8/ez/bnxSAxzIZPvS+4wN1hgQKmC5u8KYP2j6WfqyOJFHpwWke0JfDRygJ0b3qqbZxgcxPQcYGCCFhNyUVYmnkHJGkqmxq+WbueVxHGNAHOVH5x2TAJWYgv2qu80oK0Jcxb2YVDYlaS6bhA4RCUmCgUIjHY7FkRTwXnaEce/JIygq1RyLCxXM/7D+PbB7Hm48GM+L0fLuRMY6GP9R80kYiGHQItP8FwEe2LiWPIn2sGlpoq5JAcMUGkPKOJCaGhKAS2ZEkaJJotU1ccdzTC7H10n6eXVYTCm5FYPdcFSSclci3yocMGrA9vhHeijvf+Mh4exLa5nSuPFkkKm5qYpxkFPsIxOjmpI/VqkszLC0xCOxrRNadQhmMek8hQlmhkUUE+3hQNrV7uuWO95i5MGNcLICEbWqKfy1pX+mxuXO9s9KjVDBiblbgEcB4mXYkp1xd0RAOY1azer0XzYXtfRF0gYQrl/tIBGJxRMTp9qJT54xZuQW+rfYNmBSP2NNbwIF0cHTTv/VrX7Kv9YTMwYlxW4lgnqTkpN7zYEuZnjKCi6rpzPceU5aOi+lcmV8Ok0xmKk4my7k9dHR70cRQXX1FAoUHYOJxPn97z+JAZnhB22C5oiFsA1SFLKsY/bj3UNeYeUpZWXms6Hhb0mdzD557q97l17AowLpoSRS63kODk8eQSOuZ113BgP5ASqsmqkA6e0n15PkqJGzlpqSrt7xVf3tcUdCv6QD/p3Ewa/55BTeVLUm1MGZV031gZbb+j6OHVrvG5ifN82Ndq7dveY9+UF8Rw9KMAE1qytZNjfh17GutD7Rovd3gJoeiG0Pn2MiXs4Y5rgDvFUwH9WhCbpbxya2usReFGc0fHe77+tO//nP+Qdch43uNNVEnqByg04pYskoP8NwDByI2B6mp+uGKNn0DeHCyqbhuj5pGw29aWlp+9dv6S/WPoksKDnRTtEQM+FcIOP7QaQW8HgypteMmgwbGj6RzWrUn+i8m1DQOtjx+75JF0umCA2eicNTsMDiiGvTNDFivhCHrKGlU2gDjR9IJrdQT3ayCmpLGaP4gv7GkpKbgAKvbl0oMBxXz4tIf3AGOzciYff82u183SWem2vKRgVo9fc+E5PBwUdD05M7WD3/w1d27w5/o7jVKazz6cbxs0BnaCI2ek5P2rmMRCpAKZcfvSqkwyGHd5sQRqgaHw/n6UigUDbWDkxIG6wOWZ5TNfjBb/lmqiQE8tNoqK2ZT2P9KGh4E6+9TNkv/w3s4kYiXt92XaoNgi8ohtvK0WupIRzaHgMHAWRXYwdGzjqoApPV/+gKgwVvUzSmJDQfPM49RvsqHQw4LPKCV5GlPdHefYZ1hZeKovA4iAc62Sz+an8Rg74EDoZGGlxeqpFSYe9y5QXBEGa3mUcZSribdnaIGNVTo4+DXh4BmtW00hupGQeFex8Y6anFYtb4LwF5oTRguktlI50AF+8UNdeIIjqxIODQc2QMdCefQZNQeOBAjB82n8O60O8lBAOjfs70LQCouuy8NdSfkQleW2uMdqLwNkeOpMYbnNjlhJ4A5bnFYG7yBkEM7fb+62Ma9maWo5GWDQ+RwcFj6hfoEeu2BAzlyYH0gm8N96ugwNywPrSDzKMaN5KDG1B2XOdSbKo0meXYnxm08hp9yjnZcBSxaP2Rf64M0M9BC59kkR5zeneSgrqjHa1P37YEDUZvjmApunON/wQ0L5LiVdTGhbhI1KDTG+MzRks1spmCq112Qsx6npK2P3GJdBA6r1l/utJsIFn7DsFilSN33UyCHpT1hsX3T0VlweHkmorakR/4fj1Qat1Il1YS7hRtXnOAGJCrZfaKmU6UqpYTpYP9tLzZTohx2E+RCc9XlWzTUZcHRNzaH2n4iGCZTtyDBo34C5CBkZgE1/XYKHJ6pgVgak8nEBgSneu4Kcuyn+RQ+zL2R4voF5PjyTXHOFKPdT+ZaRMW44RTXSFVFXLLDbam82FbINbgBch0JdW3FPyrkg3aVq2LVekYGQCIY8Xyd7UJNFnKYDF+6gxwEX4OpLwfgCHAGHGkkhazn1S9//c0aN1kBs5bIz9fmkFf/Y8b19M+mdA595Fybv1SsRVSNy8mBuTFjaWWw3xkeWyA343oeE/u3Lx3oQnCAJoJpBj+WB+7k8Th4twJ32927vGP9dQTA4XmELEO/nHphGQsvDyfT2LsiGpIoTG7XD1KyXbuAIyzdRLOfk+1BE4XF7XpDJsfFypjJ15fJsM6dG1bI8V2tGSOsv09GKOAWKz7rZJgPLBGMWKOm2/4h691KtK+Ll3KjNSprqBxs2zkMDs/IHEG1eWDevL6+bh4YMFdzmexdYXOgSPFxQzrWiAvXj6ONyZ+sOul0oy4UqSlj0WaFOERGWKhHlqldJExzmseiDPW9flfyOMw6q7DbI8Sinb0fAEoEw7BUzczEnWIl5Q86o37nyhBykDbh5txZBthx5TA42LXiKdPAQlk5OgJ97fiCybQuIaftCnKEBDKqAIr2OuFnamZGlfTaPJTzopIY45M3E0LTv3OVuXFjxXi9L56EQoDHkGYAVG12wqPKva90oCGT0xYHYCIY5d1Pd0rX9AxmjM/lSxtcZ5RhNNPDU+IcwOPKUXAkknvWl03KcoFEwuVy6demlk1Jjt3j//yGxdhSjs7gXEQOIoW/XCrfrlmhI3s2Rzw1DFS7y7EbY74+SaJApG86pBnohR1q/jntURn01XJHWkA6bXFsJoJ98eXOIRwt/5TPTg9EUNCuexob7TKjjHhl5mChhAlaMtcLG/H2L1JsguOrP9uYtUhRtUmtjFhbO93X1/dK0HNtXW0+rdgdAVJLeMenWj/4o7YdyBjUBboLccUBCFlv77CZ3MJYg0tE3cj2Nejbi/FsZM4LL3+FJGnJkEnccMWseugW40QB2zedjtgJHIecB4c1RHH73o5x6u+yS1YFeM8ddx1NljGhY7nEXQmjntddLpPRUoFrHkPg+NwW5DEXHx6mbfu/hGAF5qWFiOR/f/3h1d9f/ezlq55r5n89S87bJfkc+9ICRM0T+UAFQ2HqIi63bgHNIIUgJanXfiy03W7GNCBudBCoHrqhZj8E3JQ3msHGiuIWIXfFFbNqXKjy235WIaP70EVbOp2CCDhep3PsRA774LBcY/qNT0LuCvL2I1GzYlwYb4IRqvLCC7pKiDbBcfcwedv/JfX9dpO6TJSzdnW+qKxowPxSzq2eV67hd02aaUjg+3TlfQMLpBAnLF2c1SdxFf4oJCFHeks8NWqI4qUje0SdqaibG2cEI+meokh+VafqZs4gG+mAZrVT3SZR2Mjpfgcvfp5gs1UAQDEssEvZJjsvlu25Kq+dZHpl7CArlIi0uTG7DLmceXCOK5LPKZu9Ua3g2PZjwbJnsYtVCvLahwPfln97Yf6lyO+s+cU35JB9u4Yc/pamKJ9IEfTJIV2cqbve14Tfjyx/PY9Aol7olWo4SJ7hK8YLpT1IRHB/qBm1PaUDxhXcf9i71pim0jSMVFu6WqCeBnvjYAjlsrTlUtpCHa4NBjJULEaBchMqt+XqGG6KLDgjJIANCFQDSBU3C4OuAjJrxhUscpnJSpzEiMlkJhlHmU2awJ8lGvmj+50WFBFKC6eAy/f8JOHk6Xt5vvf7vnPeNw5H2QBWVeRVU1Z6R9FXIh6JalzxlrSXRcHlCGe10ZCrHI6+3yTHHum8lN/i546nL6PaOmtkZPO2nOzql1/tW8nmvKD0ZSsOkkT9oGKExWRO60bfvCkAtQaXGzKprYqXW20fyCVoyPGgq6fdbPHLRU2GOt4Zd/UlHXZEWQcKm3h4reTYGl6nEqN4HW8s3q5QULFqYuifOO1XMDHu0uQYtSo1dlhUusL/u5lQB5h6w2V0NOQq17GL60e1StOGn7R6gyp3IkJt9gjaw/ENXT4rVFDuYbkhy9ZpvhTWaFIzi8ycnv29uUej7ZNJEJZ2fCaSv42Ew4rggkQHd2KVtS0uuTg0YZFc1EetC1OWV9v2+LJ7DB5UffIravO+IFuEKnbS0Y6XVe12P/5Fm6M2blU+2vcLb/njB6ynDV5BbXw0JPYCmEk7fZILmc5KmRjC5yjIlsETtXbWfGH+0HsOkv4sbIUtEyN/QCBZ7scQKayRpOchoOKYbf3P6OhsRDQFCdHMNqDbqeKw0s9vD8/RdK0/yLFcbO1st1Au6qk6xasD686m7WN44yAb2C7FmWApQXYuV+NiVbvS5GMTd6ZRivGrbSkyNx61fEeQuDITetqYXKIaGw1ZurS/kJGU5TNT2ztb833W68q3tqU+woozOWvyJdExvH+FQw5bn7uBoewVTkaGs+pCEOS19s9v3nw3rk1H0b9oZ+25hO0lHPrKGgT5JeDEtQd5jB2DZ+FcNFyvpOb9/PBGfnbp2o/W9huorraG42PV9UmHx4WTYcKKznYT9u5OsgOZV5Z7J8Hm6NmfaVTcTpyMjIa0y27NQPlmSGt4zpkK0el1uBL4stQn/25/sdp1bb5kVwe2LT8Wh5HQH7KC3PLpxfXj7UrutG6gQ9yhmZgSCyJmdXNkotV2AzbkWA2cmM9j2MWsSTXc/AOErZbORUO4KWlFKWdaLyab2BD802Lj6AJVF+IGWBVIxxqtut/b7UrUT3sUGeHxJoixHPEczXdb5inf3B+9iePLSSR2fFFP03ITOm2PnlWoyRxzpNVVXLwOV7495Hc5QFjRn8Kir7XKlTJZ/VeXuycCIqgKXeHNDALyVDtbLDv1qm9G4CqY0gx3dHTWn8DpGOnzlI5WYdlBNzOjXK8aoqTC2gyxxXMRY3qYitDFGZ3fXo+q3Nd9aA11Ueazzo2huiAdFcIAf3Otut/7j33YoKmCPIGJYuwVqqoI+/RihRH12xFzO0UbhS8bvTnyr0/nHegHS5SbdZYCpCNSbXDlST9ztyw2doyWhBuFihzxFwh7zWfxbPTID1GfNv739jcigiRq7JRGZ//q1dx/Ix2Vc4EHAnW540e219nox0EuzlA8TBJhUW5jsvewWuPWs05VEW1DchHzGwHsAgTBJ8azvnzcwrCz9TCd68EyUGxEpG8YVYNVc2oLDVY1lSpgejQ5P3OwVuUZrZRYm5YVHEr48K9Xlpb9jacvpcjw/YyClIjmjV5ceoVvGCxhrkIRF1z51f1KB9MLM7BYOfDKhJfGD9ykoeT1XKcTJNEpWY+/WbIAxR28OlpUvmKTBWtlSIHur1UsgQyhMmVFHbrZ+qlwCsfKavtKB61IpShMEqbxHECYGx+D4GFr8N61H7QgFSMRJ/7G7fGIfEelTBxcMH5XmJbc4rBaSrofwrhmpwmTHioyxHSEupFUP1g1oHJ1qgtWzQw687JG4Iokyk3uTGet9Hxw9rTf4sd7MLJ/HVavsR2iEeWg14w3ffRafUzc5atr6WX/3pUHNN+eux9mirhiFgKL1bms3NpicTWXar2+MzWsCe+j/I++2dp/2+enM8FGyjRiIjr2o+7HnJ00tLxa3VGgGZ9Mj+dbbV8Q+U5IJK0oUNH7+w1hWbIhzg/Z2Nh4LLxb+m5/jIeHjQ0W3S2VAcJM4D29alD5hI1tvciRO1O4qaxiRe+erMyFlNRTjVnE9D3VZJCKWX9X6OuijaY6b1VVbV1QybmLi6kufpMqxuPQx1YVhHIlLuYkBYl9qmjgbpQDwztmfrfDcIhqGwhR4h7SJGfXjtGz2QtTubCyM+zYmnu9Ya5UVqvbU7R7kxZ5ctGq9Q6LPncbG4OFkstEYLFStbNiI8ku69dEOTk6o36I52aYhvXurYf7yagkRTrd2BcTRGd0LkKnS5l5+rpqalI7OZUe6Uy02s7wJfCpIMpZeRGK3r2DJZlAPnbt2MFr8d9dyujuZpQe9L/SwqvcheVhSVBdbUQNy6Aam8GVJGeTAVXPmggsJeepVma3OJws9dMz5QGqO/RUB/f2KvrmuRI3z6pjNSpt7geqPv4nGRcaL3T7uZXudmjJrtwV8JFV2XIzBY7jFS8+Xn8rfxd4blw3Y19lwq364+JyNv7fUGDfxyta9XNA/2A48AIu3vqtM30dPSKBKylcumCnasGTwDpAQBrj4uzi7OwaGxu7Gbt5vB16Z2bt6VWAxcqVS8HJl3JJanBtmyjM5yDj9u3S3VcChoIKWKeMb7qIieWCmr6XfX0vdTodKA3jnQlW2x4gyinYPHrP9CpMPoL+9OJF17XrTaKEhPtDf3vSVXJvcO8/gO+qxlgG722iyTiAKhPjOrZA9d69J+eOCc/nY0wB1UdBezGq6Z4LXH0306pLqJZcOyY6HxWVkCC6euxa173BQqAZ67Iq0QWRjR3XDD4Bzz0vzBzUBI7JEIsoJSGxXJ1Rm5uVKTovyiypxzaryvXlDlE6L67z5nkEBCQNoKzs++/T0s43fV1y70WQXv899bJqLcVNDzlUlBXY/6zr6yZgtet3C4eDY1c9biW6MOmx069nZmaq5mItfpf42YAEvEghMw3yYf/Uvqp4SvegR6P97nhOQ3B7+k59HjJBeEs3/YtAEvF9SuqptjdEnFAMaCcxplVV9mMGquStwHUp1ZriEw96ekZHtQOTUxEN8+q2PqtKnZFqNfbckZHhO+3qUMRZapnfQuSTURqr5o5iRNFXNY1lMg6tvheZB8Rc3/Dz5ufNzXW5480jI4o7wfZPP1gI38WKw0eqw9MbXg4/6FGcKN5Ji6ea8BKonC1BlKHR0SiyqWvnFjzwMMQ5GQDhoqnRtHCBIJqOKrkIk4zlIYG4dT4j/kCVyS2ny2L1TMuV//5AlbgVqaIyQbhaHS6gRctclQgTD6uSpF6O4Lk0tTqWznV0saBYYtUel05T0+j6AomEs3kwARGzAMQYsF8DfGmxuJOyHZHy6tjwcFoqikhMbATkS5AnUp2sOb5QLJaTDwxSay8nqkRCdXaxlko54G/ErUqVSJDzE6kSqpOLtVy+xalKrROpjhQJsKuTF1+Om7pxpMACjo5UF6mlIxoUpk4SJ/xLOaLekUBAMDhKMDjx5XqbWc4lHDmfCgLHy5oAtx04h8nn06jk82HqayG2vqT/A1P7LmCjilsSHPkIAQEBAQEBAQEBAQEBAQEBAQEBAQEBAQEBAQEBAQEBAQEBAQEBAQEBAQEBAQEBAQEBAfG/9uCABAAAAEDQ/9f9CBUAAAAAAAAAAAAAAAAAAAAAAAAAAAAAAAAAAAAAAAAAAAAAAAAAAAAAAAAAAAAAAAAAAAAAAAAAAAAAAAAAAAAAAAAAAAAAAAAAAAAAAAAAAAAAAAAAAAAAAAAAAAAAAAAAAAAAAAAAAAAAAAAAAAAAAAAAAAAAAAAAAAAAAAAAAAAAAAAAAAAA4C5TgZ1JfJ1t/QAAAABJRU5ErkJggg==;" parent="1" vertex="1">
          <mxGeometry x="824.52" y="320.5" width="30" height="30" as="geometry" />
        </mxCell>
        <mxCell id="LNYOebLtOE29yBiJLSGc-18" value="Terraform" style="shape=image;verticalLabelPosition=bottom;labelBackgroundColor=default;verticalAlign=top;aspect=fixed;imageAspect=0;image=data:image/png,iVBORw0KGgoAAAANSUhEUgAAAOEAAAEACAMAAAByAuHbAAAACXBIWXMAAAsTAAALEwEAmpwYAAAARVBMVEVHcExWSttUSdhVSto/P7JcTOY+PrFbTeVeUe5cTeRTSdZbTeRbTeRbTeRbTeQ/P7E/P7E/P7FATbFcTuVAQLJbTeQ/P7Eb1C6ZAAAAEnRSTlMAWUEW++no+wR2Ko+rw9jDdp11CWsIAAAH4UlEQVR42u2d63arIBCFNU0b0zRpukZ8/0etXFRUVECus/D/Oe3XzZbZgEP1/KiqpsL8AHlUuBlvQEiNXMOe8XVBTEh6xJ7xB68dASgjILYjgGAktxqrhgwR6FB9fWOUEQAGGakdG3yMMD3Mjnd0dpQJmR0/a7waDnZ84rIjLB58M8eKcLIjUkKhI/m8ICa8CTsiKeRAKSImO8LWwxhrrBpOsyOCXAU7iIAiVwHAvozZ2xHgkDHzXAVwxJh7roJjRDZU881VoPPQoZptrgLQZsy0kNMlzDdXgTZirjMHgBEjyS9XgdGTox3NAPmKXF65Ckyf7OxoTsgYMyrkACwZaSGHlTCzBXKwfPJZILcmzMaOYP+QPAq5M4Rs4ZHZESlhJgvkAOcZyQsxIctV5BM1YS8idkJZw+ReOo1rwtQYG7caNtX9kRpf8+uW8JHSPgfV7921jjUkScXj+qtrr64JU4nH/c///u353Gt4S2Kfg/59/7qWAronBEJS2Od4d0zA1gMhgQTi8YUasGOAXgijxuP+J378tozPJyHEOj/GDTgMUJ+EJFo8rq8zPn8aRtrn+JYM6JsweDxmJdqKzythP2+E2+cQJRodoAEJp9WqEIVcfVXx+ScMss/BSrR2/oIJSAi+D6xQA/YlWqcSMBAhZ/S0z9EMJVrbKSUMQ+j3uxxeorVbTxgNfRVyrERTzBBxCN3bUc5ICRCOi8cuCzn1DBiN0Pn5sQMDRiB0aEcdA8YhJE4OrLAZop8fjgZoFA1pseqgkFtlpIQIT+eqaRWtTZVwZKztSzRtvkiE44GVi1WJ1poAxiIccpVxIXf5avVeMCkQmtpxNKABXlRCw1w1lmitGWBkQqMPrHVKtPQI9c+PMQMa41HCG5CYGup8CDCWaK0VIdyiE7JXzmYhJ2UkCz6mIWUkEQkHO24WcmIVzQ6wraofcpbRASGTEdYzR6NcxjYkrL5frBiOTKjKVeYlmpqwHwaf5IyMLgiHobqw4/uEASdC+je7nxmqrginBfJ5iD8lYTu+jn/oULVjdEY4fnzMB6oo0c4BttLG1IsNVQtGl4SU8S4Ir+cFnBE2VX2zs6NDQnYOcCD8OvmOWRNW1cPKjh4JW5eE3I5PbkekhPz9ZT5zZEZoMXNkRjjaUf+tmp2GTdVwO+oiZkfIfldhR8SEJnbMkZCX9SJXISXk0UzkKoKTkOcqnSWAjAk1C7msNZRyFVJCXsi99gu5/Al7O5K92TF/wiM7YtBQylUEJ+F+rkJDuFnIoSGkP1ZZyCHSkBZyz3Uhh4hwY4EcF6EqV2HTUOQqaS8HG+GUqwhaQsYoFsixEs4LOZSEs1yFlFDKVZgJ6cyBW8PBjpg15LnqhpiQzxxP1ITT6RC0hCMjYkJZQ0iLsOscE54+I+eUkH6U6FxDnX2OQISMz62G58+POSSkZxl7wN8P59873jW35LxrSPm+3H9GPsZjax1dEfb/tHt7+b56GY8jEDIDtt2fz+4qtf3J49OEPR8F/PXZkkOKx+EJ+Rv06rutyrTPQcISihnCjwEXRWpldGDFmYZshvBowI/ltqP5ULUnFDPg17dP/R436b+3O85pTcjfoH4NSOvS2Qc+Nsc5LQmHGaLy2kWF1aWLLwoaUzvaEg4lWuNZQ7L8osD4QwAbws5XiaYkXHXAks6PEV+EwwwRhnD9aeh4fkyH0ZwwhAGX6zSqmz6kfQ6HhFJGasJpOF5oamVHI8LJgGE6pkldBdcdsKRtR+KIUMwQ7ypYS7hZV8FtO+7LaKKh94y0Rzg0a5t/qd0c5yptQj4Dhm1buOpIt+qApVHIaRJ2QTLSEaGqA9b++TFtQu8ZSZNwq3HCXiF3TChmiL8ILWCVq/rqDlj3zeOcR4R8kYJmpAgdbjf3LZaNE/bseEAYIiOZEyo6YE3nx4ghITXgXxWpR/He3pOqA5bSjruEXcgSzZAQdAu5HcIuUEayJVw3TpAWyHUIg2Uka8LdQm7UcYswYEay13Cjs/C8kFMRdtENqL+PP+WqrZljTdiNGSn6lQtaXQUJqAq5ab9KoWGkEs2ScLzsc1nIvYSMC8IQ+0iuCYeZY1nIie9ylhpGyEgOCAmsWplOdpz3VIiRkVxoqOqANeWquYZJGNCccKPlDivkJMJkDGhDOM4c9bKQGwmv1IBNShdIWZz6UiyQV8/HoOE7tTvALLoKKnOVesM1Uw037Jgmn31Hut2GdCgI87kK+8T50kyuwj5DaN9ZOBPCcYH8gpdwmB1/PhATSsscWDUUQ/We7PvG9Vl9pIRwKxoWwkJYCAthISyEhbAQFsJCWAgLYSEshIWwEBbCQlgIC2EhLISFsBAWwkJYCAthISyErgjPXr6bOOHD8gbFfAgv5GxDurQJ6fM4e/du8oTiiwL7oZo+odUNipkRnrt7NwfC5pQd89BQuukDKaFsR7SEjej8ZTxUM9Jwarlj1DwxI8LZDYpICdlj2so0N0LzmSM/DbVuUMyakM8cL+02n5kSTl9qYyU0sGO2Gh52wMqecJarCFJCvd6JeWs4tjJFO0o3b1BERMhnjr1chYDwwI4oNFR2wEJFuHtFBBJC+QZFgpRws5DDQ7iVqzARily1GKroCFeXC6EjXN3YglDDZtqvQkpY0VZQ0wI5SsJZIYeTcHZFBFJCqZBDS8hzFWYNJTti1pAXcg/EhLyQc9st6h/3JYuiEB7b+AAAAABJRU5ErkJggg==;" vertex="1" parent="1">
          <mxGeometry x="329.18" y="72" width="31.64" height="36" as="geometry" />
        </mxCell>
        <mxCell id="LNYOebLtOE29yBiJLSGc-27" style="edgeStyle=orthogonalEdgeStyle;rounded=0;orthogonalLoop=1;jettySize=auto;html=1;entryX=0;entryY=0.5;entryDx=0;entryDy=0;strokeColor=default;align=center;verticalAlign=middle;fontFamily=Helvetica;fontSize=11;fontColor=default;labelBackgroundColor=default;endArrow=blockThin;endFill=1;" edge="1" parent="1" source="LNYOebLtOE29yBiJLSGc-20" target="hW8EgmJHF-hAIjpgLk11-9">
          <mxGeometry relative="1" as="geometry" />
        </mxCell>
        <mxCell id="LNYOebLtOE29yBiJLSGc-20" value="terraform-plan-test" style="rounded=1;whiteSpace=wrap;html=1;" vertex="1" parent="1">
          <mxGeometry x="594.91" y="170" width="115" height="30" as="geometry" />
        </mxCell>
        <mxCell id="LNYOebLtOE29yBiJLSGc-21" value="terraform-plan-prod" style="rounded=1;whiteSpace=wrap;html=1;" vertex="1" parent="1">
          <mxGeometry x="594.9100000000001" y="209" width="112.18" height="30" as="geometry" />
        </mxCell>
        <mxCell id="LNYOebLtOE29yBiJLSGc-22" value="Plan" style="text;html=1;align=center;verticalAlign=middle;resizable=0;points=[];autosize=1;strokeColor=none;fillColor=none;" vertex="1" parent="1">
          <mxGeometry x="620.82" y="140" width="50" height="30" as="geometry" />
        </mxCell>
        <mxCell id="LNYOebLtOE29yBiJLSGc-24" value="Terraform" style="shape=image;verticalLabelPosition=bottom;labelBackgroundColor=default;verticalAlign=top;aspect=fixed;imageAspect=0;image=data:image/png,iVBORw0KGgoAAAANSUhEUgAAAOEAAAEACAMAAAByAuHbAAAACXBIWXMAAAsTAAALEwEAmpwYAAAARVBMVEVHcExWSttUSdhVSto/P7JcTOY+PrFbTeVeUe5cTeRTSdZbTeRbTeRbTeRbTeQ/P7E/P7E/P7FATbFcTuVAQLJbTeQ/P7Eb1C6ZAAAAEnRSTlMAWUEW++no+wR2Ko+rw9jDdp11CWsIAAAH4UlEQVR42u2d63arIBCFNU0b0zRpukZ8/0etXFRUVECus/D/Oe3XzZbZgEP1/KiqpsL8AHlUuBlvQEiNXMOe8XVBTEh6xJ7xB68dASgjILYjgGAktxqrhgwR6FB9fWOUEQAGGakdG3yMMD3Mjnd0dpQJmR0/a7waDnZ84rIjLB58M8eKcLIjUkKhI/m8ICa8CTsiKeRAKSImO8LWwxhrrBpOsyOCXAU7iIAiVwHAvozZ2xHgkDHzXAVwxJh7roJjRDZU881VoPPQoZptrgLQZsy0kNMlzDdXgTZirjMHgBEjyS9XgdGTox3NAPmKXF65Ckyf7OxoTsgYMyrkACwZaSGHlTCzBXKwfPJZILcmzMaOYP+QPAq5M4Rs4ZHZESlhJgvkAOcZyQsxIctV5BM1YS8idkJZw+ReOo1rwtQYG7caNtX9kRpf8+uW8JHSPgfV7921jjUkScXj+qtrr64JU4nH/c///u353Gt4S2Kfg/59/7qWAronBEJS2Od4d0zA1gMhgQTi8YUasGOAXgijxuP+J378tozPJyHEOj/GDTgMUJ+EJFo8rq8zPn8aRtrn+JYM6JsweDxmJdqKzythP2+E2+cQJRodoAEJp9WqEIVcfVXx+ScMss/BSrR2/oIJSAi+D6xQA/YlWqcSMBAhZ/S0z9EMJVrbKSUMQ+j3uxxeorVbTxgNfRVyrERTzBBxCN3bUc5ICRCOi8cuCzn1DBiN0Pn5sQMDRiB0aEcdA8YhJE4OrLAZop8fjgZoFA1pseqgkFtlpIQIT+eqaRWtTZVwZKztSzRtvkiE44GVi1WJ1poAxiIccpVxIXf5avVeMCkQmtpxNKABXlRCw1w1lmitGWBkQqMPrHVKtPQI9c+PMQMa41HCG5CYGup8CDCWaK0VIdyiE7JXzmYhJ2UkCz6mIWUkEQkHO24WcmIVzQ6wraofcpbRASGTEdYzR6NcxjYkrL5frBiOTKjKVeYlmpqwHwaf5IyMLgiHobqw4/uEASdC+je7nxmqrginBfJ5iD8lYTu+jn/oULVjdEY4fnzMB6oo0c4BttLG1IsNVQtGl4SU8S4Ir+cFnBE2VX2zs6NDQnYOcCD8OvmOWRNW1cPKjh4JW5eE3I5PbkekhPz9ZT5zZEZoMXNkRjjaUf+tmp2GTdVwO+oiZkfIfldhR8SEJnbMkZCX9SJXISXk0UzkKoKTkOcqnSWAjAk1C7msNZRyFVJCXsi99gu5/Al7O5K92TF/wiM7YtBQylUEJ+F+rkJDuFnIoSGkP1ZZyCHSkBZyz3Uhh4hwY4EcF6EqV2HTUOQqaS8HG+GUqwhaQsYoFsixEs4LOZSEs1yFlFDKVZgJ6cyBW8PBjpg15LnqhpiQzxxP1ITT6RC0hCMjYkJZQ0iLsOscE54+I+eUkH6U6FxDnX2OQISMz62G58+POSSkZxl7wN8P59873jW35LxrSPm+3H9GPsZjax1dEfb/tHt7+b56GY8jEDIDtt2fz+4qtf3J49OEPR8F/PXZkkOKx+EJ+Rv06rutyrTPQcISihnCjwEXRWpldGDFmYZshvBowI/ltqP5ULUnFDPg17dP/R436b+3O85pTcjfoH4NSOvS2Qc+Nsc5LQmHGaLy2kWF1aWLLwoaUzvaEg4lWuNZQ7L8osD4QwAbws5XiaYkXHXAks6PEV+EwwwRhnD9aeh4fkyH0ZwwhAGX6zSqmz6kfQ6HhFJGasJpOF5oamVHI8LJgGE6pkldBdcdsKRtR+KIUMwQ7ypYS7hZV8FtO+7LaKKh94y0Rzg0a5t/qd0c5yptQj4Dhm1buOpIt+qApVHIaRJ2QTLSEaGqA9b++TFtQu8ZSZNwq3HCXiF3TChmiL8ILWCVq/rqDlj3zeOcR4R8kYJmpAgdbjf3LZaNE/bseEAYIiOZEyo6YE3nx4ghITXgXxWpR/He3pOqA5bSjruEXcgSzZAQdAu5HcIuUEayJVw3TpAWyHUIg2Uka8LdQm7UcYswYEay13Cjs/C8kFMRdtENqL+PP+WqrZljTdiNGSn6lQtaXQUJqAq5ab9KoWGkEs2ScLzsc1nIvYSMC8IQ+0iuCYeZY1nIie9ylhpGyEgOCAmsWplOdpz3VIiRkVxoqOqANeWquYZJGNCccKPlDivkJMJkDGhDOM4c9bKQGwmv1IBNShdIWZz6UiyQV8/HoOE7tTvALLoKKnOVesM1Uw037Jgmn31Hut2GdCgI87kK+8T50kyuwj5DaN9ZOBPCcYH8gpdwmB1/PhATSsscWDUUQ/We7PvG9Vl9pIRwKxoWwkJYCAthISyEhbAQFsJCWAgLYSEshIWwEBbCQlgIC2EhLISFsBAWwkJYCAthISyErgjPXr6bOOHD8gbFfAgv5GxDurQJ6fM4e/du8oTiiwL7oZo+odUNipkRnrt7NwfC5pQd89BQuukDKaFsR7SEjej8ZTxUM9Jwarlj1DwxI8LZDYpICdlj2so0N0LzmSM/DbVuUMyakM8cL+02n5kSTl9qYyU0sGO2Gh52wMqecJarCFJCvd6JeWs4tjJFO0o3b1BERMhnjr1chYDwwI4oNFR2wEJFuHtFBBJC+QZFgpRws5DDQ7iVqzARily1GKroCFeXC6EjXN3YglDDZtqvQkpY0VZQ0wI5SsJZIYeTcHZFBFJCqZBDS8hzFWYNJTti1pAXcg/EhLyQc9st6h/3JYuiEB7b+AAAAABJRU5ErkJggg==;" vertex="1" parent="1">
          <mxGeometry x="484.18000000000006" y="72" width="31.64" height="36" as="geometry" />
        </mxCell>
        <mxCell id="LNYOebLtOE29yBiJLSGc-25" value="Terraform" style="shape=image;verticalLabelPosition=bottom;labelBackgroundColor=default;verticalAlign=top;aspect=fixed;imageAspect=0;image=data:image/png,iVBORw0KGgoAAAANSUhEUgAAAOEAAAEACAMAAAByAuHbAAAACXBIWXMAAAsTAAALEwEAmpwYAAAARVBMVEVHcExWSttUSdhVSto/P7JcTOY+PrFbTeVeUe5cTeRTSdZbTeRbTeRbTeRbTeQ/P7E/P7E/P7FATbFcTuVAQLJbTeQ/P7Eb1C6ZAAAAEnRSTlMAWUEW++no+wR2Ko+rw9jDdp11CWsIAAAH4UlEQVR42u2d63arIBCFNU0b0zRpukZ8/0etXFRUVECus/D/Oe3XzZbZgEP1/KiqpsL8AHlUuBlvQEiNXMOe8XVBTEh6xJ7xB68dASgjILYjgGAktxqrhgwR6FB9fWOUEQAGGakdG3yMMD3Mjnd0dpQJmR0/a7waDnZ84rIjLB58M8eKcLIjUkKhI/m8ICa8CTsiKeRAKSImO8LWwxhrrBpOsyOCXAU7iIAiVwHAvozZ2xHgkDHzXAVwxJh7roJjRDZU881VoPPQoZptrgLQZsy0kNMlzDdXgTZirjMHgBEjyS9XgdGTox3NAPmKXF65Ckyf7OxoTsgYMyrkACwZaSGHlTCzBXKwfPJZILcmzMaOYP+QPAq5M4Rs4ZHZESlhJgvkAOcZyQsxIctV5BM1YS8idkJZw+ReOo1rwtQYG7caNtX9kRpf8+uW8JHSPgfV7921jjUkScXj+qtrr64JU4nH/c///u353Gt4S2Kfg/59/7qWAronBEJS2Od4d0zA1gMhgQTi8YUasGOAXgijxuP+J378tozPJyHEOj/GDTgMUJ+EJFo8rq8zPn8aRtrn+JYM6JsweDxmJdqKzythP2+E2+cQJRodoAEJp9WqEIVcfVXx+ScMss/BSrR2/oIJSAi+D6xQA/YlWqcSMBAhZ/S0z9EMJVrbKSUMQ+j3uxxeorVbTxgNfRVyrERTzBBxCN3bUc5ICRCOi8cuCzn1DBiN0Pn5sQMDRiB0aEcdA8YhJE4OrLAZop8fjgZoFA1pseqgkFtlpIQIT+eqaRWtTZVwZKztSzRtvkiE44GVi1WJ1poAxiIccpVxIXf5avVeMCkQmtpxNKABXlRCw1w1lmitGWBkQqMPrHVKtPQI9c+PMQMa41HCG5CYGup8CDCWaK0VIdyiE7JXzmYhJ2UkCz6mIWUkEQkHO24WcmIVzQ6wraofcpbRASGTEdYzR6NcxjYkrL5frBiOTKjKVeYlmpqwHwaf5IyMLgiHobqw4/uEASdC+je7nxmqrginBfJ5iD8lYTu+jn/oULVjdEY4fnzMB6oo0c4BttLG1IsNVQtGl4SU8S4Ir+cFnBE2VX2zs6NDQnYOcCD8OvmOWRNW1cPKjh4JW5eE3I5PbkekhPz9ZT5zZEZoMXNkRjjaUf+tmp2GTdVwO+oiZkfIfldhR8SEJnbMkZCX9SJXISXk0UzkKoKTkOcqnSWAjAk1C7msNZRyFVJCXsi99gu5/Al7O5K92TF/wiM7YtBQylUEJ+F+rkJDuFnIoSGkP1ZZyCHSkBZyz3Uhh4hwY4EcF6EqV2HTUOQqaS8HG+GUqwhaQsYoFsixEs4LOZSEs1yFlFDKVZgJ6cyBW8PBjpg15LnqhpiQzxxP1ITT6RC0hCMjYkJZQ0iLsOscE54+I+eUkH6U6FxDnX2OQISMz62G58+POSSkZxl7wN8P59873jW35LxrSPm+3H9GPsZjax1dEfb/tHt7+b56GY8jEDIDtt2fz+4qtf3J49OEPR8F/PXZkkOKx+EJ+Rv06rutyrTPQcISihnCjwEXRWpldGDFmYZshvBowI/ltqP5ULUnFDPg17dP/R436b+3O85pTcjfoH4NSOvS2Qc+Nsc5LQmHGaLy2kWF1aWLLwoaUzvaEg4lWuNZQ7L8osD4QwAbws5XiaYkXHXAks6PEV+EwwwRhnD9aeh4fkyH0ZwwhAGX6zSqmz6kfQ6HhFJGasJpOF5oamVHI8LJgGE6pkldBdcdsKRtR+KIUMwQ7ypYS7hZV8FtO+7LaKKh94y0Rzg0a5t/qd0c5yptQj4Dhm1buOpIt+qApVHIaRJ2QTLSEaGqA9b++TFtQu8ZSZNwq3HCXiF3TChmiL8ILWCVq/rqDlj3zeOcR4R8kYJmpAgdbjf3LZaNE/bseEAYIiOZEyo6YE3nx4ghITXgXxWpR/He3pOqA5bSjruEXcgSzZAQdAu5HcIuUEayJVw3TpAWyHUIg2Uka8LdQm7UcYswYEay13Cjs/C8kFMRdtENqL+PP+WqrZljTdiNGSn6lQtaXQUJqAq5ab9KoWGkEs2ScLzsc1nIvYSMC8IQ+0iuCYeZY1nIie9ylhpGyEgOCAmsWplOdpz3VIiRkVxoqOqANeWquYZJGNCccKPlDivkJMJkDGhDOM4c9bKQGwmv1IBNShdIWZz6UiyQV8/HoOE7tTvALLoKKnOVesM1Uw037Jgmn31Hut2GdCgI87kK+8T50kyuwj5DaN9ZOBPCcYH8gpdwmB1/PhATSsscWDUUQ/We7PvG9Vl9pIRwKxoWwkJYCAthISyEhbAQFsJCWAgLYSEshIWwEBbCQlgIC2EhLISFsBAWwkJYCAthISyErgjPXr6bOOHD8gbFfAgv5GxDurQJ6fM4e/du8oTiiwL7oZo+odUNipkRnrt7NwfC5pQd89BQuukDKaFsR7SEjej8ZTxUM9Jwarlj1DwxI8LZDYpICdlj2so0N0LzmSM/DbVuUMyakM8cL+02n5kSTl9qYyU0sGO2Gh52wMqecJarCFJCvd6JeWs4tjJFO0o3b1BERMhnjr1chYDwwI4oNFR2wEJFuHtFBBJC+QZFgpRws5DDQ7iVqzARily1GKroCFeXC6EjXN3YglDDZtqvQkpY0VZQ0wI5SsJZIYeTcHZFBFJCqZBDS8hzFWYNJTti1pAXcg/EhLyQc9st6h/3JYuiEB7b+AAAAABJRU5ErkJggg==;" vertex="1" parent="1">
          <mxGeometry x="630.0000000000001" y="72" width="31.64" height="36" as="geometry" />
        </mxCell>
      </root>
    </mxGraphModel>
  </diagram>
  <diagram id="PpB4xPp_ZHeArdvKEWPs" name="avatar">
    <mxGraphModel dx="978" dy="521" grid="1" gridSize="10" guides="1" tooltips="1" connect="1" arrows="1" fold="1" page="1" pageScale="1" pageWidth="827" pageHeight="1169" math="0" shadow="0">
      <root>
        <mxCell id="0" />
        <mxCell id="1" parent="0" />
        <mxCell id="T8laGl2IbO7112Dmj8nN-7" style="edgeStyle=orthogonalEdgeStyle;rounded=1;orthogonalLoop=1;jettySize=auto;html=1;exitX=1;exitY=0.5;exitDx=0;exitDy=0;curved=0;" parent="1" source="0FG9KZWAAc-MZkTY_U2P-1" target="T8laGl2IbO7112Dmj8nN-1" edge="1">
          <mxGeometry relative="1" as="geometry" />
        </mxCell>
        <mxCell id="0FG9KZWAAc-MZkTY_U2P-1" value="" style="shape=image;verticalLabelPosition=bottom;labelBackgroundColor=default;verticalAlign=top;aspect=fixed;imageAspect=0;image=https://cdn.iconscout.com/icon/free/png-256/free-powershell-logo-icon-download-in-svg-png-gif-file-formats--technology-social-media-company-brand-vol-5-pack-logos-icons-2945093.png;" parent="1" vertex="1">
          <mxGeometry x="414" y="290" width="50" height="50" as="geometry" />
        </mxCell>
        <mxCell id="T8laGl2IbO7112Dmj8nN-8" style="edgeStyle=orthogonalEdgeStyle;rounded=1;orthogonalLoop=1;jettySize=auto;html=1;entryX=1;entryY=0.5;entryDx=0;entryDy=0;exitX=0.5;exitY=1;exitDx=0;exitDy=0;curved=0;" parent="1" source="T8laGl2IbO7112Dmj8nN-1" target="KbPCeMhCeb5rMqeu3ku6-1" edge="1">
          <mxGeometry relative="1" as="geometry" />
        </mxCell>
        <mxCell id="T8laGl2IbO7112Dmj8nN-1" value="" style="shape=image;verticalLabelPosition=bottom;labelBackgroundColor=default;verticalAlign=top;aspect=fixed;imageAspect=0;image=https://gitlab.com/uploads/-/system/project/avatar/30472118/logo-extra-whitespace.png;clipPath=inset(10% 7.67% 12.33% 8%);" parent="1" vertex="1">
          <mxGeometry x="464" y="339.74" width="60" height="55.25691699604743" as="geometry" />
        </mxCell>
        <mxCell id="T8laGl2IbO7112Dmj8nN-6" style="edgeStyle=orthogonalEdgeStyle;rounded=1;orthogonalLoop=1;jettySize=auto;html=1;entryX=0.012;entryY=0.574;entryDx=0;entryDy=0;entryPerimeter=0;curved=0;exitX=0.5;exitY=0;exitDx=0;exitDy=0;" parent="1" source="ZUNLYuoOgb2Wi8IZYpfX-1" target="0FG9KZWAAc-MZkTY_U2P-1" edge="1">
          <mxGeometry relative="1" as="geometry">
            <mxPoint x="375" y="345" as="sourcePoint" />
          </mxGeometry>
        </mxCell>
        <mxCell id="KbPCeMhCeb5rMqeu3ku6-2" style="edgeStyle=orthogonalEdgeStyle;rounded=1;orthogonalLoop=1;jettySize=auto;html=1;entryX=0.5;entryY=1;entryDx=0;entryDy=0;curved=0;" parent="1" source="KbPCeMhCeb5rMqeu3ku6-1" target="ZUNLYuoOgb2Wi8IZYpfX-1" edge="1">
          <mxGeometry relative="1" as="geometry">
            <mxPoint x="375" y="395" as="targetPoint" />
          </mxGeometry>
        </mxCell>
        <mxCell id="KbPCeMhCeb5rMqeu3ku6-1" value="" style="shape=image;verticalLabelPosition=bottom;labelBackgroundColor=default;verticalAlign=top;aspect=fixed;imageAspect=0;image=https://upload.wikimedia.org/wikipedia/commons/thumb/9/9a/Visual_Studio_Code_1.35_icon.svg/2048px-Visual_Studio_Code_1.35_icon.svg.png;" parent="1" vertex="1">
          <mxGeometry x="419" y="410" width="40" height="40" as="geometry" />
        </mxCell>
        <mxCell id="ZUNLYuoOgb2Wi8IZYpfX-1" value="" style="shape=image;verticalLabelPosition=bottom;labelBackgroundColor=default;verticalAlign=top;aspect=fixed;imageAspect=0;image=data:image/png,iVBORw0KGgoAAAANSUhEUgAAAOEAAAEACAMAAAByAuHbAAAACXBIWXMAAAsTAAALEwEAmpwYAAAARVBMVEVHcExWSttUSdhVSto/P7JcTOY+PrFbTeVeUe5cTeRTSdZbTeRbTeRbTeRbTeQ/P7E/P7E/P7FATbFcTuVAQLJbTeQ/P7Eb1C6ZAAAAEnRSTlMAWUEW++no+wR2Ko+rw9jDdp11CWsIAAAH4UlEQVR42u2d63arIBCFNU0b0zRpukZ8/0etXFRUVECus/D/Oe3XzZbZgEP1/KiqpsL8AHlUuBlvQEiNXMOe8XVBTEh6xJ7xB68dASgjILYjgGAktxqrhgwR6FB9fWOUEQAGGakdG3yMMD3Mjnd0dpQJmR0/a7waDnZ84rIjLB58M8eKcLIjUkKhI/m8ICa8CTsiKeRAKSImO8LWwxhrrBpOsyOCXAU7iIAiVwHAvozZ2xHgkDHzXAVwxJh7roJjRDZU881VoPPQoZptrgLQZsy0kNMlzDdXgTZirjMHgBEjyS9XgdGTox3NAPmKXF65Ckyf7OxoTsgYMyrkACwZaSGHlTCzBXKwfPJZILcmzMaOYP+QPAq5M4Rs4ZHZESlhJgvkAOcZyQsxIctV5BM1YS8idkJZw+ReOo1rwtQYG7caNtX9kRpf8+uW8JHSPgfV7921jjUkScXj+qtrr64JU4nH/c///u353Gt4S2Kfg/59/7qWAronBEJS2Od4d0zA1gMhgQTi8YUasGOAXgijxuP+J378tozPJyHEOj/GDTgMUJ+EJFo8rq8zPn8aRtrn+JYM6JsweDxmJdqKzythP2+E2+cQJRodoAEJp9WqEIVcfVXx+ScMss/BSrR2/oIJSAi+D6xQA/YlWqcSMBAhZ/S0z9EMJVrbKSUMQ+j3uxxeorVbTxgNfRVyrERTzBBxCN3bUc5ICRCOi8cuCzn1DBiN0Pn5sQMDRiB0aEcdA8YhJE4OrLAZop8fjgZoFA1pseqgkFtlpIQIT+eqaRWtTZVwZKztSzRtvkiE44GVi1WJ1poAxiIccpVxIXf5avVeMCkQmtpxNKABXlRCw1w1lmitGWBkQqMPrHVKtPQI9c+PMQMa41HCG5CYGup8CDCWaK0VIdyiE7JXzmYhJ2UkCz6mIWUkEQkHO24WcmIVzQ6wraofcpbRASGTEdYzR6NcxjYkrL5frBiOTKjKVeYlmpqwHwaf5IyMLgiHobqw4/uEASdC+je7nxmqrginBfJ5iD8lYTu+jn/oULVjdEY4fnzMB6oo0c4BttLG1IsNVQtGl4SU8S4Ir+cFnBE2VX2zs6NDQnYOcCD8OvmOWRNW1cPKjh4JW5eE3I5PbkekhPz9ZT5zZEZoMXNkRjjaUf+tmp2GTdVwO+oiZkfIfldhR8SEJnbMkZCX9SJXISXk0UzkKoKTkOcqnSWAjAk1C7msNZRyFVJCXsi99gu5/Al7O5K92TF/wiM7YtBQylUEJ+F+rkJDuFnIoSGkP1ZZyCHSkBZyz3Uhh4hwY4EcF6EqV2HTUOQqaS8HG+GUqwhaQsYoFsixEs4LOZSEs1yFlFDKVZgJ6cyBW8PBjpg15LnqhpiQzxxP1ITT6RC0hCMjYkJZQ0iLsOscE54+I+eUkH6U6FxDnX2OQISMz62G58+POSSkZxl7wN8P59873jW35LxrSPm+3H9GPsZjax1dEfb/tHt7+b56GY8jEDIDtt2fz+4qtf3J49OEPR8F/PXZkkOKx+EJ+Rv06rutyrTPQcISihnCjwEXRWpldGDFmYZshvBowI/ltqP5ULUnFDPg17dP/R436b+3O85pTcjfoH4NSOvS2Qc+Nsc5LQmHGaLy2kWF1aWLLwoaUzvaEg4lWuNZQ7L8osD4QwAbws5XiaYkXHXAks6PEV+EwwwRhnD9aeh4fkyH0ZwwhAGX6zSqmz6kfQ6HhFJGasJpOF5oamVHI8LJgGE6pkldBdcdsKRtR+KIUMwQ7ypYS7hZV8FtO+7LaKKh94y0Rzg0a5t/qd0c5yptQj4Dhm1buOpIt+qApVHIaRJ2QTLSEaGqA9b++TFtQu8ZSZNwq3HCXiF3TChmiL8ILWCVq/rqDlj3zeOcR4R8kYJmpAgdbjf3LZaNE/bseEAYIiOZEyo6YE3nx4ghITXgXxWpR/He3pOqA5bSjruEXcgSzZAQdAu5HcIuUEayJVw3TpAWyHUIg2Uka8LdQm7UcYswYEay13Cjs/C8kFMRdtENqL+PP+WqrZljTdiNGSn6lQtaXQUJqAq5ab9KoWGkEs2ScLzsc1nIvYSMC8IQ+0iuCYeZY1nIie9ylhpGyEgOCAmsWplOdpz3VIiRkVxoqOqANeWquYZJGNCccKPlDivkJMJkDGhDOM4c9bKQGwmv1IBNShdIWZz6UiyQV8/HoOE7tTvALLoKKnOVesM1Uw037Jgmn31Hut2GdCgI87kK+8T50kyuwj5DaN9ZOBPCcYH8gpdwmB1/PhATSsscWDUUQ/We7PvG9Vl9pIRwKxoWwkJYCAthISyEhbAQFsJCWAgLYSEshIWwEBbCQlgIC2EhLISFsBAWwkJYCAthISyErgjPXr6bOOHD8gbFfAgv5GxDurQJ6fM4e/du8oTiiwL7oZo+odUNipkRnrt7NwfC5pQd89BQuukDKaFsR7SEjej8ZTxUM9Jwarlj1DwxI8LZDYpICdlj2so0N0LzmSM/DbVuUMyakM8cL+02n5kSTl9qYyU0sGO2Gh52wMqecJarCFJCvd6JeWs4tjJFO0o3b1BERMhnjr1chYDwwI4oNFR2wEJFuHtFBBJC+QZFgpRws5DDQ7iVqzARily1GKroCFeXC6EjXN3YglDDZtqvQkpY0VZQ0wI5SsJZIYeTcHZFBFJCqZBDS8hzFWYNJTti1pAXcg/EhLyQc9st6h/3JYuiEB7b+AAAAABJRU5ErkJggg==;" vertex="1" parent="1">
          <mxGeometry x="352" y="341.92" width="50" height="56.9" as="geometry" />
        </mxCell>
      </root>
    </mxGraphModel>
  </diagram>
</mxfile>
